<?xml version="1.0" standalone="no"?>
<!DOCTYPE svg PUBLIC "-//W3C//DTD SVG 1.1//EN" "http://www.w3.org/Graphics/SVG/1.1/DTD/svg11.dtd" >
<svg>
<metadata>
Created by FontForge 20110222 at Fri Aug 22 10:09:41 2014
 By deploy user
(c) 2000 Jeff Lee &#60;http://www.gate.net/~shipbrk/typograf.html&#62;
</metadata>
<defs>
<font id="JSL-AncientItalic" horiz-adv-x="611" >
  <font-face 
    font-family="JSL Ancient"
    font-weight="400"
    font-style="italic"
    font-stretch="normal"
    units-per-em="2048"
    panose-1="0 0 0 0 0 0 0 0 0 0"
    ascent="1638"
    descent="-410"
    x-height="804"
    cap-height="1360"
    bbox="-532 -678 2685 1369"
    underline-thickness="20"
    underline-position="-123"
    unicode-range="U+0020-2219"
  />
<missing-glyph horiz-adv-x="1024" 
d="M64 0v1365h896v-1365h-896zM896 64v1237h-768v-1237h768z" />
    <glyph glyph-name=".notdef" horiz-adv-x="1024" 
d="M64 0v1365h896v-1365h-896zM896 64v1237h-768v-1237h768z" />
    <glyph glyph-name=".null" horiz-adv-x="0" 
 />
    <glyph glyph-name="nonmarkingreturn" unicode="&#x131;" horiz-adv-x="526" 
 />
    <glyph glyph-name="space" unicode=" " horiz-adv-x="526" 
 />
    <glyph glyph-name="exclam" unicode="!" horiz-adv-x="572" 
d="M497 1101l-5 -39l-6 -35l-10 -32l-22 -39l-19 -40l-5 -27l-2 -42l-1 -43l-7 -27l5 -45l-27 -37l-4 -41l-8 -41l-5 -34l-14 -38l-5 -49l-27 -45l-23 -27l-20 -22l-16 -21l-32 -13l-22 18l-17 19l-4 21l-6 23l-11 36l-8 28l1 52l2 35l9 44l3 34l-14 33l6 30l5 43l-16 34
l9 48l15 34l11 39l10 31l3 41v31l29 44l22 55l34 20l35 10l44 9l29 -14l39 -20zM300 164q2 -8 2 -16.5v-16.5q0 -21 -3.5 -38.5t-8 -29.5t-23 -20.5t-21.5 -23.5q-25 -7 -39 -7q-12 2 -58 24q-21 10 -31 10q-10 6 -27 27t-28 29q-8 16 -8 34q0 26 15 50q35 75 85 75
q18 0 39 -7.5t50 -23.5q47 -32 48 -34q11 -13 8 -32z" />
    <glyph glyph-name="quotedbl" unicode="&#x22;" horiz-adv-x="660" 
d="M602 1123l-8 -27l-24 -21l-9 -25l-35 -29l-19 -31l-41 -10l-41 -29l-26 -9l-27 -5l-37 3l-24 17l-14 18l5 23l12 19l21 17l25 14l31 15l22 7l12 14l-2 22l-12 10l-32 19l-22 19l3 37l12 9l12 19l14 23l18 2l14 19l36 5l46 -8l41 -11l24 -18l8 -18l11 -30l1 -38zM321 1123
l-9 -27l-20 -23l-9 -25l-59 -56l-12 -16l-40 -25h-39l-25 -9l-28 -5l-37 3l-24 17l-14 18l-2 32l11 17l22 26l27 13h36l22 7l12 14l-2 22l-12 10l-32 19l-22 19l3 37h22v22l14 16l21 15l20 10l29 14l46 -3l41 -16l17 -18l21 -16l6 -31l11 -39z" />
    <glyph glyph-name="numbersign" unicode="#" horiz-adv-x="1166" 
d="M1137 804l-11 -21l-15 -25l-39 -31l-48 -3l-44 -2l-41 2l-53 8l-55 7l-32 -2l-55 -3l-51 -2h-36l-53 -10l-51 12l-51 -7h-55h-43l-49 -5l-61 -5l-62 12l-48 8l-39 11l-12 15l-5 17l-9 19l21 20l24 12l31 19l37 10l34 10l63 -8l45 3l53 -5h44l38 10h35l57 6l39 10h58
l46 -4l51 -1h41l50 1l37 4l65 -10l72 -9l31 -17l22 -19zM1094 1236q-5 -18 -31.5 -66t-35.5 -72t-30 -60.5t-29 -57.5q-4 -11 -5 -41t-7 -43q-2 -6 -28 -47q-12 -19 -17.5 -35t-5.5 -23q0 -16 -4.5 -27.5t-16.5 -34.5q-20 -38 -39 -75q-7 -18 -17 -40.5t-17 -36.5
q-15 -39 -18 -47q-11 -31 -16 -54q-7 -19 -16 -39q-4 -8 -27 -53q-8 -20 -15 -39q-10 -24 -19 -45q-2 -6 -5 -25t-6 -26q-19 -35 -32.5 -66t-25.5 -60q-1 -1 -12.5 -13.5t-14 -18t-3.5 -34.5q-2 -15 -2 -18q-5 -21 -9.5 -42t-14.5 -45q-5 -7 -10 -29t-31 -41q-8 5 -19 8.5
t-32 5.5q-15 0 -27 -6t-14 -6h-22q-15 0 -20.5 1.5t-5.5 10.5q0 11 21 36q0 24 12 51.5t24 54.5q7 28 27.5 66.5t24.5 49.5q8 18 14 47q10 47 12 55q11 41 25 76q19 43 31 72q24 0 24 13q-2 15 -2 26q0 23 8.5 48.5t33.5 61.5q19 30 35 74q13 36 21 74q4 13 28 34
q12 11 15 19q9 18 18 49q14 47 28 95q5 15 19 38q11 18 15 35q3 6 4 28.5t3 27.5q12 35 26 71t30 68q19 50 39 101q11 26 33 26q6 0 16 -1.5t16 -2.5q6 -4 10 -6q13 -7 24 -8q22 0 30.5 1.5t14.5 3.5q3 0 8 -3q-2 -9 7 -19.5t5 -21.5zM741 1254q0 -23 -12 -51t-24 -54
q-7 -27 -26 -63q-25 -47 -27 -53q-8 -19 -14 -48q-9 -45 -12 -55q-11 -41 -25 -76q-19 -43 -31 -72q-23 0 -23 -13q0 -1 1 -10.5t1 -17.5q0 -22 -7 -43q-10 -29 -35 -65q-21 -32 -36 -74q-11 -30 -20 -74q-4 -13 -28 -34q-12 -11 -15 -19q-13 -25 -24 -67q-17 -63 -22 -77.5
t-17.5 -35t-16.5 -37.5q-2 -4 -4 -28.5t-3 -27.5q-12 -35 -26 -71t-30 -68q-20 -50 -39 -100q-12 -26 -34 -26q-13 0 -32 4q-6 4 -10 6q-14 7 -24 7q-20 0 -28 -1.5t-17 -3.5q-3 0 -8 4q3 8 -6 18.5t-6 22.5q5 17 21 46q40 73 47 93.5t20 43.5q35 64 39 75t5 40.5t7 40.5
q2 5 28 47q11 17 18 37q4 13 4 20q0 3 -0.5 9t5 19t25.5 51q15 29 31 59q7 18 17 40.5t17 36.5q15 39 18 47q10 27 16 54q7 19 16 39q4 8 27 53q7 20 10 29q10 25 24 55q2 5 4 23.5t6 27.5q19 35 32 65.5t26 60.5q1 1 12.5 13.5t14 18t3.5 20.5t2 32q6 25 11.5 47t12.5 40
q5 7 10 28.5t31 41.5q8 -5 19 -8.5t32 -5.5q15 0 24.5 4.5t16.5 7.5q21 0 35 -0.5t14 -11.5t-21 -36zM1034 459l-20 -19l-26 -12l-31 -17l-35 -13l-36 -9l-62 9l-46 -2l-51 3l-46 -1l-36 -9h-36l-56 -3l-41 -14h-56l-46 5h-52l-41 4l-51 -4l-36 -3l-66 12l-72 7l-31 17
l-20 18l-26 26l11 20l15 28l41 32l46 2l46 2l41 -2l51 -9l57 -6h30l57 5l51 3h36l51 9l51 -12l51 5l57 1l41 2l51 5l61 2l62 -10l46 -10l41 -11l10 -12l5 -18z" />
    <glyph glyph-name="dollar" unicode="$" horiz-adv-x="773" 
d="M817 1072l-3 -31q-4 -5 -20.5 -106.5t-56.5 -101.5q-27 0 -41 19.5t-18 52.5q9 12 9 27q0 13 -7.5 38t-7.5 34q-13 59 -42 81.5t-82 22.5q-66 0 -108 -26q-30 -9 -44 -34.5t-14 -64.5q0 -45 18.5 -94.5t39.5 -69.5l60 -90q3 -11 6.5 -23.5t20.5 -22.5q14 -30 21 -40
t20 -22q0 -17 9.5 -29.5t18.5 -24.5q2 -14 2.5 -22.5t9.5 -17.5q1 -5 3.5 -49t11.5 -53l3 -55q0 -42 -18 -88t-48 -87q-3 -4 -22 -26q-26 -30 -26 -46q-19 -8 -48 -25.5t-35.5 -20t-24.5 -2.5q-12 0 -24.5 0.5t-22.5 1.5q-22 0 -45 -5q-55 -12 -59 -12q-14 0 -23 2.5
t-22 7.5q-52 2 -92.5 4.5t-56 9.5t-18.5 9q-11 7 -17 15q-13 11 -17 35q2 16 3.5 28.5t1.5 21.5t-3.5 18t-3.5 26q0 14 9 36q3 7 12 26q10 5 13 8q4 8 6 17.5t4.5 37.5t11.5 64q19 72 58 72q19 0 30 -17.5t11 -35.5l2 -102q0 -57 26 -80q17 -15 47 -15q3 0 10.5 1t8.5 0
q10 -14 18 -20q27 -21 63 -21q42 0 66 8q34 11 31 35q17 7 30.5 26t13.5 27q2 14 2 27q0 18 -5 36q-7 7 -20.5 36.5t-20.5 36.5q1 5 1 13q0 24 -11 49q-5 12 -35 58q-11 5 -22 11q-54 56 -60 59q-7 9 -15 46q-1 6 -3 17q-23 19 -42 40q-22 24 -32 47q-6 16 -6 53v28.5
t1 32.5q0 62 1 86t4 41q0 1 30 41q15 20 28 58q91 93 275 93h70q40 -2 70 -10q11 -13 31 -21q52 -21 61 -25q19 -19 29 -39t10 -46zM650 1237q1 -5 1 -15q0 -19 -9.5 -44t-18.5 -48q-6 -24 -42 -131q-16 -47 -23 -85t-20 -74l-26 -72q-15 0 -18 -22q-7 -53 -37 -121
q-5 -18 -27 -78q-16 -44 -20 -69q-10 -43 -35 -96q-30 -65 -40 -95q-40 -133 -79 -265q-10 -26 -25 -74t-31 -48q-10 0 -35.5 10t-39.5 17t-23 17q1 4 18 80q12 56 27 97q9 27 24 58q19 37 25 57q10 32 19 64q23 84 29 103q14 40 20 58q20 57 36 95q28 88 57 176
q15 56 30.5 111.5t42.5 110.5q22 39 33 85q19 77 22 86l39 123q2 4 7 26.5t29 39.5q31 -11 63 -22q21 -5 34.5 -8.5t13.5 -13.5q0 -7 -3.5 -13t-17.5 -20z" />
    <glyph glyph-name="percent" unicode="%" horiz-adv-x="777" 
d="M312 1188q5 -14 6.5 -18.5t1.5 -14.5q0 -18 -3 -33q-7 -22 -10.5 -38t-12 -30.5t-24.5 -31.5q-6 -10 -8 -14q-5 -9 -18 -10q-42 -22 -82 -22q-7 0 -16 1.5t-13 2.5q-50 8 -84 42q3 6 3 10q0 7 -20 11q-12 14 -18.5 27.5t-9 25.5t-2.5 25q0 32 10 63q-1 4 1 7.5t6 6.5
q5 14 12 24q4 6 18 22q14 13 24.5 20.5t23.5 13.5q4 -5 9 -5q7 0 7 9q5 8 15 8q9 3 18 3q14 0 35 -8l26 -10q19 -4 31 -6t20 -8l12 -17q28 -30 42 -56zM707 1246q0 -22 -12.5 -51t-23.5 -55q-7 -27 -26 -63q-25 -47 -27 -53q-8 -19 -14 -47q-10 -47 -12 -55q-11 -43 -25 -77
q-19 -43 -31 -72q-24 0 -24 -13q2 -16 2 -29q0 -21 -7 -42q-10 -30 -34 -64q-14 -21 -29 -57.5t-28 -91.5q-4 -12 -27 -33q-12 -11 -15 -20q-12 -23 -24 -67q-17 -62 -22 -76.5t-18 -36t-16 -36.5q-4 -7 -5 -29.5t-2 -27.5q-15 -43 -26 -70q-15 -37 -31 -68
q-31 -81 -39 -100q-12 -27 -33 -27q-13 0 -32 4q-6 4 -10 6q-13 7 -24 8q-20 0 -29.5 -2t-15.5 -4q-4 0 -8 4q2 9 -7 19.5t-5 21.5q6 18 21 47q41 76 47.5 94t19.5 42q35 62 39 74t5 41.5t7 41.5q2 6 28 47q11 17 18 36q4 15 4 20q0 3 -0.5 9t5 19.5t25.5 51.5q29 56 30 59
l35 77q14 34 18 46q10 26 16 54q7 23 21 51q10 21 21 42q10 25 15 38q9 24 20 45q5 25 10 51q20 36 32.5 66.5t25.5 60.5q2 2 13 14t13.5 17t3.5 20t2 32q6 25 11.5 47t12.5 40q5 7 10 28.5t31 41.5q8 -5 20 -9t31 -4q15 0 27 6t14 6q21 -1 35 -1.5t14 -10.5q0 -11 -21 -36z
M748 232q2 -8 4.5 -16t2.5 -17q0 -18 -3 -33q-7 -22 -10.5 -38t-12.5 -31t-24 -30q-6 -13 -10.5 -18.5t-15.5 -5.5q-41 -23 -82 -23q-7 0 -16 1.5t-13 2.5q-47 7 -83 43q2 5 2 9q0 7 -19 11q-23 28 -29 58q-2 14 -2 23q0 23 4 38.5t6 22.5q-1 4 2.5 8t4.5 5q5 14 12 24
q4 6 19 22q12 11 22.5 19.5t24.5 15.5q5 -6 9 -6q7 0 7 9q5 9 15 9q6 2 17 2t28 -6q32 -11 39.5 -12.5t22 -4t23.5 -9.5l12 -17q13 -12 23.5 -26t19.5 -30zM249 1137q3 6 0 11t-3 7q-6 22 -21 35q-22 21 -27.5 24t-20.5 6q-10 2 -37 -3l-12 -2q-3 -2 -9.5 -10t-9.5 -10
q-9 -8 -17.5 -15.5t-11.5 -18.5v-7q4 -4 4.5 -6t-5.5 -3q-1 -4 0 -17.5t1 -14.5l14 -28q3 -5 5 -5q10 -11 18.5 -17.5t18 -9.5t15.5 -3q11 1 18 1q9 8 11.5 7t3.5 -5q13 2 23.5 8.5t21.5 18.5q17 22 20 57zM684 181q2 5 0.5 9.5t-3.5 9.5q-4 20 -21 34q-21 20 -27 23.5
t-20 7.5q-15 2 -38 -4l-12 -2q-3 -2 -9.5 -10t-9.5 -10q-9 -8 -17.5 -15.5t-11.5 -18.5v-7q4 -3 4.5 -5.5t-5.5 -3.5q-1 -4 0 -17.5t1 -14.5l14 -27q2 -3 5 -5q10 -11 18.5 -17.5t18 -10t15.5 -3.5q4 0 18 2q12 9 15 4q0 -2 1 -3q25 6 44.5 29.5t19.5 54.5z" />
    <glyph glyph-name="ampersand" unicode="&#x26;" horiz-adv-x="1490" 
d="M1430 524q-2 -16 -15 -32q-5 -8 -15 -13.5t-19 -10.5q-4 -4 -5 -14t-12 -15.5t-28 -8.5q-9 2 -14.5 3.5t-8.5 5t-7 19t-7 20.5q-7 9 -18.5 17t-22.5 17q-2 2 -7.5 13t-10 14.5t-18.5 6.5t-17.5 6t-13.5 21q-5 9 -8 11q-15 7 -36 7q3 -14 4 -30.5t1 -18.5v-27
q-1 -15 -4 -24q-7 -20 -13 -40q-1 -5 -1 -16v-18q0 -13 -2 -18q-15 -25 -29 -49q-7 -18 -14 -34.5t-16 -28.5q-5 -9 -15 -20t-19 -21q-4 -6 -12 -30t-16 -32.5t-28 -26.5q-15 -13 -19 -17l-34 -44q-10 -8 -31 -20q-3 -2 -34 -18q-4 -2 -20.5 -7t-22 -8t-29.5 -20
q-15 -11 -20 -13q-19 -9 -37.5 -17t-31.5 -9.5t-28 -2t-28 -1.5h-39q-27 -3 -54 -7q-14 0 -50 8.5t-46 8.5q-18 -4 -25 -4t-15.5 4t-21 23t-20 25t-25.5 10t-24.5 9t-18.5 8t-16.5 7t-16.5 25q-6 11 -11 16q-12 10 -15 13q-10 13 -20 24q-17 13 -34 27q-2 3 -10 28
q-4 11 -7 17q-11 14 -18 25q-12 19 -23 40l-24 34q-3 5 3 21.5t4 22.5q-1 4 -15 18q-7 7 -9.5 16t-5 25.5t-4.5 36.5q-1 7 4.5 23.5t5.5 20.5t-9 24.5t-8 26.5q3 21 21 48q9 13 17.5 26.5t18 29.5t18.5 23q2 1 16 6t18 10.5t5 23t8 21.5t31.5 8.5t28 5.5t16.5 9.5t17 10.5
q14 6 31 8t34 2q6 1 22.5 -2.5t18.5 -3.5q19 0 38 -0.5t42 -4.5q13 16 19 22q14 14 27.5 20.5t15.5 9.5q6 6 6 24t7 24q2 2 15.5 11.5t20.5 17t15.5 26.5t17.5 27q2 2 8 5q13 6 16 9t7 16t6 15l34 37q1 1 8 17q3 7 6 10q12 11 30 26q2 2 6 5l60 -17q23 -7 47 -14
q6 -2 15.5 -8.5t18.5 -11.5q4 -2 18 -5t17 -5l27 -23q-8 -5 -8 -11q0 -7 1 -14q-2 -5 -8 -9q-12 -8 -23 -15q-4 -4 -23.5 -14.5t-23.5 -16t-9.5 -17t-11.5 -17.5q-22 -16 -44 -31q-6 -5 -24.5 -5t-23 -4.5t-8 -14.5t-7.5 -14.5t-23.5 -10.5t-24.5 -12q-9 -10 -20 -29.5
t-18 -28.5q-4 -5 -15 0t-15 0q-3 -3 -3.5 -20t-3.5 -21q-14 -26 -28 -51q-2 -3 -20.5 -9t-20.5 -8.5t-11 -32.5q-5 -16 -6.5 -19t-1.5 -13q1 -15 1 -22q0 -5 -2 -9q-6 -8 -14 -15q-1 -1 -17 -12q-11 -8 -16.5 -14.5t-11.5 -17.5t-14 -32.5t-12 -31.5q-18 -24 -35 -48
q-5 -11 -9.5 -37t-7 -32.5t-12.5 -8.5t-12 -8.5t-2 -21.5q1 -15 1 -23v-9q-2 -4 -2 -5q4 -12 14 -24q15 -19 17 -22q6 -17 13 -34q14 -10 30 -17t39 -14q12 -3 27 -3h14.5t15.5 1q12 0 19.5 -1.5t21.5 -9t19 -7.5q11 0 28 11t22 13q15 2 25.5 3.5t18.5 6.5l48 34q27 7 55 14
l44 44l92 58q2 2 5 14t7 14.5t8 2.5q8 -1 11 -1q6 0 11 5t17 30q6 13 11 21t24 37q16 24 22 38q12 23 17 51q2 7 -0.5 19t-2.5 15l20 24q1 7 -4 15q-8 13 -9 16q-2 7 0.5 20.5t2.5 15.5q-3 2 -4.5 10t-4.5 11t-13.5 6t-19 6t-16 4.5t-10.5 4.5q-12 13 -22.5 26t-18.5 25
q-3 2 -9 2q-5 0 -13 -2t-12 0q-3 1 -21 13q-11 7 -20 8q-17 2 -29.5 -9t-14 -23.5t-1.5 -22.5q0 -23 14 -37q6 -6 21.5 -15.5t19.5 -12.5l-10 -23q2 -2 9 -1.5t10 0.5q5 0 8 -3q3 -1 5 -5q6 -10 13 -13.5t14 -6.5t13 -9q2 -8 2 -13q0 -9 -2.5 -15.5t-8.5 -14.5t-12 -15
q-1 -3 -13.5 -5t-13.5 -4.5t-2 -7.5t-1 -14q0 -15 -4 -20q-7 -12 -14 -22q-10 -15 -17 -23q-6 -2 -16 -2t-17.5 3t-17 13t-18 19.5t-16.5 27.5q-12 29 -15 34.5t-8.5 21t-10 32.5t-7.5 32t-3 31q0 7 -5.5 18t-5.5 16q1 7 6 19q15 33 15 34q6 22 20 42q8 11 28 31
q13 12 25.5 20t26.5 11t26 3q11 0 30.5 -1.5t20.5 -1.5q7 0 27 5t28 5q16 0 34 -10q26 -14 33 -16t20 -11t19 -10q7 -3 25 -5t26 -5.5t20 -15t15.5 -13.5t13.5 -2q19 0 26 -4l46 -31q23 -12 32 -18q17 -11 24 -19q7 -14 14 -27q3 -3 30 -18q11 -6 18 -13q3 -3 26 -14
q10 -5 15 -10q10 -15 15 -46zM410 674q-12 2 -27 3.5t-23 1.5q-21 0 -30.5 -3t-27.5 -14q-7 -4 -19.5 -17.5t-17.5 -19.5q-6 -5 -23 -13t-22 -15q-3 -7 -7.5 -23t-7.5 -30q-2 -7 1.5 -18.5t3.5 -13.5l-8 -46q0 -8 2 -16.5t6 -22.5t9 -22.5t14 -17t13 -12.5q3 7 13 9.5
t13.5 6.5t8.5 20.5t7 18.5q6 8 14.5 24t13.5 24q7 22 11 34.5t9 19.5q1 1 13 12t15 16l6 28t7 20q13 17 27 34q3 4 3 12q0 15 3 20z" />
    <glyph glyph-name="quotesingle" unicode="'" horiz-adv-x="323" 
d="M376 1159q0 -18 -2 -28t-15 -64q-8 -5 -18 -26q-6 -14 -11.5 -19.5t-24.5 -13t-25 -11.5q-13 1 -31 -10q-40 -26 -49 -26q-8 0 -12 2q-20 4 -35 9q-30 10 -30 26q0 6 12 19l34 36q24 12 30.5 18.5t6.5 17.5l-2 8l10 12q-9 11 -21.5 17t-23.5 11q-15 9 -15 42
q0 6 0.5 14.5t8.5 19.5q9 1 22 12q6 5 22 21q12 8 26.5 12.5t33.5 4.5q39 0 71 -25q38 -30 38 -79z" />
    <glyph glyph-name="parenleft" unicode="(" horiz-adv-x="669" 
d="M662 1227q0 -17 -2.5 -39.5t-7.5 -28.5q-12 -17 -36 -27q-38 -15 -46.5 -20.5t-22.5 -21.5t-26 -30q-4 -5 -17.5 -12.5t-16.5 -10.5t-8 -19t-8 -20q-8 -10 -19.5 -18.5t-24.5 -18.5q-5 -8 -9.5 -13.5t-18.5 -17.5q-1 -1 -9 -3t-10 -3t-5 -9.5t-5 -9.5q-13 -11 -25 -21
l-10 -32q-14 -18 -44 -46t-38 -41l-26 -72q-5 -22 -9 -43q-4 -11 -22 -50q-10 -21 -13 -30q-8 -22 -11.5 -33t-4.5 -20v-24q-2 -7 -8.5 -12.5t-6.5 -6.5l-2 -81l10 -18l-10 -18l12 -17l-10 -9q-4 -3 5.5 -18t10 -20t3.5 -38t5 -46.5t8.5 -32t6.5 -26.5q0 -13 -8 -22
q1 -6 3 -11.5t10 -17.5l12 -12q8 -8 12 -17q2 -4 1 -12.5t-1 -15.5q0 -4 1.5 -8t9 -8t9.5 -10t4 -12.5t5 -10.5q8 -9 16 -19q4 -11 4 -25q0 -9 -0.5 -17t-0.5 -15q2 -14 2 -21q0 -3 6 -9q2 -2 7 -6l7 -24l9 -23l8 -23l17 -35q2 -3 8 -3t8 -2q7 -7 13.5 -16t11.5 -14
q2 -2 3 -8t2 -8l14 -12q1 -2 4 -17.5t5 -18.5q9 -14 17 -23t17 -18q18 -21 83 -66q46 -32 62 -44q7 -5 15.5 -18t9.5 -15q2 -1 9.5 -2.5t7.5 -2.5q11 -13 16 -22t5 -19q0 -22 -18 -40t-49 -18q-6 0 -18 -1.5t-13 -1.5q-7 0 -16.5 2t-27.5 11.5t-34 18.5q-7 6 -13 10.5t-18 8
t-17 7.5t-6 12.5t-4 11.5q-25 22 -48.5 47t-36.5 41q-7 16 -29.5 49t-63 83.5t-84.5 100.5q-16 18 -17.5 24.5t-1.5 13.5v10q0 10 -0.5 19t-3.5 17.5t-20 30.5q-10 13 -14 23q-10 23 -21 49t-16 45.5t-9 58t-7 60.5q-9 23 -14.5 37t-5.5 23l3 49q0 17 -1.5 44t-1.5 28l-6 36
l4 41l-4 71q0 11 12 49.5t16 51.5q14 52 17 63q20 73 23 90t5 32.5t8 27.5q3 9 15 23q7 8 11 16t9 19q9 18 19 29q3 3 10 7t9 7q11 15 18 33q2 5 13 39q-1 6 -1 13t8 16q1 2 13 5t14 5l24 36q5 6 1 8q3 4 6 8.5t14.5 7.5t15.5 8q16 16 23 24q18 21 37 43q5 6 11 20t10.5 19
t16.5 11t15 8.5t8.5 11.5t10.5 13q10 10 25.5 20t30.5 20q2 1 7 10t7 10q26 17 55.5 29t51.5 12q48 0 59 -9.5t11 -44.5v-33z" />
    <glyph glyph-name="parenright" unicode=")" horiz-adv-x="773" 
d="M678 413q-3 -15 -10.5 -34t-7.5 -24q0 -8 -3 -23q-7 -34 -7 -42q0 -4 9 -8t8 -9q0 -13 -10 -27q-16 -22 -18 -26.5t-3 -20.5t-2.5 -20t-14 -7t-13.5 -5q-4 -6 -13 -62q-5 -33 -8.5 -48.5t-8.5 -31.5q-8 -27 -11 -35q-20 -56 -34.5 -88.5t-30.5 -51.5q-2 -3 -21 -17
q-14 -11 -19 -20t-8.5 -24t-4.5 -18q-14 -40 -20 -53q-16 -33 -36 -46q-3 -2 -36 -53q-15 -23 -28 -30t-39 -30q-20 -18 -27 -23l-58 -34q-7 -12 -16 -21t-17.5 -12t-15.5 -3h-11q-9 0 -17.5 0.5t-17.5 0.5q-14 0 -28 -3q-39 -9 -75 -16.5t-60 -7.5q-69 0 -95 36
q-16 23 -16 60q0 14 33 29q42 19 46 22q48 40 116 51q9 2 26.5 -4t24.5 -3t12.5 14.5t8.5 14.5q19 23 30.5 35t21 17t22.5 22t18 20q15 16 31 31q20 9 41 29q19 21 20 22q8 32 15.5 60t20.5 43q11 8 17 13q12 9 15 16t5.5 26.5t8.5 26t18 12.5q22 11 26 18q21 36 33 91
q8 35 12 80q0 35 1.5 57.5t5.5 46.5q15 26 24.5 54t9.5 67q0 15 -9 40t-10 29.5t-1 15.5q0 18 8 51t8 45t-37 119t-40 110q-20 36 -38 48q-28 19 -42 34q-24 30 -48 61q-20 21 -48 39q-8 5 -44 26q-5 3 -13 4t-17 3q-16 6 -30 13q-4 2 -25 14q-38 22 -49 30q-30 22 -30 40
q7 11 11 18q14 22 27 42q3 15 7 31q10 12 27 17.5t33 5.5t34 -8q5 -2 63 -39q5 -5 17 -9q28 -11 34 -15.5t16 -20.5t18 -20q16 0 21 -2q15 -6 32 -27q23 -29 46 -57q3 -3 22 -25q12 -14 27.5 -29t34 -36t36.5 -46q4 -6 13 -27.5t14 -30.5q24 -38 46 -73q41 -66 41 -77
q-5 -8 -7 -14q-8 -21 -8 -44q3 -5 6.5 -11t11.5 -27.5t15.5 -60t7.5 -75.5v-36.5t1 -34.5q0 -18 -1 -25z" />
    <glyph glyph-name="asterisk" unicode="*" horiz-adv-x="771" 
d="M701 544l-8 -47l-31 -12l-27 -16l-27 -5l-36 -1l-40 -4l-18 -10l-21 -10l9 -9l24 -14l22 -20l29 -19l29 -25l19 -40l13 -30l9 -29l-5 -17l-16 -23l-15 -20l-27 -9l-24 -1h-29l-31 5l-26 7l-22 37l-20 21l-22 29l-23 18l-8 11l-9 -9l-13 -24l-21 -22l-19 -29l-25 -29
l-39 -19l-31 -13l-29 -9l-17 5l-22 15l-21 16l-8 27l-2 24v29l5 31l7 25l37 23l21 20l29 22l22 24l3 21h-20l-26 13l-30 7l-26 7l-36 27l-42 26l-11 27l-7 29l-3 38l19 25l20 29l40 31l30 -10l29 -5l24 -14l29 -20l33 -24v13l3 28l-5 32l-3 26l13 42l10 48l24 21l24 15
l36 15l27 -7l36 -10l43 -25l2 -33l3 -29l-3 -27l-11 -36l-10 -38l2 -20l13 -5l29 15l23 12l44 2l50 8l25 -15l26 -19l25 -27l2 -29z" />
    <glyph glyph-name="plus" unicode="+" horiz-adv-x="771" 
d="M712 439l-7 -28l-10 -36l-26 -42l-32 -2l-29 -3l-28 3l-36 10l-37 11l-21 -2h-23v-12l6 -26l2 -29l7 -34l3 -39l-15 -41l-12 -32l-14 -26l-17 -9l-25 -5l-26 -3l-26 14l-17 15l-22 20l-17 26l-14 22l12 43l-1 29l5 36l-2 29v13h-12l-25 -6l-29 -2l-35 -7l-39 -3l-41 15
l-32 12l-26 14l-8 17l-5 25l-4 26l14 25l15 17l21 23l25 17l22 13l43 -12l29 2l36 -5h32l-1 12l-7 20l3 28l-5 32l-3 26l13 42l11 48l23 21l24 15l36 15l28 -6l35 -11l43 -25l2 -33l3 -29l-3 -27l-10 -36l-11 -37l2 -21v-12l31 7l27 -3l32 5l26 3l43 -14l47 -10l21 -24
l15 -24z" />
    <glyph glyph-name="comma" unicode="," horiz-adv-x="532" 
d="M364 101l-2 -91l-17 -44l-16 -29l-13 -9l-5 -17l-14 -15l-9 2l-20 -21l-3 -12l-26 -19l-34 -8l-19 -17l-3 -12l-41 -27l-50 -11l-75 -5l-39 7l-16 20l4 40l27 32l41 16l43 20l7 20l20 18l27 27l16 17l7 12l15 8l-7 48l-10 39l-14 9l-66 2l-23 12l-29 27l-11 27l5 33
l39 22l53 5l17 14h12l61 17h58l21 -17l29 -4l7 -20l20 -14l15 -29l9 -65z" />
    <glyph glyph-name="hyphen" unicode="-" horiz-adv-x="771" 
d="M698 461l-14 -48l-30 -10l-28 -10l-27 -4h-38h-37l-21 -7l-34 -13l-30 -14l-24 -7l-31 -20l-38 7l-30 -18l-34 -10l-28 -10l-30 -14l-38 -13l-44 3l-34 3l-28 7l-13 14l-11 24l-10 24l7 27l10 21l14 27l20 24l17 17h45l27 10l38 3l27 11l20 17l24 7l34 13l21 24l37 10
l31 4l34 7l28 3l30 14l24 10l45 -3l47 3l28 -17l20 -21l24 -30v-28v-37z" />
    <glyph glyph-name="period" unicode="." horiz-adv-x="461" 
d="M357 195l-11 -52l-20 -41l-24 -34l-37 -27l-31 -10l-45 -14l-54 3l-38 18l-30 6l-7 45l-31 41l-14 30l7 69l10 34l35 20l27 28l27 27l41 -3l31 6l37 -10l24 -14l24 -17l31 -13l44 -38z" />
    <glyph glyph-name="slash" unicode="/" horiz-adv-x="748" 
d="M707 1246q0 -22 -12.5 -51t-23.5 -55q-7 -27 -26 -63q-25 -47 -27 -53q-8 -19 -14 -47q-10 -47 -12 -55q-11 -43 -25 -77q-19 -43 -31 -72q-24 0 -24 -13q2 -16 2 -29q0 -21 -7 -42q-10 -30 -34 -64q-14 -21 -29 -57.5t-28 -91.5q-4 -12 -27 -33q-12 -11 -15 -20
q-12 -23 -24 -67q-17 -62 -22 -76.5t-18 -36t-16 -36.5q-4 -7 -5 -29.5t-2 -27.5q-15 -43 -26 -70q-15 -37 -31 -68q-31 -81 -39 -100q-12 -27 -33 -27q-13 0 -32 4q-6 4 -10 6q-13 7 -24 8q-20 0 -29.5 -2t-15.5 -4q-4 0 -8 4q2 9 -7 19.5t-5 21.5q6 18 21 47
q41 76 47.5 94t19.5 42q35 62 39 74t5 41.5t7 41.5q2 6 28 47q11 17 18 36q4 15 4 20q0 3 -0.5 9t5 19.5t25.5 51.5q29 56 30 59l35 77q14 34 18 46q10 26 16 54q7 23 21 51q10 21 21 42q10 25 15 38q9 24 20 45q5 25 10 51q20 36 32.5 66.5t25.5 60.5q2 2 13 14t13.5 17
t3.5 20t2 32q6 25 11.5 47t12.5 40q5 7 10 28.5t31 41.5q8 -5 20 -9t31 -4q15 0 27 6t14 6q21 -1 35 -1.5t14 -10.5q0 -11 -21 -36z" />
    <glyph glyph-name="zero" unicode="0" horiz-adv-x="992" 
d="M1036 490q-4 -15 -6.5 -28t-2.5 -17q0 -12 6 -18q-10 -21 -26 -41q-5 -20 -12 -34q-2 -5 -2 -13q0 -18 -2 -24.5t-9 -17.5t-14 -21q-3 -5 -15 -20t-17.5 -24t-16 -20.5t-14.5 -16.5q-6 -16 -10 -25.5t-11 -17.5q-3 -4 -9 -4q-16 0 -17 -1q3 -4 6.5 -7t2.5 -7
q-7 -7 -12.5 -10.5t-18.5 -11.5q-9 -12 -21 -23t-27 -23l-39 -24q-17 -10 -41 -15q-8 -2 -24.5 -5t-23.5 -6l-47 -15q-19 -6 -37.5 -10.5t-53.5 -4.5h-32l-62 1l-49 12q-6 2 -27.5 5t-28.5 6.5t-12.5 11.5t-10.5 10q-11 5 -23.5 7.5t-23.5 5.5q-17 2 -27.5 2.5t-17 4
t-9.5 14t-8 14.5q-14 2 -24 15q-21 19 -19 32q-3 6 5.5 14.5t3.5 11.5q-5 2 -15.5 -2t-15.5 -3q-7 1 -15 11q-9 14 -12 19q-12 16 -24 33q-1 5 1.5 17.5t2.5 14.5q-1 9 -5.5 21t-6 20t-4.5 15.5t-3 9.5q0 5 1 9q-2 14 -2 24t4 17q2 7 10 14t9 10q0 19 2 24q0 4 -3.5 18
t-0.5 21q4 13 11 24q11 18 23 36l23 39q2 4 10 18t10 17l22 32q2 3 9 7q18 9 20 12q6 6 6 15q0 17 3 21q7 4 21.5 8t19.5 7t19 18q7 8 13 11l39 19q14 12 29 25q6 4 17.5 8.5t22.5 8.5q23 8 46 17q4 2 18 13t21 11q12 3 32.5 4t37.5 1q14 1 34 3.5t24 2.5h16.5t21.5 1
q20 0 37 -2t32 -7.5t21 -7.5q16 0 19.5 -0.5t19.5 -6.5l60 -18q6 -3 14 -10q22 -19 25.5 -21.5t15 -7t15.5 -7.5q11 -4 17.5 -8.5t14.5 -14.5q5 -14 11 -27q3 -5 6.5 -9.5t10.5 -7.5q3 -6 16 -17q9 -8 11 -10q6 -7 9.5 -19.5t4.5 -13.5q3 -6 -2.5 -14t-4.5 -13q1 -3 5 -6
q14 -12 15 -13q9 -10 9 -27q0 -13 -1.5 -18t-2.5 -9zM823 505q1 5 -3.5 12t-5.5 12l-3 22l-24 9q3 4 7 8q10 6 10 9q-3 2 -9 15.5t-13 18.5q-14 4 -28 9q0 18 -1 25q-5 5 -9.5 10t-14.5 11q-3 3 -11 7q-13 7 -17 8.5t-10.5 8.5t-11.5 9t-17 4t-22.5 3.5t-27 7t-21.5 5.5
q-4 0 -25.5 -7.5t-31 -8.5t-18.5 -1.5t-21 -3.5q-7 -3 -15 -8.5t-16 -14t-15 -16.5l-38 -33q-2 -1 -10 -10t-19 -17q-3 -5 -16.5 -16t-15.5 -13q-10 -16 -19 -31q-4 -7 -5 -14.5t-3 -14.5l-18 -32q-5 -8 -5 -17q0 -4 2 -10q0 -9 8 -19t7 -14q-1 -3 -8.5 -8t-12 -7.5
t-9.5 -4.5q-12 -7 -12 -16q2 -2 5 -3q21 -1 24 -2t3 -8t-0.5 -9t-2.5 -3l1 -19q4 -7 8.5 -18.5t5.5 -17.5l14 -24q-4 -11 -5.5 -15.5t-6.5 -11.5q-6 -12 -6 -16q0 -7 9 -15q4 -2 4 -17l18 -26q15 -14 47 -25q3 -5 7 -10t13 -7l50 -14l47 -2q6 0 33.5 5.5t31.5 5.5
q19 -2 24 -2t9 1.5t8.5 8t9.5 9.5q2 5 11 11q2 2 17 11q3 4 11.5 10t15.5 10q3 3 19 9.5t24.5 13t13 16t8.5 19.5q23 12 29 31l5 31q-3 13 5 24q8 14 17 29q1 5 -1 18.5t-1 17.5q-1 1 4 17q1 4 6 16.5t4 17.5q0 7 -5 17t-5 17q-2 7 8 13t11 9z" />
    <glyph glyph-name="one" unicode="1" horiz-adv-x="551" 
d="M592 773q-1 -10 -1.5 -19t-5 -14.5t-12.5 -14t-15 -13.5l-26 -12q-5 -4 -12 -23t-11 -27l-24 -36q-14 -26 -16 -37q-5 -28 -10 -55q-8 -27 -12.5 -42.5t-10 -26.5t-10 -13t-8.5 -3q0 -11 2 -19l8 -8q1 -8 1.5 -20t0.5 -23q2 -11 2 -22v-21q0 -18 -7 -39q-3 -12 -5.5 -24
t-8.5 -25q-17 -42 -21 -55q-10 -29 -8 -43q7 -15 12 -27v-24q3 -9 9 -22.5t5 -18.5q-2 -9 -4 -15.5t-10 -10.5q-11 -9 -22 -17q-47 -3 -94 -5q-17 -5 -31.5 -8.5t-24.5 -3.5l-40 -5t-20 -1q1 6 -4 7.5t-11 1.5h-9q-12 0 -20.5 0.5t-20.5 4.5l-27 9l-14 12q-9 5 -18 11
q-11 10 -15 22.5t-4 27.5q0 10 2 17t5 11q6 5 8 7q10 12 15 14l12 5l29 5q2 0 9 -4h17q11 0 16.5 2.5t14.5 18.5q3 8 3 12q-2 17 -3 34q0 12 7 27t15 31q1 3 3 18.5t2.5 18t6.5 14.5t9 20t4.5 26t3.5 26l7 24q2 8 2 11q0 2 -2 10t0 15l5 27q4 7 8 15q29 121 29 147
q1 9 -5 18q-1 1 -12 14l-5 6q-5 7 -21 15.5t-20 10.5q-9 6 -15 13q-12 12 -12 31q0 12 1.5 17.5t6 12.5t7.5 11q10 2 11 3l12 12q14 11 41 20q16 5 28 5h23q4 2 9 4t15 2q2 0 3 -3t3 -3q16 0 58.5 1t46.5 1l13 -3q5 -1 14 -1q17 1 24 1l13 1q10 0 38 -7q16 -4 22 -4
q15 6 19 6q17 0 23.5 -15t3.5 -24z" />
    <glyph glyph-name="two" unicode="2" horiz-adv-x="761" 
d="M765 215l-46 -75l-59 -85q-13 -18 -21 -27q-26 -28 -45 -28h-51q-1 -8 -12 -8q-4 0 -31.5 5.5t-36.5 5.5q-10 0 -19 -3l-96 7q-8 1 -4 10q8 20 6 21q-20 5 -20 -8q0 -9 1 -18q-1 -3 -7 0l-193 -5q-10 -1 -16 -2q-47 -7 -68 -7q-20 0 -28.5 1.5t-15.5 7.5q0 5 5 20
q0 2 2 7l17 45l5 32q4 12 19 20.5t28 15.5q4 4 34 23q21 14 27 25q58 30 85 45t44.5 33.5t48.5 35.5q46 25 50.5 29t10.5 16t10 15q11 1 22 3q21 17 24 20q13 11 21 21q12 14 15.5 33.5t6.5 38.5q-4 8 12.5 30.5t14.5 32.5q-8 12 -15 24q0 4 5 8q-10 26 -13 30q-7 12 -19 21
q-23 11 -37 11q-7 0 -12 -1t-9 -2q-6 0 -12 6q-9 1 -34 -11t-33 -13q-15 12 -38 12q-5 0 -12 -1.5t-19 -10.5t-18 -10l-72 -26q-11 -4 -20 -4q-13 0 -19.5 7.5t-6.5 19.5q0 28 24 52q5 4 8 7q24 23 42 36q7 5 22.5 20t26.5 21q21 14 60 35q11 6 39 20q4 2 22 7.5t31 5.5
q4 1 8 1h5q17 0 17 -10q0 -4 -4 -11q-9 -16 -9 -17l14 2q6 0 15 17.5t14 17.5q9 0 29.5 1t31.5 1q5 0 13 -0.5t24.5 -2t40 -4t42.5 -8.5q35 -13 51 -19q30 -12 42 -26q7 -9 10 -33t6 -52q12 -28 14 -35t3 -18.5t1 -26.5q0 -32 -10 -55t-32 -29q-20 -32 -30 -44
q-20 -24 -37 -24q-27 -29 -41 -43q-26 -27 -47 -42l-94 -86q-17 -10 -53 -16t-50 -14l-76 -62q-20 -10 -73.5 -31t-73.5 -30l126 3l85 10q26 14 43.5 19.5t35.5 7.5t34 2q11 0 21.5 -2t26.5 -6l61 8l50 33l36 37l46 24l24 -13z" />
    <glyph glyph-name="three" unicode="3" horiz-adv-x="609" 
d="M637 611q0 -40 -7 -65q-10 -35 -31 -41q-19 -34 -26 -44q-17 -24 -30 -24q-17 -22 -34 -43q-21 -25 -41 -42l-96 -72q-12 -8 -20 -24q-18 -34 -29 -41q12 -4 19 -7q19 -8 42 -24q9 -6 22.5 -20t21.5 -22t17 -29t11 -24q11 -14 11 -22t-23 -18l-2 -8q7 -4 19 7q8 7 12 7
q6 0 12 -11q2 -14 2 -22q0 -22 -4.5 -40t-14.5 -43q-1 -4 -11 -13q-21 -20 -24 -25q-10 -28 -19 -51.5t-18.5 -35.5t-27 -22.5t-23.5 -16.5q-31 -32 -62 -65q-8 -7 -36 -32q-22 -20 -39.5 -30t-50.5 -23q-27 -10 -53 -21l-60 -34q-30 -10 -63 -13.5t-70 -3.5q-5 -1 -13 -1
q-27 0 -27 20q0 15 16 31t36 18q13 5 27 14t26 11t29 5t31 10t30 22t27 22.5t35 15.5q34 12 48 30q6 8 10.5 19t8.5 18q9 16 37 44q25 24 29 45q1 4 1 11t-1.5 18t-1.5 12q2 18 13 44.5t11 37.5q0 23 -6 37.5t-24 23.5q-4 2 -18.5 -1t-17.5 -2q-9 6 -25.5 26.5t-24.5 24.5
q-12 7 -21 21q-1 2 -4 7q-10 -3 -19 -5h-10q-19 0 -19 14q0 8 7 21.5t18 27.5q14 10 44 28q46 27 63.5 49t32.5 35t28 24q3 3 19 8t20 9l19 24q1 1 19 20q12 13 18 21q21 27 31.5 43.5t13.5 28.5q-3 9 -6 26t-5 33q-1 15 -1 23q0 16 8 24q-3 11 -7 18t-18 22q-18 11 -30 11
q-13 -3 -17 -3t-10 6q-16 6 -26 10q-20 8 -30 7q-3 4 -11 -4q-25 -26 -27 -27q-25 -8 -40.5 -16t-47.5 -30q-6 -3 -10 -3q-9 0 -15 11t-6 25q0 24 15 42q7 16 11 25q14 27 30.5 43t25.5 26t20.5 18.5t31 20t33.5 19.5q7 4 19 4q8 0 21 -2t17 -2q23 4 31 4q0 -2 1 -4h15
q7 0 23.5 1t25.5 1t26 -2t35.5 -4.5t33.5 -8.5q18 -10 32 -24q8 -8 26 -31q9 -14 15 -34t9 -41l8 -28t4 -30z" />
    <glyph glyph-name="four" unicode="4" horiz-adv-x="1050" 
d="M988 94q-6 -19 -29 -68q-30 -63 -46 -72q-6 -2 -17 -3.5t-27 -1.5q-22 0 -46 11q-13 6 -36 6q-30 0 -56.5 -14t-30.5 -34q-15 -65 -19.5 -78t-13.5 -21l-34 -165q-1 -3 1.5 -16t2.5 -15l-19 -91q-28 -19 -55 -38q-29 -18 -60 -18q-21 0 -43 13q-22 16 -44 31q4 17 4 20
v16q7 8 15.5 34.5t18.5 74.5l17 76q0 1 23 38q11 18 13 26l29 135q-10 10 -10 15q0 1 2.5 5.5t0.5 8.5q-33 10 -50 15q-56 16 -68 16h-119q-4 0 -22 7.5t-19 7.5l-17 -10h-13.5t-24.5 1q-19 0 -20 -1q-31 -8 -47 -11q-49 -11 -57 -11q-23 0 -33 45q-3 15 -5 45q3 13 15.5 33
t13.5 22q1 12 3 23t4 13q11 17 54 52t89 71q50 43 81 84q69 92 109 127q10 8 27 31l26 36l24 18q25 19 37 31q4 5 64 44.5t73 54.5q21 24 29 40q3 5 5 12q27 28 41 42q42 43 49 48q9 2 21 5t22 10h70q14 0 26.5 -20.5t12.5 -46.5q0 -6 -2 -16l-87 -178q-2 -24 -4.5 -46.5
t-8.5 -41.5q-8 -12 -16 -23l-13 -65q-5 -5 -8 -10q-10 -17 -14 -35t-4 -30q0 -9 1.5 -14t3.5 -8l-20 -92q-12 -7 -13.5 -12t-3.5 -17q-3 -9 -5 -18q0 -3 12 -6q-5 -25 -6 -39.5t-8 -26.5h20q13 8 26 11t26 3q12 0 27 -2t19 0q9 8 15.5 12.5t13.5 4.5h70q11 0 22 -17t15 -18
q-3 -14 -3 -18q3 -4 3 -7zM649 573l-16.5 -13.5t-18.5 -8.5q-2 -5 -3 -10q-13 -7 -27 -24q-3 -2 -6.5 -5.5t-9.5 -11.5q-10 -17 -28 -48q-9 -15 -17.5 -34t-34 -36t-38 -19.5t-36.5 -29t-39 -26.5q-4 -13 -15.5 -28.5t-19.5 -17.5l-4 -10q-22 0 -51 -39q-5 -6 -12 -19
q-3 -14 -3 -17q0 -4 12 -4q7 0 18 -3q22 -8 35.5 -11t22.5 -3q8 0 19 4.5t20 4.5q3 0 21 -2.5t27 -7.5t18 -9h39q1 -1 1.5 -6t2 -6t14.5 -2t14 -1h24l12 -17h15l6 20q-6 3 -14.5 19t-6.5 24q7 8 9 8l10 53q-14 7 -14 31q0 18 6.5 48.5t15.5 44t11 25.5t2 18q0 10 -1 23
t-1 14q0 4 14.5 32t20 53.5t7.5 35.5q-1 5 -1 11z" />
    <glyph glyph-name="five" unicode="5" horiz-adv-x="712" 
d="M741 746q-1 -4 -1 -11q2 -17 2 -26q0 -10 -3.5 -16t-14.5 -11t-38.5 -11t-36.5 -8.5t-34.5 -13.5t-34.5 -13t-20 -12t-16 -10q-20 0 -32 6q-21 11 -22 11q-40 4 -80 9l-21 -19q-1 -2 -2.5 -20.5t-2.5 -20.5q-8 -14 -20 -26q-3 -3 -9 -8q12 -9 36 -20.5t37 -20.5
q8 -6 11.5 -12t3.5 -11q0 -18 8 -25q4 -3 22 -4t22 -6q8 -7 16 -24q20 -42 20.5 -43.5t13.5 -4.5t13 -5q11 -16 19.5 -32t13.5 -27l9 -45t6 -44q-1 -5 -10 -27.5t-9 -40.5q0 -5 5 -13.5t4 -14.5q-6 -43 -9 -57t-14 -42q-7 -20 -23.5 -41t-32.5 -42q-5 -16 -10.5 -31.5
t-16 -30.5t-24 -18.5t-15.5 -6.5q-31 -37 -45 -52q-29 -32 -49 -49q-10 -9 -15 -9q-5 3 -9 3q-3 0 -14 -6q-3 -2 -24.5 -23.5t-26.5 -24.5q-18 -12 -40 -24q-29 -16 -73 -39q-1 -4 -2.5 -9t-18.5 -12t-35 -16q-28 -15 -36 -18q-59 -19 -118 -39l-13 2q-9 3 -9 15q0 14 10 38
q3 8 11 22l46 31q9 5 28 19q12 9 31 20q15 5 23.5 7.5t12.5 4.5q10 6 25 18q33 27 40 31q14 10 14 14l-3 3q-5 4 10 18q3 2 46 29q20 12 30 23q4 4 13.5 31t12.5 31q7 8 19 16q22 14 31 25q4 15 8 29q22 34 22 35q10 18 12.5 36t5.5 45t3 44q0 21 -3 36t-11 39
q-7 17 -23 33.5t-30 31.5q-3 4 -17.5 5t-19 5t-12 24t-16 25t-21 15t-18.5 13q-4 2 -19 0.5t-18 -0.5q-11 5 -26.5 24.5t-28.5 23.5q-8 4 -15 9h-5q-3 6 10 27q10 7 20 15q1 1 5.5 18t7.5 21t30 31q13 13 16 17.5t4 22t3.5 20.5t16.5 12t17.5 13.5t18 18.5t18 19.5
t14.5 32.5q6 15 8.5 18.5t14 10.5t14.5 10.5t9 24.5t8 24l31 33l70 -9q6 -1 16 4t20 5q11 0 16 -6t6 -6h22q33 0 59 3t49.5 7t44 9t27.5 6q18 4 30 9q2 2 5.5 3t5.5 1q9 0 13 -11.5t4 -28.5q0 -10 -1 -18t-3 -21z" />
    <glyph glyph-name="six" unicode="6" horiz-adv-x="852" 
d="M963 1070q0 -26 -15 -47q-3 -5 -64 -59q-36 -33 -66 -55t-30 -32q-29 0 -38.5 -4t-29.5 -32q-2 -3 -8.5 -3t-10.5 -3q-25 -25 -44.5 -45t-30.5 -27q-56 -36 -65 -43q-5 -7 -17 -17q11 -15 43.5 -24t67.5 -17q16 -14 32 -22l28 -10q13 -9 18.5 -17t17 -14t31.5 -21
q14 -10 18.5 -18t23.5 -82.5t19 -83.5q0 -11 -7 -23t-7 -14v-7.5t1 -10.5q0 -35 -8 -68q-12 -50 -40 -88q-2 -3 -11.5 -10t-11.5 -11q-6 -14 -9.5 -22.5t-8.5 -16.5q-49 -73 -101 -91q-7 -3 -18 -13.5t-16 -11.5q-28 -9 -55 -13t-48 -8h-122q-15 6 -22 8q-23 8 -26 8
q-10 -7 -17 -10q-25 -11 -57 -11q-24 0 -55.5 17t-58.5 45l-62 64q-24 25 -28 35l-16 112v70q-5 7 -5 14v70q7 5 26 56q10 28 29 48q11 12 14 25.5t5 15.5q15 13 27.5 25t23.5 30q8 12 18 16.5t11 5.5q8 8 17 31q5 13 10 27q7 9 35 33l66 54q23 21 36 28q14 2 27 9
q6 3 26.5 32.5t27.5 34.5q14 3 27 11.5t35 31.5q17 16 27 29l4 6q21 11 34 17q44 21 71 28.5t42.5 16.5t17.5 20q22 0 108 52t106 52q18 0 38 -23t20 -50zM642 391q0 40 -17 63q-10 9 -19 19q-2 6 3.5 19.5t5.5 24.5q0 10 -4 21q-3 5 -4 7q-6 10 -6 13q-13 0 -27 13t-19 13
h-65q-5 -7 -35.5 -11t-31.5 -5l-26 -14q-27 -14 -37 -16v-11h-10q0 -9 -6 -13.5t-15 -6.5v-10h-10q-1 -7 -43 -69q-1 -16 -1.5 -33t-4.5 -23.5t-9 -13.5q0 -1 5 -36t5 -51t-5 -27q9 -5 15.5 -20t6.5 -26h11q0 -6 35 -37q11 -10 36 -30h26l3 -5q9 17 35 26.5t40 9.5
q28 0 47 17t29 19q37 66 64.5 115.5t27.5 77.5z" />
    <glyph glyph-name="seven" unicode="7" horiz-adv-x="840" 
d="M942 759q-4 -15 -18.5 -40t-15.5 -30q5 -13 2 -27q-4 -17 -55 -57q-30 -24 -46 -59q-34 -34 -51 -52q-51 -54 -53 -62q-5 -11 -10 -18q-15 -19 -17 -22.5t-14 -37.5q-5 -16 -9 -21q-5 -10 -14.5 -18.5t-19.5 -17.5q-37 -64 -45 -76q-26 -40 -44 -47v-19q-13 0 -28 -18
q-36 -55 -72 -103q-25 -32 -50 -63q-38 -50 -41 -70q-12 0 -28 -16q-41 -40 -54 -44q-26 -9 -45 -27t-23 -38q8 -10 8 -30q0 -9 -1 -14q-6 -29 -39.5 -47.5t-42.5 -65.5l-2 -8q-7 -26 -38 -58q-35 -36 -67 -36q-18 0 -34.5 16.5t-16.5 37.5q0 6 2.5 17t17.5 29q22 27 24 31
q4 21 8 41q10 9 24.5 32.5t30.5 48.5q1 2 42 35q18 14 31 31q30 35 46 59q10 18 21 35q11 14 29 28q41 31 42 33q12 15 17 26q3 16 4 21q14 20 23 26t15.5 14.5t6 12.5t-0.5 8q23 21 33 42.5t19 42.5q43 55 61 79q31 42 56 77l94 131q2 4 64 75q27 31 30 46l-3 31
q-5 3 -23 7t-24.5 7t-20.5 11.5t-19 8.5h-87q-7 0 -24.5 -8t-22.5 -12h-139q-38 0 -84 -28q-51 -32 -101 -63q-19 0 -25.5 10t-6.5 30q0 19 5 39q0 2 5.5 5t8.5 7q10 23 21.5 46.5t37.5 57.5q47 56 66 75.5t30 19.5q6 1 12 5h210q6 0 22 -4.5t20 -10.5h243q5 -4 8 -5
q10 -5 21 -5q8 0 33.5 7t54.5 15q16 0 22.5 -13t6.5 -32q0 -11 -1 -18.5t-2 -15.5z" />
    <glyph glyph-name="eight" unicode="8" horiz-adv-x="865" 
d="M983 1048q-4 -16 -8 -34t-11 -33q-2 -6 -14 -18t-13 -16q-5 -14 -9 -24.5t-11 -22.5t-13.5 -21.5t-33.5 -40.5l-20 -29l-41 -41q-14 -11 -26 -20t-16.5 -12t-22.5 -4t-22 -3.5t-8 -11t-7 -14.5q-5 -5 -15.5 -10t-22.5 -10q15 -4 24 -7t20 -9q2 0 4 -5q6 -12 7 -12
q14 -6 29 -12q14 -11 25 -32l12 -24q3 -5 6 -18t6 -18l38 -54q1 -5 6 -11q11 -14 12.5 -20.5t1.5 -13.5q-1 -15 -1 -23q0 -9 1 -13q6 -30 7.5 -42t1.5 -31q0 -12 -2.5 -25.5t-5.5 -26.5t-9 -24q-9 -15 -9 -16q-5 -22 -10 -43q-8 -17 -14 -26t-20 -27q-14 -15 -21 -22
t-22 -19q-8 -6 -18.5 -12.5t-22.5 -12.5q-21 -16 -41 -31q-19 -5 -22 -7l-38 -24q-21 -8 -48.5 -15t-50.5 -12q-7 -1 -20.5 -5.5t-18.5 -4.5q-18 -3 -38 -3q-10 0 -19.5 0.5t-19.5 0.5h-18.5t-19.5 -1q-18 0 -38 3q-11 0 -22.5 4t-22.5 8q-12 2 -22 4t-24 8q-12 10 -17 13
q-26 10 -51 21q-6 4 -13 12t-11 12q-12 10 -21.5 24.5t-17.5 29.5l-12 26q-15 22 -29 44q-3 14 -4 20t-1 20q0 17 5.5 43t9.5 37t15 32q1 3 8 11t9 11.5t4 20t5 24t7 17t7 13t11.5 12t11.5 12.5q11 16 22.5 33.5t25.5 31.5q4 4 17.5 13.5t20.5 15.5q5 6 16 14.5t16 12.5
q13 14 20 22q13 14 23 21q15 13 31 27q4 4 17 6.5t17 4.5l30 17q-3 3 -8 4.5t-12 3.5l-26 28q-6 7 -9 10q-6 7 -13 12q-12 9 -18 13q-12 9 -18 16t-10 20t-7 26q-3 7 -5.5 21.5t-2.5 15.5q-10 24 -19 48q-2 12 -3.5 26.5t-1.5 24.5v11q-5 12 -9 25q1 11 7.5 33.5t7.5 30
t6 18.5l10 22q4 13 6 19q6 18 15 31q18 27 49 51l44 32q4 3 17 5.5t19 5.5t16 11q24 21 29 23l30 32l50 14q19 6 39.5 12t37 7.5t30 3t29.5 1.5q17 0 29 -1t46 -8q5 -1 15 -6t23 -11l29 -10q15 -5 28.5 -10.5t24 -11t22.5 -17.5q6 -6 19 -21l29 -27q1 -1 9.5 -14.5
t10.5 -19.5q7 -12 7.5 -31t1.5 -31t4 -29.5t3 -27.5q0 -6 -2 -16zM821 1111q-3 28 -12 48q-5 12 -9.5 22t-13 20.5t-16.5 23.5q-12 9 -22 13.5t-29 11.5t-29.5 10t-25.5 3q-7 0 -13.5 -3.5t-15 -4.5t-15.5 -2t-19.5 -5.5t-22.5 -9t-18 -9.5q-2 -2 -12 -7t-16 -10
q-13 -14 -25 -28q-7 -7 -15 -16t-14 -18q-10 -13 -19 -25q-3 -6 -8 -19.5t-6.5 -19t-7 -18.5t-5.5 -20q-5 -10 -7 -15.5t-2 -11.5q0 -5 2 -18t2 -14q0 -7 -2 -21t-2 -19q1 -6 6 -16.5t6 -16t3 -15t5 -15t5 -9.5q8 -10 11 -13q7 -14 12 -23t12 -18q2 -2 9.5 -5.5t9.5 -6.5
q8 -14 17 -28q2 -9 5 -17q2 -1 9.5 -2t11 -4t11.5 -13q3 -4 7 -8l16 -12l22 21l30 18l21 19l34 29q2 2 9 13t12 16t16.5 20t12.5 16.5t11.5 6.5t12.5 8.5t4 16t4 16.5q6 8 9.5 17.5t7.5 19.5q9 15 10 17q7 11 8.5 16t6.5 23.5t7 30.5q3 9 4 18.5t1 19.5q0 15 -1 22zM667 362
q0 3 -4 5q-11 6 -11 7q-2 9 -10 29.5t-9 23.5q-4 17 -7 28.5t-8 18.5q-4 9 -12.5 17t-15.5 15.5t-24 19.5t-23 18q-2 2 -3 10.5t-3.5 11.5t-13.5 8.5t-15.5 7.5t-13.5 5t-13 5l-17 16q-12 -11 -17 -16q-12 -11 -15 -15l-31 -34q-7 -7 -13 -17q-9 -16 -18 -31
q-2 -4 -6.5 -19.5t-8.5 -19.5l-17 -24q-1 -2 -13.5 -6.5t-13.5 -5.5l-31 -36q-1 -2 -6 -15.5t-8.5 -24t-5.5 -20.5q-5 -25 -8.5 -40t-4.5 -31.5t-1 -30.5q-2 -23 -2 -36t2.5 -19t11 -15.5t10.5 -14.5q9 -20 11 -24q6 -11 15 -19q4 -5 16.5 -9t13.5 -5q13 -8 25.5 -15
t20.5 -9.5t14 -2.5q5 0 17.5 1t13.5 1q18 0 33.5 1t24 3.5t17.5 9.5t13 8q9 4 17.5 12.5t17.5 16.5q1 1 10 2t12 3l42 24q5 5 8.5 11.5t8.5 14.5t12 24q3 9 7 18q14 35 21 70q2 6 2 16.5t1 16.5v23q0 7 2.5 19.5t2.5 13.5z" />
    <glyph glyph-name="nine" unicode="9" horiz-adv-x="862" 
d="M819 422q-8 -8 -11 -31q-7 -55 -25 -82q-7 -12 -8 -26.5t-2 -16.5q-13 -15 -23 -29t-17 -30.5t-16.5 -23t-9.5 -7.5q-5 -7 -9.5 -25t-8.5 -37q-5 -10 -28 -38q-28 -33 -55 -66q-21 -26 -31 -34q-13 -7 -25 -14q-4 -3 -25 -48q-9 -20 -16 -27q-12 -5 -24 -15.5t-29 -37.5
q-13 -17 -19.5 -27t-4.5 -12q-6 -6 -32 -24q-36 -25 -69 -41q-22 -10 -35.5 -21.5t-13.5 -22.5q-21 -5 -97.5 -71t-94.5 -69q-18 -2 -40 15q-25 20 -30 46q-1 5 -1 15q0 32 28 66q16 19 32 37q30 39 66 76q16 16 14 27q27 5 36.5 11.5t22.5 35.5q2 3 8.5 5t10 5t26.5 38.5
t36 45.5q42 38 50 47q7 11 20 27q-13 11 -46 15q-35 2 -70 5q-24 14 -39.5 16.5t-25.5 4.5q-15 8 -22 14.5t-18 10.5q-17 8 -25 11q-26 12 -29 15q-7 7 -40 80.5t-34 78.5q-2 11 3 24t4 15q-2 6 -2 10q-5 28 -5 57q0 32 4.5 57.5t19.5 56.5l9 9t10 14t5.5 20t6.5 22
q12 31 25 62q12 25 33 38q5 3 26.5 19.5t28.5 18.5q27 14 56 24q20 6 41 13l92 29q17 4 26 6q28 6 40.5 7.5t22.5 1.5h13q8 0 15.5 0.5t21 2.5t23.5 2q49 0 108 -42q71 -51 86.5 -63t19.5 -19l35 -107l12 -69q6 -6 7 -13zM587 430q0 5 -10 35q-15 47 -16 52.5t-1 13.5
q2 5 3 12q-10 2 -19.5 16.5t-11.5 24.5l-10 -2q-1 6 -41 30q-13 8 -41 23l-25 -4l-24 -3q-6 -17 -24 -30q-12 -8 -31 -12.5t-50 -38t-42 -37.5q1 -12 -13.5 -68.5t-14.5 -87.5q0 -7 2 -21q8 -42 19 -65q7 -11 14 -21q5 -13 11 -27.5t13 -26.5q7 -3 10 -5q11 -7 14 -11
q12 3 22.5 -9t16.5 -11l63 12q3 6 22.5 13t40.5 14l51 28l14 25l26 36q0 9 9 30q2 5 20 43q-2 17 -3 34t-1 23q0 3 4 8t3 7z" />
    <glyph glyph-name="colon" unicode=":" horiz-adv-x="512" 
d="M466 597l-27 -34l-38 -24l-58 -3l-48 -7h-54l-48 14l-17 24l-21 10l-24 17l-6 24l-21 17v20l-3 45l3 34l24 20l17 21l24 20l34 7l38 10l30 -6l41 -11l24 -17l41 -13l34 -17l21 -28l10 -31l24 -17l-3 -37zM360 130l-20 -21l-11 -37l-20 -38l-31 -31l-37 -13h-41l-52 -10
l-30 10l-24 24l-21 17l-20 10l-4 27l-17 17v52l7 27l21 27l30 24l35 17l27 17h58l27 -7l31 -6l41 -21l20 -27l11 -34z" />
    <glyph glyph-name="semicolon" unicode=";" horiz-adv-x="561" 
d="M519 664l-10 -51l-21 -41l-24 -34l-37 -28l-31 -10l-44 -14l-55 4l-38 17l-30 7l-7 44l-31 41l-14 31l7 68l11 34l34 21l27 27l27 27l41 -3l31 7l38 -11l23 -13l24 -17l31 -14l44 -37zM430 17l-34 -34l-7 -38l4 -27l-11 -20l-47 -31l-21 -10l-20 -7l-4 -24l-27 -17
l-27 -14l-41 -27l-58 -31l-28 -10l-41 3l-37 24l-21 24l7 34l21 31l23 24l28 3l27 34h27l11 31l23 31l14 34l10 38l7 30l-20 17l-24 17h-34h-55l-34 21l-24 37l24 65l44 31l28 10l27 21l41 7l78 -7l38 -17l31 -17l30 -31l7 -34l17 -17l21 -28l17 -37l-7 -24l3 -41z" />
    <glyph glyph-name="less" unicode="&#x3c;" horiz-adv-x="852" 
d="M790 814l-10 -49l-24 -16l-37 -8v-28l-35 -10l-17 -34l-32 -3l-12 -21l-27 4l-19 -23l-29 -15l-17 -20l-41 -11l-58 -41l-19 -30l-43 -11l-18 -35l-6 -30l21 -47l24 -38l42 -24l19 -24l41 -8l24 -16l17 -30l31 -12l31 -26l27 -13l20 -53l28 -5l41 -4l7 -34l13 -32
l-24 -47l4 -30l-41 -36l-38 -29l-34 3l-36 21l-2 27l-34 10l-41 7l-13 21l-28 24l-13 20l-34 10l-41 14l-14 41l-31 41l-44 24l-34 44l-48 34l-48 24l-42 50l-26 41l15 61l50 32l31 38l71 31l24 34l44 27l45 14l20 41l52 20l17 28l37 23l10 31l41 17l34 4l11 27l13 17l35 7
l13 27l29 16l51 5l43 6l24 -11z" />
    <glyph glyph-name="equal" unicode="=" horiz-adv-x="771" 
d="M689 766l-6 -27l-11 -20l-13 -28l-21 -24l-17 -17h-44l-27 -10l-38 -3l-27 -11l-21 -17l-24 -7l-34 -13l-20 -24l-38 -10l-31 -4l-34 -7l-27 -3l-31 -14l-24 -10l-44 4l-48 -4l-27 17l-21 21l-23 30v28v37l13 48l31 10l27 11l28 3h37h38l20 7l34 13l31 14l24 7l31 20
l37 -6l31 17l34 10l27 10l31 14l38 13l44 -3l34 -3l27 -7l14 -14l10 -24zM698 316l-14 -48l-30 -10l-28 -11l-27 -3h-38h-37l-21 -7l-34 -13l-30 -14l-24 -7l-31 -20l-38 6l-30 -17l-34 -10l-28 -10l-30 -14l-38 -13l-44 3l-34 3l-28 7l-13 14l-11 24l-10 24l7 27l10 20
l14 28l20 24l17 17h45l27 10l38 3l27 11l20 17l24 7l34 13l21 24l37 10l31 4l34 7l28 3l30 14l24 10l45 -4l47 4l28 -17l20 -21l24 -30v-28v-37z" />
    <glyph glyph-name="greater" unicode="&#x3e;" horiz-adv-x="852" 
d="M778 423l-15 -61l-50 -33l-30 -37l-72 -31l-24 -34l-44 -27l-45 -14l-20 -41l-51 -20l-17 -28l-38 -24l-10 -30l-41 -17l-34 -4l-11 -27l-13 -17l-34 -7l-14 -27l-29 -16l-51 -5l-43 -7l-24 12l-10 62l10 49l24 16l38 8v27l34 11l17 34l32 3l12 21l28 -4l18 22l29 16
l17 20l41 11l58 41l19 30l43 10l19 36l5 29l-21 48l-24 38l-42 24l-19 23l-41 9l-24 15l-17 31l-31 12l-30 26l-28 13l-20 53l-28 5l-40 4l-7 34l-14 32l24 46l-3 31l40 36l38 29l34 -3l36 -21l2 -27l34 -11l41 -6l13 -21l28 -24l13 -20l35 -10l41 -14l13 -41l31 -41l44 -24
l34 -44l48 -34l48 -24l43 -50z" />
    <glyph glyph-name="question" unicode="?" horiz-adv-x="700" 
d="M659 1000q0 -68 -12.5 -77t-25.5 -18q2 -16 -5.5 -25t-14.5 -16q-5 -33 -16 -45.5t-34 -14.5q-32 -30 -67 -39q-26 -6 -51 -11q-11 -4 -19.5 -11t-34.5 -35q-1 -1 -18 -25q-12 -17 -23 -23q-11 -18 -15 -36.5t-4 -39.5q-6 -7 -7 -12l14 -14q-10 -2 -14 -7l-5 -20
q7 -7 7 -13t-6.5 -13.5t-13.5 -14.5q26 -43 38 -66q38 -70 38 -89q0 -22 -12.5 -35t-39.5 -13q-9 0 -14 1q-22 0 -31 12q-16 21 -20 24q-50 10 -91 46q-22 21 -29 42q-12 35 -12 114q0 103 34 170q14 29 12 46q5 2 11 5q13 7 25 19q3 3 10 16.5t13 19t30 18.5q13 7 19 13
q11 11 19.5 22.5t16.5 21.5q31 41 56 68q18 20 41 38q5 8 5 20v21q0 33 -11 65q-16 46 -45 46q-14 0 -27 -14q-29 -31 -60 -31q-11 0 -17 1q-6 0 -20 -1t-20 -1q-10 0 -18 3q-17 12 -29 32t-12 40q0 10 20 41q26 40 56 56q9 2 39 3t42 1q14 0 31.5 -2.5t39.5 -14.5
q3 -1 22.5 -1t26.5 -2.5t47 -14.5q24 -7 27 -10q8 -3 25 -18.5t35 -37.5q5 -15 12.5 -24.5t19.5 -16.5q6 -9 13.5 -21t14.5 -23q0 -11 5 -18.5t15 -14.5q7 -15 10.5 -26t3.5 -20zM261 131q0 -74 -33 -99q-29 -22 -105 -22q-24 4 -47 9q-25 8 -33 29q-17 24 -26.5 51.5
t-9.5 42.5q0 11 13 27.5t9 30.5q8 9 14.5 14.5t16 9t26 3.5h22.5q17 0 27 1.5t17 5.5q9 0 34 -12t39 -12q36 -28 36 -79z" />
    <glyph glyph-name="at" unicode="@" horiz-adv-x="1568" 
d="M1654 852q-2 -15 -7.5 -15t-8.5 -13q-1 -4 3 -10q10 -17 8 -24l-52 -116q-3 -8 -3 -13t3 -14t3 -16q0 -6 -2 -14.5t-9 -20.5q-3 -6 -10 -25.5t-11 -27.5q-9 -28 -18 -55q-3 -8 -21 -33l-12 -18q-13 -32 -19 -55t-8 -25l-48 -45q2 -5 1.5 -15t-16.5 -34l-17 -27l-40 -24
l-39 3l-56 -20h-62l-51 17l-51 30l-26 41l-42 55l-33 41q-49 -39 -98 -77q-48 -26 -110 -26q-60 0 -102 24t-74 72q-6 10 -11.5 30.5t-10.5 29.5q-9 16 -18 33t-13 38q0 9 -2.5 15t-2.5 11q0 17 -5.5 26t-5.5 13q0 5 2.5 15.5t3.5 13.5q5 12 7 21l12 73q2 14 14 26
q33 35 35 39q19 35 59 85q56 70 64 81q8 4 32 21q16 11 25 16q21 12 66 27q55 18 66 23.5t27 5.5q15 0 23 -1q39 -5 41 -5q44 0 75 -18q21 -12 58 -49l16 24l48 31l46 3l37 -14l24 -44l-10 -55l-26 -54v-62l-31 -34l-8 -51l14 -55l-14 -44l-29 -41l-2 -37l-12 -62l22 -37
l11 -45l49 4q23 13 42.5 28t27.5 25t14 16q22 25 37 45l22 26q6 9 7 13l29 138q0 1 6.5 9.5t8 17.5t1.5 17q0 20 -6 45q-1 4 -3 10q-1 4 5.5 32t13.5 59q0 16 -7.5 18.5t-7.5 10.5q0 9 2 17.5t3 14.5q-6 1 -15 17q-13 22 -18.5 31t-15.5 19l-8 8q-2 10 -3 21q-7 20 -15.5 34
t-20.5 27q-7 8 -27 21q-24 16 -27 19q-6 10 -9 14q-10 13 -15 16q-27 13 -40 18q-30 13 -49 18q-4 2 -18 4t-21 5q-6 1 -16.5 9t-15 9t-12.5 1q-17 -1 -33 -1q-21 6 -50 11t-49 5l-39 2q-10 -2 -15.5 -9t-10.5 -9q-2 0 -12.5 3t-22.5 3q-15 0 -27 -2.5t-41 -13.5
q-46 -17 -64 -23t-41 -13l-75 -54l-26 -14q-11 -9 -19 -21t-10 -13q-41 -29 -55 -49t-21 -41q-2 -7 -4 -18l-39 -34q-2 -3 -7.5 -22t-15.5 -42q-2 -5 -8 -14q-15 -24 -16.5 -26.5t-7.5 -23t-8 -24.5l-5 -10t-11 -29q-8 -17 -8 -29q4 -15 4 -23q0 -3 -3 -11l-42 -94
q5 -14 10 -27q-2 -10 -7 -10t-7 -11q0 -8 2.5 -19t2.5 -13q0 -43 16 -82q6 -21 13 -41q3 -7 14 -22q7 -11 15 -21q9 -14 20 -27q3 -4 9 -10q8 -24 19 -40q8 -12 21 -22q6 -9 12 -17q6 -2 28.5 -8.5t34.5 -13.5q7 -6 16.5 -13.5t25.5 -18.5q14 -8 30 -16t22 -8h99q4 -8 9 -16
q8 1 21 1q8 0 14.5 2t14 4t28 4t28 4.5t21.5 2.5h14q28 0 37 1t29 7q12 4 14 0t2 -10l41 14h34l58 -14h71l69 14l90 -24l31 -34l-19 -72l-37 -31l-60 -20l-70 3l-72 14l-49 10q-15 0 -40 4t-36 4q-10 0 -21.5 -2t-25.5 -2q-17 0 -27 2.5t-16 3.5q-5 -2 -13 -10t-18 -10
q-2 0 -16.5 0.5t-32.5 0.5q-32 0 -75 8q-3 1 -50 11q-3 1 -11 1q-22 0 -43 -1q-22 12 -43 24q-7 2 -25 5t-24 5q-28 9 -58 22q-35 16 -50 23q-6 3 -19 21l-12 18q-34 24 -68 49q-13 13 -25.5 33t-20.5 43q-2 17 -3 27q-7 6 -10 9q-9 9 -18 22q-15 24 -29 48q-9 13 -13 15
q6 30 6 39t-9 13t-9 24q-1 5 7 40t17 73q-5 16 -7 25q-7 29 -7 50q0 7 1.5 15.5t6.5 16l11 16.5l37 172q1 7 13 21.5t23 28.5q20 28 56 69q11 13 29 33q2 3 8.5 20t22.5 38q5 5 8 9q22 24 45 46q3 3 13.5 5.5t12.5 4.5q16 15 42 40q47 46 71 62t52.5 34.5t45.5 27.5
q5 2 25.5 5t25.5 5q29 12 56 23t46 16t41 7.5t39 2.5h21q13 0 21 2.5t32.5 5t32.5 5.5q12 2 19.5 5t19.5 3q25 1 28 1q2 0 4 -5.5t7 -14.5h123q9 0 26 -8.5t37 -21t37 -26.5q6 -5 16 -14q16 -9 43.5 -16.5t37.5 -12.5q4 -2 7.5 -8t7.5 -12q18 -17 29.5 -35.5t21.5 -41.5
q-1 -1 14.5 -19.5t21.5 -26.5q2 -3 18 -25q13 -17 18 -30q3 -5 8 -23t9 -28q8 -27 11.5 -47.5t7.5 -54.5q0 -7 2.5 -21.5t2.5 -17.5zM1116 826q-3 4 -10 0q-21 -10 -22 -10q-27 0 -49 15q-58 41 -60 41l-18 2q-6 2 -10 3q-16 4 -25 4q-4 -5 -6 -7q-7 -7 -10 -7q-18 0 -36 -7
q-6 -2 -15 -8q-35 0 -57.5 -14.5t-29.5 -52.5q-18 -51 -36 -101q-2 -10 -4 -23.5t-2 -23.5q0 -12 2.5 -20.5t7.5 -8.5q2 0 4 -0.5t-1 -15.5l-7 -25q-2 -11 4 -25q1 -3 13 -23q6 -13 10 -21t11 -17q12 -15 46.5 -22t67.5 -7q49 0 83 15q44 19 59 60q2 -1 3 2.5t1 10.5v10.5
t-1 9.5l15 58l26 58l17 44l-3 21l12 58q8 0 15 12t5 15z" />
    <glyph glyph-name="A" unicode="A" horiz-adv-x="1539" 
d="M1724 1352q16 -25 16 -69q0 -24 -6.5 -43.5t-20.5 -29.5q-26 -18 -49 -44q-17 -19 -19 -27t-9 -23.5t-8 -21.5q-7 -24 -13 -48q-6 -7 -12 -13q-2 -5 -5 -25t-6 -27l-22 -61q-4 -10 -5 -29.5t-3 -25.5q-11 -10 -14 -15q-10 -24 -16 -45.5t-6 -39.5q0 -3 -7.5 -4t-8.5 -5
q2 -7 3.5 -15t1.5 -16q0 -15 -5 -25q-4 -12 -15 -26q-1 -2 -2 -13t-4.5 -15.5t-11 -5.5t-8.5 -2q2 -2 4 -6t2 -13t-3 -18t-13 -29.5t-12 -30t-3 -32.5t-4.5 -34t-7.5 -20q-14 -29 -15 -32q-7 -7 -14 -13q-9 -23 -17 -46q-1 -4 2.5 -12t2.5 -11l-9 -25q0 -13 -2 -29t-4 -24
q-6 -16 -11 -31q0 -14 6 -23.5t20 -22.5q4 -4 19 -13.5t20 -15.5q10 -11 13.5 -25.5t3.5 -37.5q1 -12 1 -19q0 -4 -2 -10q-5 -14 -18 -25t-32 -18q-6 -2 -11.5 -6t-13 -6t-28.5 -2q-12 0 -40.5 1t-29.5 1q-3 0 -5.5 -2.5t-4.5 -2.5q-17 0 -36 -1t-37 -2q-16 0 -23 1l-34 4
l-13 7l-23 -9l-58 -2q-11 13 -15 19q-7 11 -7 22q0 12 1.5 17.5t6 8t6.5 3.5q4 7 11 16t14 15q16 10 38 27l20 16q3 2 9.5 5t9 7t2.5 14q0 6 -1 21t-1 17q0 16 3.5 31t12.5 31q10 7 13 12l7 17q9 10 13 16q8 11 14 22l36 73q2 4 2 14q0 18 2 22q10 12 13 18.5t4 21t2.5 19
t9 8t10 9t3.5 12.5t2 13q0 4 -2.5 11.5t-2.5 10.5h-72l-22 -12q-4 -2 -13 -3l-18 -2l-53 -16q-7 -2 -14 -9t-10 -9l-20 -14q-7 -22 -13 -39q-11 -32 -28 -67q-3 -4 -10 -9.5t-9 -9.5l-7 -22l-52 -84q-6 -20 -9.5 -26.5t-19.5 -16.5q-9 -6 -12 -10.5t-4 -20t-5 -21.5
q-8 -15 -20.5 -30t-13.5 -21q-6 -19 -19 -37q-7 -10 -29 -35q-3 -3 -21.5 -8t-21.5 -7.5t-5 -14.5q-5 -27 -6 -28q-16 -17 -36 -23q-26 -6 -43 -11q-41 0 -85 -11q-85 -22 -92 -20q-8 2 -12 8t-9 6q-4 0 -8.5 -6.5t-8.5 -7.5q-37 -8 -75 -8q-13 0 -28.5 0.5t-38.5 7.5
q-57 16 -83 32.5t-57.5 56t-63.5 78.5q-11 21 -23 40q-28 44 -31.5 63.5t-3.5 36.5q0 37 14 75q11 31 37 76q41 74 106 112q31 19 65 30t69 11q16 0 47 -4.5t76 -9.5q13 -1 23 -9q15 -13 30 -25q5 -3 8.5 -11.5t8.5 -18.5q15 -16 18 -38t3 -65q0 -35 -13 -71t-35 -62
q-43 -55 -120 -55q-28 0 -51.5 10.5t-49 29.5t-39.5 34q-20 22 -23 46q-7 39 23 85q35 55 93 55q27 0 50 -9q16 -6 35 -18q-24 21 -49 31.5t-47 10.5q-53 0 -100 -47q-37 -37 -50 -74q-7 -20 -7 -39q0 -17 6.5 -37.5t28.5 -56.5q8 -24 17 -48q18 -23 29 -34q20 -19 39 -24
l12 4q2 -1 4 -5.5t12.5 -7t26 -5.5t25.5 -13q4 -10 9 -19q5 -2 10.5 3.5t12.5 5.5t29 1t34 1q22 0 31 -2q40 8 81 17q4 1 8 6q11 13 14 14q10 5 20 13t21 16q12 0 15 2q4 6 9 12q5 4 18 17q2 2 11 12q16 18 19 21q10 13 18 28q3 7 5 18t4 18q7 16 12 25q10 18 30 45
q1 1 2 20.5t2 20.5l63 79l8 18q5 5 18 15t17 13q10 10 24.5 29t26.5 42q3 15 7 31q3 5 8.5 9.5t11.5 9.5q10 11 16 17q10 10 22 20q7 6 11.5 10t7.5 10t10.5 13.5t9.5 12.5q1 12 3 24q11 21 16 32q9 23 13 32l36 58q5 10 7 22t3 20q15 6 31.5 16.5t35.5 33.5q5 6 11.5 25
t15.5 31l19 27q2 6 4 13t6 13q1 1 19 10q8 4 12 9q8 7 19 25t19 26q3 4 13.5 11t13.5 11q25 36 51 72l32 36q5 3 8 5q10 8 16 17q2 2 4 11.5t5 12.5q7 6 20.5 11t16.5 7q14 9 30.5 18.5t27.5 9.5q8 0 23 9q30 18 37 13q1 -1 11 -1q14 0 47.5 2.5t36.5 2.5q11 0 13 -2z
M1428 1026q0 6 -4 10t-6 10q-1 -1 -5.5 -2t-7.5 -5l-20 -20q-15 -15 -23 -26q-1 -2 0 -10t0 -10q-14 -7 -16.5 -11.5t-5.5 -13.5t-5 -13q-6 -6 -8.5 -9t-3 -11.5t-3.5 -13t-14 -11.5l-9 -6q-8 -14 -11 -19t-11 -17q-11 -16 -13 -21.5t-4 -10.5t-5 -16t-5 -15l-12 -10
q1 -10 0 -14q-9 -14 -12 -18.5t-9 -10.5l-10 -13q-2 -3 -6.5 -2.5t-6.5 -4.5t-6 -9q-6 -9 -12 -16q-2 -3 -7 -8q0 -5 2.5 -13t2.5 -9q25 -3 41 -12q5 -2 11 -8q4 0 9.5 5.5t7.5 6.5q30 11 37 15q15 7 22 14q3 2 1 8.5t1 9.5t16 7.5t15 6.5t3 16t2 16q7 12 13.5 22.5
t15.5 16.5q1 1 3 2q-2 23 -3 46q1 10 5 20.5t10 24.5q1 3 -0.5 17.5t-0.5 18.5q2 8 7 13q9 10 10 11l8 23q1 4 5.5 6.5t5.5 4.5q5 10 8 28t3 30z" />
    <glyph glyph-name="B" unicode="B" horiz-adv-x="1200" 
d="M1265 1012q0 -14 -17 -55q-1 -3 -8 -21.5t-13 -29.5l-12 -20q-7 -15 -14 -29q-2 -3 -9 -5t-11 -5q-13 -22 -26 -43q-4 -3 -18 -8t-17 -8q-11 -9 -21 -17q-3 -2 -9 -2q-13 0 -15 -1q-22 -13 -38 -22q-43 -26 -61 -33q-7 -3 -71 -17q-31 -7 -43 -25q26 0 42 -1.5t38 -9.5
q31 -28 54.5 -31t36.5 -11q65 -39 81 -56q40 -41 47 -113q4 -16 6 -39t2 -46q0 -66 -23 -123q-19 -47 -64 -110q-8 -10 -18 -21q-16 -18 -23 -25q-27 0 -51 -13q5 -10 -2 -17t-32 -7q-11 -10 -16 -16t-10 -15q-4 -1 -17 2t-19 1q-16 -6 -32 -11q-5 -2 -11 -2h-9q-20 0 -33 8
q-2 1 -5 5q0 -5 -1 -9.5t-7 -6.5t-16 -2h-24.5t-21.5 -2q-36 -8 -66.5 -12.5t-73.5 -4.5q-8 8 -19 12t-20 4q-23 0 -48 -16q-20 3 -38 3q-3 0 -25.5 -1t-30.5 0q-3 5 -12 5q-4 0 -25 -4t-37 -4q-15 0 -30 4q-1 0 -44 -12q-21 -6 -48 -6q-64 0 -85 17t-21 71q0 39 48 47
q72 12 96.5 29.5t35.5 41t11 48.5q0 14 -4 39t-4 33q0 11 18 68q31 12 40 40q7 49 15 98q20 26 36 66q9 24 22 67q13 17 17.5 27t4.5 21q-2 12 -3 19q1 22 1 30q20 66 39.5 137t25.5 130q20 43 40 87q2 13 -1 22t-6 17q2 12 6 25.5t4 15.5q0 35 -19 46q-9 5 -31 5
q-5 0 -21 -4t-27 -6t-44.5 -2t-53.5 -3q-2 0 -7 -7t-7 -7q-40 -7 -62 -11.5t-27 -7.5q-1 -6 -2.5 -14t-9.5 -16l-20 -28q-10 2 -14 -1q-16 -16 -28 -30q-6 -6 -25 -32q-2 -3 -2 -11q0 -16 -1 -18q-9 -6 -17 -12q0 -7 6.5 -10t6.5 -9q0 -3 4 -39t10 -46q14 -22 42 -32
q50 -18 50 -40q0 -32 -33 -62q-39 -35 -98 -35q-9 0 -15 3q-40 18 -98 103q-1 5 1 16.5t1 17.5q-14 51 -14 118v24.5t-1 25.5q0 14 1 20q6 25 13 41.5t18 33.5q48 28 75 50q23 18 33 35q29 23 66 40q6 3 19.5 3t19.5 2q37 12 74 25q10 2 40 5q66 6 72.5 7t17 5.5t18.5 4.5
q26 3 48 5t43 2q15 0 38 2.5t40 7t35 12.5q6 2 15 7l92 -10l46 10q3 1 15 -4q41 -17 54.5 -20.5t48.5 -6.5t55.5 -7.5t42 -16t31.5 -16.5q4 -2 15 -4t13 -3l58 -62q2 -2 28 -25q11 -10 18 -19q12 -16 27 -48q7 -16 14.5 -33t15.5 -37t8 -34zM1063 966q0 48 -12.5 96
t-33.5 75q-6 6 -16 6q-15 0 -20 4t-11 12q-14 20 -18 24q-10 7 -29 13t-27 11q-19 11 -33 23q-2 2 -6 7l-101 -15q-9 -9 -24 -53q-2 -7 -4 -21t-4 -20q-10 -9 -19 -17q-4 -12 -5 -19t-2 -13q0 -12 4 -19.5l8 -15t8 -15.5q0 -1 -7 -9q-12 -14 -28 -37l8 -39l-8 -34l10 -46
l-12 -35l2 -30q0 -15 13 -38q11 -6 14 -12.5t7 -21.5q8 -1 20.5 -1.5t37.5 -0.5q5 0 17 -1.5t14 -1.5q10 0 18.5 2.5t20.5 14t20 15.5t20 13q17 14 23.5 17.5t24.5 5.5t23 5q49 35 78 81.5t29 89.5zM981 317q0 21 -5 41.5t-25 76.5q0 72 -22 93l-36 28q-7 13 -12.5 26
t-6.5 15q-78 0 -85.5 17t-22.5 21q-2 1 -16 -2.5t-25 -3.5q-18 0 -36.5 6.5t-38.5 24.5h-20q-2 -16 -16 -28q-19 -16 -27 -30q1 -5 1.5 -13t0.5 -22v-12v-11q-2 -8 -2 -12q-11 -27 -15.5 -46.5t-4.5 -45.5q-26 -38 -38 -87q-7 -48 -14 -95q-7 -23 -29 -51q-18 -23 -18 -40
q0 -32 64 -63q52 -25 72 -25q10 0 28.5 8t30 11t38.5 3q45 0 63.5 2.5t41 9.5t45 23.5t45.5 39.5q20 8 32 18t23 26q0 16 15 50t15 47z" />
    <glyph glyph-name="C" unicode="C" horiz-adv-x="1039" 
d="M1256 1183q0 -54 -12 -76q-16 -30 -61 -30q-22 0 -51 27l-36 34q-8 8 -24.5 20.5t-30.5 24.5q-11 3 -22 7q-28 39 -63.5 53.5t-74.5 14.5q-57 0 -140 -46q-18 -10 -92 -75q-43 -38 -88 -65q-48 -108 -73.5 -140.5t-26.5 -42.5q-24 -32 -55 -48q-3 -6 -4 -12t-1 -9
q2 -14 2 -20q0 -9 -5 -16t-19 -16q-7 -43 -11 -56q-13 -38 -47 -87q-6 -21 -13 -78.5t-21 -80.5q7 -21 7 -40q0 -3 -14 -76q-7 -37 -7 -77q-14 -47 -24 -136t-10 -161q0 -41 13 -64q38 -69 43 -96q16 -24 32.5 -44t36.5 -37q31 0 69.5 -31.5t88.5 -31.5q41 0 54 7l28 26
q53 0 84 23q26 24 53 48q27 21 57 51l52 52q33 46 66 66q26 16 52 16q30 0 42 -18.5t12 -43.5q-11 -49 -26.5 -55.5t-22.5 -58.5q-53 -62 -151 -120q-89 -52 -211 -97q-21 3 -39 3q-41 0 -118 -26q-42 -14 -65 -14q-29 0 -65 20q-35 23 -44 29q-63 39 -118 81q-44 34 -73 61
q-8 13 -11 23.5t-3 18.5q0 29 -6 48.5t-25 52.5q0 9 2 32t2 39q0 34 -10.5 75.5t-20 123t-9.5 123.5q0 14 2.5 24.5t40.5 68.5q23 34 41 96q-7 3 -7 13q23 60 40.5 116.5t17.5 106.5q28 31 51 88l60 152q34 50 70 91t75 77q10 30 62 66q36 25 100 58q57 48 132 82
q100 46 188 46l73 -7q3 0 19 1t25 1q11 0 24.5 -3t36.5 -16q34 -21 69 -41q7 -3 14 2q11 8 24 8q9 0 15 -1q31 -14 53 -43.5t22 -60.5z" />
    <glyph glyph-name="D" unicode="D" horiz-adv-x="1469" 
d="M1468 852q-1 -6 -7 -14t-7 -15l2 -33l-9 -121q0 -8 -5 -18t-5 -18q-5 -27 -8 -43q-10 -48 -23 -87q-4 -12 -13.5 -26.5t-11.5 -20.5q-1 -3 -0.5 -14t0.5 -12q-2 -7 -5.5 -12t-5.5 -8q0 -6 -0.5 -14.5t-7.5 -17.5t-27 -25q-26 -21 -35 -30q-14 -17 -33 -35q-2 -2 -25 -23
q-8 -9 -23.5 -23.5t-28.5 -24.5q-14 -4 -20 -8t-18 -14t-22 -19l-29 -17q-2 -2 -19 -22q-10 -11 -20 -18q-1 0 -11.5 -1t-14.5 -2q-10 -5 -17 -8t-23 -5.5t-28 -5.5t-20.5 -6.5t-13 -5.5t-15 -8.5t-14.5 -8.5q-30 -10 -55 -10h-106q-5 -7 -9 -11q-13 -13 -26 -16t-35.5 -4
t-24.5 -1q-9 -6 -18 -6q-8 0 -20 1t-14 1q-7 0 -17 -2q-9 -6 -17 -11q-5 -2 -15 0t-16 1q-3 -7 -6 -13l-41 -6q-14 6 -19 6q-64 -11 -116 -11q-5 0 -21 8t-35 11l-41 2q-21 0 -33 5l-12 10q-3 1 -28 -1.5t-35 -2.5q-13 0 -19 1q-12 0 -20 7q-10 12 -14.5 17t-5.5 16t-2 16
q-5 8 -9 17q0 5 5 10t12 9q7 7 16 11t20 7.5t23 11.5t20 9l3 5q5 1 15 1t30 -2t29 -2q5 -3 11 -5q4 4 6.5 9.5t4.5 7.5q10 5 13.5 7t6 9t4.5 9q6 6 17 11.5t14.5 8t10 8t14.5 12.5q6 2 13 5.5t11 7.5t12 14q2 2 -1 10t-1 12q7 8 14 17l-2 22q1 3 7.5 6t9 13.5t5 27t2.5 35.5
l-21 132l7 22l2 22q10 19 12 26.5t3 20t2 16.5q5 16 11 26t11 19t5 25v16q0 1 4.5 13t4.5 29q0 6 -7 18t-7 22q9 10 14 17q15 20 31 49l10 27q2 5 7 12t6 12q1 3 -0.5 16.5t-0.5 14.5l8 41q1 4 9 25.5t8 27.5q1 5 1 15q0 21 -6 41h16q0 4 2.5 14t2.5 14v21q0 24 3 33
q10 7 12 12v21q0 18 -20 18q-12 -1 -18 -1q-4 -2 -9.5 -4.5t-13.5 -4.5l-48 -10q-6 -2 -15.5 -12.5t-16.5 -12.5t-26.5 -2t-33.5 -4.5t-29 -13.5q-3 -1 -16 0t-18 -1t-13 -10t-13.5 -11t-16.5 -5t-17.5 -5.5t-12.5 -7.5q-9 -8 -12 -10t-4 -9t-3 -10t-7 -7.5t-9 -8.5
q0 -10 -2.5 -13.5t-5.5 -18.5t-4.5 -17t-6.5 -4t-5 -8q0 -4 4.5 -6.5t5.5 -4.5q5 -13 11 -25q3 -4 15.5 -11.5t18.5 -14.5q5 -4 9.5 -11t15.5 -31l9 -4q7 -13 10 -34q1 -4 -3 -9t-4 -8q0 -2 4.5 -5t4.5 -5q-3 -35 -19 -62q-12 -22 -20 -31q-12 -13 -29 -22q-7 -3 -20 -4
t-25 -1q-22 0 -32 5q-26 11 -45 33q-15 5 -18 8t-4 11.5t-3 12.5q-20 34 -26.5 54t-6.5 37q0 11 -4.5 22.5t-8.5 23.5q-2 3 -0.5 15t1.5 14q0 6 -6 17t-6 20q0 5 4 11.5t5 9.5l14 42q0 6 5 16t5 14q0 3 -2.5 12.5t0.5 14.5q3 4 9 7.5t12 7.5l15 5q2 12 5 24q22 17 44 24
q19 -2 26 0q10 2 16 5.5t16 11.5q13 8 26 15q22 11 41 19q32 17 45 21q22 7 40 7q5 0 15.5 -4t13.5 -2q11 4 33.5 16.5t38.5 16.5l5 3q14 2 41.5 3t28.5 1q9 0 19 4t20 4l57 -1h10t12 1q17 6 26 9q18 6 32 8q2 1 8 -3.5t9 -3.5q18 4 43 19q12 7 13 7h11t25 -5l10 -14h16
q8 5 13 5q9 -5 14 -5h116q16 -5 40 -11t56 -11q6 -1 19.5 -1t20.5 -1t13 -1q15 -3 32 -14l26 -26q5 -3 35 -10q12 -3 23 -8q3 -1 8 -9.5t10 -11.5l62 -22q9 -6 22 -19q9 -8 21 -19q6 -14 13 -27q5 -5 25 -21q13 -10 16 -18.5t6.5 -20t3.5 -22.5q0 -6 -3 -15t-2 -15
q0 -1 44 -62q18 -25 18 -44v-17t1 -25v-21q-1 -8 -1 -12zM1287 739q3 11 3 18q0 8 -1 10t-2 3v19.5t1 19.5q0 8 -1 14.5t-8 16.5t-8 15q-4 19 -6.5 30t-6.5 20q-7 15 -16 26t-10 13l2 36q0 3 -5 5.5t-5.5 9t-2 15t-5.5 16.5t-13 18q-13 14 -17 19q-9 12 -17 24q-8 9 -12 13
q-7 8 -16 14.5t-24 13.5q-21 10 -32 15.5t-50 18.5q-13 4 -37 12q-3 2 -5 10.5t-7 11t-12.5 5t-14.5 2.5l-20 -2q-6 2 -11 6q-14 11 -18 12.5t-11.5 1.5h-11.5h-24q-8 0 -14 1t-9 5.5t-4 4.5q-15 0 -26 -14.5t-14.5 -23t-5.5 -19.5t-3 -21l-10 -26l-16 -14q-1 -4 -2 -12
t-1 -18q-3 -14 -7.5 -41.5t-6.5 -35.5v-27q0 -16 -2 -25.5t-5 -12.5q-9 -9 -10 -14v-25q0 -12 -1.5 -15.5t-8 -9.5t-8.5 -9.5t-5.5 -15.5t-7.5 -25l4 -24l-12 -48q-5 -7 -8 -15t-4 -16q-1 -6 0 -18.5t2 -23.5q-6 -23 -11.5 -43.5t-9.5 -32.5q-7 -20 -8 -27t-1 -14
q0 -16 1 -32q-5 -22 -11.5 -42t-11.5 -31q-1 -3 -17 -23q-10 -12 -15 -23q-4 -14 -7 -28q-3 -6 -11.5 -19t-12.5 -25l-10 -41q-5 -17 -7.5 -28.5t-2.5 -26.5q0 -28 2 -42.5t11 -27.5q6 -7 18 -9t32 -2q9 0 21 2.5t27.5 6.5t36.5 4q2 0 8 -5t9 -5q11 -1 17 -1q8 0 15 2t13 4
l15 5q22 2 38.5 4t28 8t22.5 12l32 12q8 4 10 7q9 5 31 20q15 10 17 11h22q12 6 24 14.5t38 29.5v19q6 4 14.5 12t16.5 15q-2 7 1 12l29 36l26 20q6 7 20 26q8 11 12 15q11 14 15 26q1 2 2 7q4 1 8.5 1.5t7 2.5t7 7.5t8.5 10.5q4 3 7 6t7 9q3 14 5 25t8 26l16 26l5 22
q6 2 12 5q3 7 -2 19t-3 17q2 6 8.5 16t8 14t4 15.5t3.5 14.5q5 8 10 17z" />
    <glyph glyph-name="E" unicode="E" horiz-adv-x="1249" 
d="M1382 1249q0 -38 -42.5 -85.5t-69.5 -47.5q-18 0 -37 15q-10 8 -35 35q-2 8 -16.5 19.5t-24.5 17.5l-20 2q-20 13 -41.5 20t-49.5 7q-15 0 -45 -4t-108 -21q-14 -4 -29.5 -8t-35.5 -4q-14 7 -37 7q-10 -1 -14 -1q-8 0 -21.5 -9.5t-19.5 -10.5q-3 -1 -8 5l-6 4
q-1 -1 -26 -31q-12 -14 -17 -27q1 -4 1 -7.5v-6.5q0 -16 -11 -26q-3 -31 -5 -52t-5 -30q-5 -9 -7 -14q-9 -20 -13.5 -31.5t-4.5 -28.5t-2.5 -23t-8.5 -12q-14 -13 -15 -17q-2 -3 -0.5 -11.5t0.5 -12.5q-4 -15 -13 -34.5t-16 -35.5q-2 -2 -9.5 -3.5t-9.5 -6t-3 -11.5t-2 -13
q0 -24 7.5 -31.5t26.5 -7.5q5 0 21 1t27 1q14 0 27.5 -1t26.5 -2q12 0 18 1t18.5 8t16.5 8t15 1q15 -1 22 -1t10 1t15 7.5t22 8.5t22 3.5t22 0.5q3 -1 8 -5t10.5 -5.5t19.5 -4.5t25 -3q13 0 22.5 5.5t14.5 12t9 12.5l26 28q7 10 14 29t10 25q11 23 21.5 35.5t27.5 12.5
q29 0 47 -25q15 -20 15 -42v-13q0 -17 -1.5 -27.5t-5.5 -18.5q-7 -16 -16 -29t-18 -22q-3 -3 -7 -4t-5 -2q-1 -2 4.5 -5.5t5.5 -6.5l-2 -27q-3 -2 -7.5 -2t-6.5 -2t-5 -10.5t-5 -16.5q-6 -11 -11 -21.5t-9 -24.5q-1 -3 1.5 -9t1.5 -8q-3 -14 -8 -26q-8 -19 -9 -23t-2 -16.5
t-3 -14.5q-7 -7 -21 -11t-28 -4q-26 0 -36 12t-10 34q0 4 7.5 11.5t9.5 12.5l-4 71q-4 6 -5 6q-7 6 -16 6q-4 0 -12 -4.5t-35.5 -7t-44.5 -4t-45.5 -5t-39.5 -1.5q-20 4 -31 5q-33 5 -45 5t-45 -3t-73 -10q-4 -1 -6 -8t-6.5 -8t-10 -1h-7.5h-21q-2 -2 -1 -13t-1 -15
q-13 -16 -20 -26q-16 -20 -21 -35q-5 -32 -10 -63l-28 -80q-7 -21 -13 -41q-11 -34 -21 -74q-1 -4 4 -16t5 -15q-6 -22 -15 -41.5t-18 -38.5q0 -18 16 -25.5t42 -7.5q19 0 38.5 2.5t42.5 5.5q15 0 35 -8t24 -8q4 -1 10.5 -1.5t18.5 -0.5h12h11q9 2 13.5 2.5t13.5 5.5
q25 14 33 15.5t13 1.5q8 0 27 -3t34 -3h21h16q37 0 50.5 1.5t28.5 9.5q7 3 13 9l23 23q24 8 37 13t14 13q70 24 110 65q67 68 80 68q14 0 29 -16t15 -29q0 -30 -14.5 -49t-26.5 -34q-11 -28 -18.5 -53.5t-8.5 -26.5q-7 -11 -24 -22q-34 -17 -41 -21q-31 -22 -57.5 -39
t-32.5 -19q-7 -7 -31 -7q-14 7 -22 7q-7 0 -25.5 -3.5t-22.5 -3.5q-3 0 -9 5t-11 5q-10 0 -29 -8.5t-26 -8.5q-13 0 -36.5 5t-30.5 5q-12 0 -44 -4t-44 -4q-106 0 -149.5 2.5t-83.5 5.5q-1 0 -7.5 -4t-21.5 -6q-16 -1 -56.5 2t-59.5 3q-11 0 -34 -6t-39 -6q-45 0 -66 2
q-117 11 -117 63q0 31 41 58q24 16 91 45q21 9 29.5 25t8.5 36q0 19 -5 37t-11 38q-1 11 -1 17q0 8 4 17q7 4 12 7t7 9l24 54q24 35 52 72q23 30 25 32.5t12 40.5q5 21 41 137q1 3 0 12t0 13q3 1 4 1q5 3 8 10q0 13 0.5 27t6.5 34q2 5 9 20q16 33 18 40q1 5 -2 10t-2 10
q21 60 43 120q2 6 -0.5 19.5t-1.5 17.5q4 17 17.5 46t15.5 40q-2 4 -2 12q2 14 2 17q3 25 -17 37t-21 16q-29 0 -48 6.5t-22 22.5q-13 16 -13 41q0 23 17 37q15 0 34 12t27 17q12 3 33 4t42 1q10 -7 21.5 -9.5t26.5 -2.5h84q6 0 17.5 4.5t14.5 4.5l34 -4l41 -5q8 0 20 2
t19 2q48 0 81 -1t65 -2q15 0 40.5 1.5t28.5 1.5t13.5 8.5t14.5 8.5q6 0 21 -5t25 -5q57 11 88 16q93 16 118 16q11 0 20.5 -2.5t19.5 -4.5h22t15 -3q10 -8 17 -22t11 -23q1 -3 12 -20.5t11 -25.5z" />
    <glyph glyph-name="F" unicode="F" horiz-adv-x="1249" 
d="M1481 1249q0 -38 -42.5 -85.5t-69.5 -47.5q-18 0 -37 15q-10 8 -35 35q-2 8 -16.5 19.5t-24.5 17.5l-20 2q-20 13 -41.5 20t-49.5 7q-15 0 -45 -4t-108 -21q-14 -4 -29.5 -8t-35.5 -4q-14 7 -37 7q-10 -1 -14 -1q-8 0 -21.5 -9.5t-19.5 -10.5q-3 -1 -8 5l-6 4
q-1 -1 -26 -31q-12 -14 -17 -27q1 -4 1 -7.5v-6.5q0 -16 -11 -26q-3 -31 -5 -52t-5 -30q-5 -9 -7 -14q-9 -20 -13.5 -31.5t-4.5 -28.5t-2.5 -23t-8.5 -12q-14 -13 -15 -17q-2 -3 -0.5 -11.5t0.5 -12.5q-4 -15 -13 -34.5t-16 -35.5q-2 -2 -9.5 -3.5t-9.5 -6t-3 -11.5t-2 -13
q0 -24 7.5 -31.5t26.5 -7.5q5 0 21 1t27 1q14 0 27.5 -1t26.5 -2q12 0 18 1t18.5 8t16.5 8t15 1q15 -1 22 -1t10 1t15 7.5t22 8.5t22 3.5t22 0.5q3 -1 8 -5t10.5 -5.5t19.5 -4.5t25 -3q13 0 22.5 5.5t14.5 12t9 12.5l26 28q7 10 14 29t10 25q11 23 21.5 35.5t27.5 12.5
q29 0 47 -25q15 -20 15 -42v-13q0 -17 -1.5 -27.5t-5.5 -18.5q-7 -16 -16 -29t-18 -22q-3 -3 -7 -4t-5 -2q-1 -2 4.5 -5.5t5.5 -6.5l-2 -27q-3 -2 -7.5 -2t-6.5 -2t-5 -10.5t-5 -16.5q-6 -11 -11 -21.5t-9 -24.5q-1 -3 1.5 -9t1.5 -8q-3 -14 -8 -26q-8 -19 -9 -23t-2 -16.5
t-3 -14.5q-7 -7 -21 -11t-28 -4q-26 0 -36 12t-10 34q0 4 7.5 11.5t9.5 12.5l-4 71q-4 6 -5 6q-7 6 -16 6q-4 0 -12 -4.5t-35.5 -7t-44.5 -4t-45.5 -5t-39.5 -1.5q-20 4 -31 5q-33 5 -45 5t-45 -3t-73 -10q-4 -1 -6 -8t-6.5 -8t-10 -1h-7.5h-21q-2 -2 -1 -13t-1 -15
q-13 -16 -20 -26q-16 -20 -20 -32t-6 -34t-5 -32l-28 -80q-7 -21 -13 -41q-11 -34 -21 -74q-1 -2 -2.5 -11.5t-1.5 -15.5q0 -17 5 -29.5t11 -25.5q0 -29 13 -31t18 -2.5t11 -0.5t18.5 1t17.5 1q25 0 25 -14q3 -14 3 -25q0 -8 -3 -16q-12 -14 -24 -27q-30 -38 -34 -44
q-17 -22 -19 -23l-29 -5q-14 -1 -40 -1.5t-46 -1.5q-85 0 -126 7q-21 5 -39 13q-3 1 -7 4q-5 0 -12 -3.5t-10 -3.5q-12 -1 -24.5 3t-20.5 4q-7 0 -26 -2t-28 -2q-14 0 -21 4q-20 19 -29 29q-29 32 -29 46q0 17 10 30q14 13 19 19.5t15 8.5t24 2q21 0 34 1.5t27 8.5t21 11
q14 8 21 18q11 18 21 35.5t13 29.5q7 21 7 49q-1 11 -1 17q0 8 4 17q7 4 12 7t7 9l24 54q24 35 52 72q23 30 25 32.5t12 40.5q5 21 41 137q1 3 0 12t0 13q4 7 5 11q5 12 5 18q20 66 39 135.5t26 131.5q4 13 20 44t18 39t2 14q0 7 -2.5 14t-5.5 15q3 12 7 25t4 16
q0 36 -19 46q-9 5 -31 5q-6 0 -24 -4.5t-27 -6t-42.5 -1.5t-53.5 -3q-3 0 -7 -7t-6 -7q-40 -7 -62 -11.5t-27 -7.5q-1 0 -3 -11.5t-9 -18.5q-11 -14 -21 -28q-10 2 -13 -1q-30 -30 -53 -62q-2 -4 -2 -13q0 -12 -2 -16q-9 -6 -17 -12q0 -7 6.5 -10t8 -18l4 -40t9.5 -36
q15 -24 53.5 -36t38.5 -36q0 -32 -33 -62q-39 -35 -99 -35q-23 5 -42 21q-31 27 -70 85q-2 6 0.5 17.5t1.5 16.5q-14 51 -14 118q0 6 -1 22.5t-1 25.5v12q2 7 2 10q6 24 13 42t18 33q48 29 72.5 49t34.5 36q31 23 67 40q6 3 19 3t20 2q36 12 73 25q10 2 40 5q68 6 74 7
t16.5 5.5t18.5 4.5q23 3 46.5 5t43.5 2q9 -7 32 -9.5t45 -2.5h84q6 0 17.5 4.5t14.5 4.5l34 -4l41 -5q8 0 20 2t19 2q48 0 81 -1t65 -2q15 0 40.5 1.5t28.5 1.5t13.5 8.5t14.5 8.5q6 0 21 -5t25 -5q57 11 88 16q93 16 118 16q11 0 20.5 -2.5t19.5 -4.5h22t15 -3
q10 -8 17.5 -24.5t9.5 -20.5q9 -14 14 -22q10 -16 10 -24z" />
    <glyph glyph-name="G" unicode="G" horiz-adv-x="1449" 
d="M1505 1260q-13 -19 -23.5 -36.5t-15.5 -42.5q-1 -4 -1 -15v-17t1 -19q0 -25 -2 -79t-2 -73q0 -20 1 -26q-4 -1 -27 -15q-12 -7 -18.5 -8t-31.5 -9q-13 -4 -17 -4q-17 3 -23 33t-9 56t-17 54q-18 36 -54 61q-4 3 -17.5 20t-26.5 26t-49 16t-50 13.5t-29 17.5
q-29 21 -36 21h-109q-16 0 -38.5 -8.5t-38 -13t-35.5 -5t-31 -4.5t-40 -31q-18 -17 -30 -22q-39 -17 -71 -48q-24 -28 -47 -56q-8 -3 -23.5 -4.5t-22.5 -10.5q-13 -16 -34 -67.5t-23 -53t-9.5 -0.5t-12.5 -5q-8 -11 -20.5 -70.5t-20.5 -73.5q-15 -23 -29 -31.5t-24 -53.5
q-3 -21 -3 -31q0 -8 1.5 -15.5t1.5 -8.5l-25 -121q25 -93 49.5 -171t54.5 -109q17 -17 38 -41q17 -19 20 -22q33 -30 57 -41.5t48 -11.5q9 0 54 5t66 5q6 -4 27 -7t55 -3q67 0 96 23q19 15 19 38q0 4 -0.5 7t-1.5 5q18 17 22 21q13 14 19.5 27.5t10 50.5t21.5 55l15 99
l24 113l23 78q4 13 -2.5 21t-20.5 13l-47 21q-15 5 -32 17.5t-32 23.5q-31 19 -27 48q3 11 10 16q13 9 19 18h133q15 0 23 -11t22 -11h174q9 -19 22 -19q42 0 75 24q1 1 33 26q16 13 27 13q27 0 27 -39q0 -13 -3 -28q-13 -60 -100 -80q-45 -10 -57 -34q-21 -39 -40 -86
q-24 -61 -34 -102l-30 -143l6 -79l-15 -35l-22 -137q0 -7 -1 -11q-5 -14 -20 -23q-17 -7 -53 -161q-3 -15 -7 -59.5t-10 -68.5q-3 -7 -26 -21t-26 -26.5t-18 -37.5q-41 -67 -41 -68q-16 -47 -68 -98q-46 -45 -54 -42q-44 -36 -63 -51q-34 -26 -72.5 -40t-66 -21.5
t-53.5 -7.5q-21 0 -37.5 4.5t-37.5 16.5q-41 24 -62 49q-26 30 -26 65q0 11 3 22q8 38 46.5 69.5t76.5 31.5q31 0 47 -24q3 -4 20 -21q11 -11 11 -22q0 -18 -22 -51q6 -3 13 -3q15 0 39 13q7 4 21 13q11 -5 60 64q30 42 38 76q2 11 29 45.5t31.5 54t31.5 86.5q15 37 20.5 60
t9 51.5t3.5 48.5v15q-2 5 -4 9q-18 -3 -42.5 -4t-51.5 -1q-26 0 -65 4q-106 11 -162 11q-38 0 -78 5.5t-82 20.5q-66 22 -124 60t-91 81q-6 7 -13 21q-13 26 -14.5 28.5t-0.5 15t-1.5 17t-17.5 11.5t-18 11q-13 18 -21 40q-4 12 -7 25q-9 28 -13.5 59t-4.5 51q0 19 3 42
t3 28q0 16 -17 20l5 17l6 3q7 5 8 12l17 82l17 28q8 12 12 37q13 79 19 96l22 24q5 11 9 24q11 36 15 44q16 13 32 27q3 4 8 32.5t9.5 35.5t25 23.5t24.5 21.5q7 18 14 37q11 17 30 26.5t21 11.5q17 21 43 39q42 29 76 57q52 43 107 58q84 23 90 37q26 0 64 13q88 30 94 30
q14 0 31 -6l36 -16q8 -2 13 -2q7 0 43 6t67 6q10 0 31 1t31 1q21 0 39 -3.5t35 -12.5q7 -4 18.5 -6t20.5 -2h23q15 0 22.5 -2.5t19 -5.5t17.5 -3q5 0 17.5 -7.5t18.5 -4.5q4 2 13.5 3t12.5 6q32 0 54.5 -2.5t29.5 -2.5q16 0 24.5 -14.5t5.5 -29.5z" />
    <glyph glyph-name="H" unicode="H" horiz-adv-x="1688" 
d="M1734 1278q0 -25 -4.5 -40t-16.5 -19q-8 -4 -47 -4t-58 -15q-3 -2 -9 -17.5t-8.5 -18.5t-6 -3t-5.5 -6t-2 -16v-38q-3 -11 -14.5 -32.5t-14.5 -37.5q-3 -27 -3 -52v-16q1 -13 1 -21q0 -11 -2 -21t-7.5 -20t-16.5 -22q-30 -32 -33 -38q-8 -14 -17 -34l-24 -54
q-3 -5 -7.5 -8.5t-6.5 -10.5q-2 -6 0.5 -17.5t2.5 -16.5q0 -7 -1 -11.5t-9.5 -17t-9.5 -17.5q-6 -40 -10 -65t-11 -39q-8 -23 -21 -45t-15 -27.5t-2 -15.5q1 -15 1 -21q0 -5 -2 -9q-6 -16 -11.5 -32.5t-9.5 -35t-6 -27.5q-7 -29 -16 -55q-9 -13 -17 -26q-2 -9 -2 -25v-23
q0 -15 -3 -23.5t-12.5 -19.5t-9.5 -15q0 -20 8 -29t31 -13q6 -1 47 -4.5t56 -9.5q24 -13 24 -41q0 -11 -11 -30q-3 -6 -12 -18q-2 -1 -12 -1q-13 0 -28 1t-29 2q-8 0 -14 -2q-26 -15 -41.5 -23.5t-26.5 -8.5q-17 0 -30 13q-16 16 -27 19q-2 1 -15 -2.5t-19 -4.5l-89 -8
l-41 1l-35 -5l-77 11l-26 -9l-31 2q-18 0 -32 13t-14 35t12.5 33t55.5 11h30q17 0 27.5 1.5t22.5 5.5t22.5 15t36.5 51q1 2 8.5 8.5t9 16t2.5 15.5l19 58q6 26 13 51t14 41q8 2 16 5q1 4 3 21.5t4 22.5q26 59 44 82q4 4 15 13t14.5 17t3.5 29q0 10 -0.5 20t-0.5 20
q0 30 -22.5 41t-57.5 11q-14 0 -30 -1.5t-33 -2.5q-15 0 -35 2.5t-23 2.5q-13 -1 -28 -5q-1 0 -23 -7q-25 -6 -42 -13q-31 -13 -37 -14q-14 5 -33.5 8.5t-44.5 3.5q-5 0 -10 -0.5t-19 -3.5l-28 -6q-4 -1 -20.5 0.5t-23.5 0.5q-10 0 -19.5 -3.5t-17.5 -6.5q-6 -1 -10.5 -0.5
t-8.5 2.5q-5 -3 -7.5 -12t-4.5 -12q-21 -34 -41 -99q-12 -40 -27 -106q2 -15 2 -24q0 -4 -1.5 -9t-10.5 -12.5t-11 -10.5q-5 -12 -9.5 -37t-7 -32t-3.5 -18t-1 -16q0 -14 -1 -22q-5 -11 -7.5 -17t-2.5 -9q-1 -2 1 -4.5t5 -6.5q-6 -4 -13 -5.5t-7 -5.5q0 -25 87 -46t87 -54
q0 -17 -15 -33q-11 -10 -14 -13q-12 -11 -14 -11h-22q-16 0 -25.5 2t-35.5 11t-36 9q-11 -5 -30 -12t-40 -10q-96 -7 -191 -15q-10 -1 -29 -11t-31.5 -11.5t-27.5 -3t-29 -1.5h-20q-13 0 -32 11q-13 7 -19 11q-18 11 -30.5 30.5t-12.5 42.5q0 6 7 12t16 14q12 16 18 23
q11 13 20.5 15.5t73.5 11t98 30.5q4 4 11 12q2 3 11 14q10 9 16 19.5t13 27.5q2 3 4.5 21t8.5 37q12 12 14 17q1 6 0 18l-2 24q0 5 2 13q25 60 51 120q6 18 9 36.5t3 31.5l12 80q2 7 10 14t9 13t-1 18t-1 18q5 14 16 36q16 29 17.5 33.5t7.5 6t7 3.5q3 31 7 63l36 89
q16 34 23 50q12 27 19 49l11 23q2 7 2 22q0 6 -1 19t-1 19q1 8 1 12q1 3 15 16q8 7 10.5 14t2.5 28q0 20 -12 27.5t-33 7.5q-13 0 -27 -1l-28 -2q-12 0 -18 1q-9 0 -19.5 12t-20.5 23.5t-10 12.5q-7 11 -7 35q0 17 4 23t15 11q8 7 12 10q8 6 14 6q36 -6 73 -11
q58 0 131 -1.5t81 -1.5q7 1 11 1q17 -1 25 -1q5 0 15 2q12 5 21 8q20 6 38.5 6.5t34.5 0.5q32 0 68 -16q46 -20 46 -50q0 -19 -9 -28t-27 -12l-42 -3q-30 -5 -38.5 -7.5t-33.5 -14.5q-25 -14 -41 -43q-1 -1 -22 -53q-13 -19 -26 -37q-3 -11 -3.5 -39t-2.5 -38
q-16 -28 -31 -55q-3 -8 -5.5 -26t-3.5 -22q-4 -18 -8.5 -31t-10 -24.5t-17.5 -41.5q-7 -17 -11 -22t-9 -5q-7 0 -7 -5q0 -7 11 -22t18 -23q14 0 31.5 -0.5t40.5 -0.5q5 0 26 4.5t32 5.5q10 0 29 -2.5t24 -2.5q14 0 51.5 7.5t54.5 7.5q20 0 69 -4t82 -4q6 0 59 9t61 12.5
t11 5.5q10 7 12 12.5t2 16.5v22t2 15q7 24 22 56.5t16 34.5q5 15 7.5 28.5t4.5 24.5q9 42 28 99q30 93 30 109q-3 5 -5 10q-8 19 -11 43q-22 0 -38 -6.5t-32 -12.5q-20 13 -40 23.5t-45 10.5q-3 20 -5 41q2 9 56 53q14 3 51 4t69 1l42 14h103h28.5t32.5 1q29 0 53 -3
q5 0 10.5 -4.5t18.5 -6.5t26.5 -4t23.5 -5q27 -7 27 -33z" />
    <glyph glyph-name="I" unicode="I" horiz-adv-x="591" 
d="M814 1280q-8 -41 -48 -51q-2 -1 -16 -1q-8 0 -29 1t-29 1q-9 -1 -11 -1q-17 -6 -27 -16q-9 -12 -14 -18q-8 -10 -10 -16t-4 -17l-22 -102q2 -12 5 -24l-39 -183q-1 -7 3 -14t4 -8q-4 -14 -6 -23q-5 -17 -18 -50q-11 -19 -21 -38l-23 -123v-17l-9 -24l7 -17l-19 -24
l-22 -104q-2 -9 2 -15t3 -10l-36 -173q-3 -15 -3 -19q0 -3 1 -4q5 -7 11 -13q12 -18 20.5 -29.5t15.5 -17.5q3 -4 40.5 -12t40.5 -11.5t8.5 -16t9.5 -18.5q5 -12 5 -22q0 -4 -2 -15.5t-13.5 -19.5t-20.5 -8h-191q-6 0 -56 -13q-23 -6 -35 -6q-5 0 -21.5 9t-20.5 10
q-6 1 -16.5 -2.5t-19.5 -4.5h-70.5h-52.5q-17 0 -31 9t-20.5 23t-6.5 32q0 5 3.5 19t16.5 31q21 21 52 31q10 3 44.5 5t45.5 4q5 0 23 10q9 5 13 5q2 13 12 33q6 13 13 44q4 20 4 106q-1 7 0.5 15.5t7.5 18.5q1 3 9.5 12.5t11.5 17.5q-1 13 -1 22q0 5 1 9q0 9 5.5 32.5
t6.5 29.5q6 20 9.5 32.5t3.5 21.5q0 4 -2.5 6.5t-2.5 7.5q6 20 9 36.5t3 24.5q1 4 -3 9t-4 8q0 21 29 120q2 5 14 30t14.5 36.5t2.5 16.5q-1 14 -1 21q0 8 1 12t8 11t8 11l35 172q2 10 5.5 11.5t6.5 2.5l7 51l-3 17l12 7l5 19q-8 4 -26.5 7.5t-42.5 8.5t-42 9q-36 8 -46 14
q-24 18 -24 50q0 14 2 22q6 29 23.5 42.5t44.5 13.5l81 -24q86 -25 95 -25h111q8 5 23.5 7t30.5 3h43.5t52.5 -7q16 -3 27.5 -5t19 -6t9.5 -11t0 -12z" />
    <glyph glyph-name="J" unicode="J" horiz-adv-x="1099" 
d="M1169 1229v-17q0 -15 -4.5 -24.5t-14.5 -18.5q-6 -6 -20 -15q-3 -2 -13 -16.5t-18 -17.5q-11 -6 -29 -10t-29 -6l-55 -5q-6 -1 -23 -3t-24 -2q-3 -12 -9 -26t-7.5 -20.5t-1.5 -13.5q0 -17 1 -34q-2 -11 -10 -30.5t-10 -27t-2 -15.5q0 -5 1 -17t1 -18q0 -8 -1 -11l-14 -82
q-2 -13 -17 -54q-8 -23 -10 -32q1 -19 1 -28q0 -6 -1 -9l-15 -60q14 5 19 5.5t15 -0.5q7 0 27 -4t26 -4q10 -3 26 -6t26 -3q6 0 16 2q7 0 18.5 8.5t17.5 10.5q4 2 -1.5 19t-5.5 21q0 6 4 7v18t15 22q5 5 16.5 8t22.5 3q25 0 36 -8q6 -5 17 -23q1 -3 5 -9l5 -62
q-2 -4 1 -18.5t3 -18.5q-3 -7 -10 -12t-16 -11q-6 -7 -23 -16t-26 -13q-22 -7 -43 -13q-2 -4 -4 -6q-8 -6 -25 -11l-53 -5q-6 -1 -14 7t-10 8q-10 -1 -14 -3q-13 -6 -20 -6q-16 0 -25 2q-33 7 -43 7q-3 -11 -10 -31.5t-9 -28.5l-31 -143l7 -79l-15 -35l-22 -137q0 -7 -1 -11
q-5 -14 -20 -23q0 -5 1 -17t1 -20q0 -10 -1 -21t-4 -24t-15 -37q-15 -29 -17 -37.5t-2 -15.5q0 -11 1.5 -30.5t1.5 -21.5q0 -13 -10 -39q-6 -15 -8.5 -22.5t-8.5 -32.5q-9 -37 -14 -57.5t-29 -49.5q-27 -33 -31.5 -48t-9 -30.5t-12.5 -25.5q-29 -34 -71 -63t-47 -26
q-29 -22 -88 -38q-88 -24 -96 -27q-36 -12 -73 -12q-70 0 -139 41q-39 24 -58 47q-23 28 -23 62q0 10 3 24q8 38 46.5 69.5t76.5 31.5q31 0 47 -24q3 -4 20 -21q11 -11 11 -22q0 -18 -22 -51q8 -4 20.5 -5t31.5 -1q33 0 41.5 0.5t14.5 2.5q14 9 22 15q25 19 37 38
q7 10 24 19t21 25q1 7 9.5 23.5t22 35.5t21 57.5t8.5 45.5q6 29 12 44q10 24 14.5 43t9 49.5t4.5 54.5v15q-2 5 -4 9q7 18 10 28q11 33 14 54t3 46q0 23 -0.5 33.5t-2.5 21.5q9 8 13 42.5t7 42.5q7 13 10.5 50.5t22.5 55.5l15 99q7 18 10 28q10 31 12 51q2 6 2 13v10
q-16 0 -33.5 -1t-36.5 -4q-7 0 -27 3t-30 3q-8 0 -11 -1q-8 -2 -38 10t-40.5 10.5t-39.5 4.5q-9 1 -26 6q-6 -4 -22 -8.5t-27 -11.5q6 -14 13 -28q2 -8 4 -15q-3 -1 0.5 -20t6.5 -28q4 -11 -12 -25q-11 -8 -21 -16q-12 -13 -22.5 -17.5t-24.5 -6.5q-18 0 -34.5 18.5t-19 31
t-13.5 29.5t-12 22q-1 11 2.5 29t7.5 39q1 14 20 31q12 11 15 15t23 18q8 6 15.5 12t20 11.5t24.5 10t26 9t25 6.5q5 0 20.5 -7t19.5 -7l49 -5q6 1 25 -3t27.5 -3.5t32 -2t29.5 -1.5q8 0 30 -1t28 -1q10 1 22 1.5t18 0.5l1 15q1 6 1 20q-1 22 -1 32q1 10 6 25q15 44 15 46
q1 11 -1 23l-3 18q0 14 3.5 27.5t6.5 30t11 38.5q8 18 12 29.5t5 18.5t1 19v23t2 19l11 51q1 3 1 6v4q0 13 2 19q-9 1 -29.5 10.5t-31.5 8.5q-10 0 -19.5 -0.5t-19.5 -0.5q-9 0 -19 1t-35 8q-12 3 -23 6q-14 0 -37 3t-32 3q-16 0 -31.5 3t-16.5 3h-32q-6 -2 -11 -2h-23
q-2 -1 -13 -2.5t-16.5 -4.5t-16.5 -5t-17.5 -5.5t-12.5 -7.5q-9 -8 -12 -10t-4 -9.5t-2.5 -9.5t-16.5 -8t-16.5 -7.5t-1.5 -7t-2 -8t-5 -17.5t-4.5 -17t-6.5 -4t-5 -9q0 -3 4 -5t6 -5l28 -25q4 -6 25 -11.5t26 -11.5q5 -4 9.5 -11t15.5 -31l9 -4q7 -13 10 -34q1 -4 -3 -9
t-4 -8q0 -2 4.5 -5t4.5 -5q-1 -16 -4.5 -24.5t-13.5 -25.5t-30 -34q-16 -14 -37 -24q-7 -3 -20 -4t-25 -1q-22 0 -32 5q-26 11 -45 33q-15 5 -18 8t-4 11.5t-3 12.5q-20 34 -26.5 54t-6.5 37q0 11 -4.5 22.5t-8.5 23.5q-2 3 -0.5 15t1.5 14q0 6 -6 17t-6 20q0 5 4 11.5
t5 9.5l14 42q0 6 5 16t5 14q0 3 -2.5 12.5t0.5 14.5q3 4 9 7.5t12 7.5l15 5q2 12 5 24q22 17 44 24q4 1 15.5 12t13.5 12q28 5 40 14q3 2 22 4.5t34 8.5q32 17 45 21q22 7 40 7q5 0 15.5 -4t13.5 -2q15 5 15.5 3t1.5 -3q11 0 28 3t27 3q4 0 12 -6q20 -14 22 -15q8 0 19 9
t19 8q5 0 15 -4q22 -9 26 -9q9 0 27 5t27 5t22 -4.5t30 -9.5q7 -1 22 -1h19t20 1q11 -2 24.5 -3.5t21.5 -1.5q11 11 18 16.5t18 12.5q16 11 25 16q18 11 26 15q29 14 43.5 20t24.5 7q32 7 75 7q5 0 29 -5q9 -2 18 -2q45 0 76 -14q20 -7 30 -12q17 -9 24.5 -18t7.5 -27
q0 -7 -1 -22t-1 -16zM1062 1239q-1 7 -9 11t-29 4q-32 3 -48 -25l39 -4q9 0 16.5 -0.5t14.5 -0.5q19 0 16 15z" />
    <glyph glyph-name="K" unicode="K" horiz-adv-x="1248" 
d="M1391 -135q3 -19 -7 -27q-15 -7 -24 -13t-13.5 -7.5t-28.5 -4t-33 -2.5q-11 0 -19 1q-7 0 -25.5 5t-32 9t-40.5 19t-40 18t-28 7t-35 12q-7 4 -23.5 20.5t-24 21t-22 15t-27.5 15.5q-18 2 -33 3.5t-23.5 6t-18.5 13.5q-29 26 -33 28q-31 15 -61 31q-7 5 -25 35
q-8 13 -16 21q-4 4 -12 31q-4 15 -8.5 20.5t-13.5 8.5q-26 9 -28 12q-7 9 -15 21.5t-15 24.5q-3 4 -6.5 15t-8.5 15.5t-23.5 18t-23.5 23.5l-10 56q-21 23 -41 46q-2 4 0 17t2 19q0 7 -1.5 10.5t-12.5 5.5q-27 6 -30 10.5t-7 20t-7.5 20.5t-6.5 14q-8 24 -9 26
q-4 7 -22.5 21t-21.5 25t-21 33q-5 7 -17 19q1 -12 1 -15q0 -1 -9 -9l-14 -86l12 -27l-27 -82l5 -24l-34 -75l-4 -61q1 -2 1 -12q0 -31 2 -40q6 -27 32 -47q3 -3 18 -5t22 -2q13 -8 33 -16.5t32 -10.5t25.5 -7t29.5 -10q8 -5 8 -27q0 -8 -1 -15.5t-2 -14.5q-4 -29 -25 -34
q-29 -4 -57 -8q-4 -1 -17 -1q-17 0 -35.5 1t-35.5 2q-11 0 -14 -0.5t-7.5 -0.5t-11.5 -1q-13 0 -21 2t-11.5 9t-6.5 7l-147 -6q-1 0 -9.5 -6.5t-17.5 -9.5q-19 -8 -48 -8q-4 -1 -10 -1.5t-16 -0.5q-14 0 -34 3q-12 4 -25 7q-11 4 -25.5 10.5t-21.5 15.5t-5 24q0 17 14.5 36
t26 23.5t33 8.5t36.5 8q14 6 22 10q14 8 24 18q7 11 11 18q13 20 15.5 25.5t11 22.5t11.5 26q8 36 13.5 63.5t5.5 42.5q0 9 -2.5 14.5t-6.5 9.5q0 1 6 5q13 9 23 29q4 6 9 26t8 30q1 10 2 25t9 45q0 4 5 19t7 22v23t3 25q4 10 9 20l-4 24q1 6 13 34q9 22 9 31q-2 8 -7 13
t-5 8q0 9 9 40q15 53 22 79l15 65q2 9 13 24t13.5 23t3.5 31t3 38q2 4 -3 15.5t-4 15.5l14 24q-7 11 -7 24q0 7 3 19t3 18q0 13 -7 21.5t-20 17.5q-8 8 -28.5 10t-25.5 6q-12 5 -12 24q0 10 3 27q7 27 53 48q8 5 12.5 8.5t10 5t20 5.5t22.5 4q20 0 31 -2t37 -10
q5 -2 22 -4.5t33 -6.5q11 -6 22 -11h41q21 1 32.5 1.5t18.5 2.5q19 5 40 17.5t37 12.5q13 -5 22 -8q29 -11 58 -27l-12 -57q-13 -4 -18 -9q-19 -19 -23.5 -21t-39 -6.5t-42.5 -9.5q-30 -14 -47 -34q-10 -11 -28 -43q-13 -19 -21 -34q-12 -22 -16 -42l-21 -115q1 -2 -23 -49
q-13 -25 -14 -31q-3 -11 6 -38t28 -27q6 0 16.5 2.5t22.5 6.5q34 31 91 71q3 3 10.5 8l13.5 9q8 13 17 26l29 34q3 2 20.5 6t26.5 13q26 28 37 46q6 13 13 26q2 1 16 9q29 16 54 38q2 2 3.5 14t4 14.5t25.5 14.5q11 6 15 10q14 17 22 34q5 11 8 24q1 6 -13 10q-27 7 -53 14
q-46 19 -39 46q-1 9 -1 14q0 12 16 19l20 1q3 1 4 11.5t4.5 12t15 2.5t16.5 1h16q8 0 9 2q48 4 89 4h12h18.5t20.5 1q20 0 45 -5q5 -3 13 -3q6 0 27 2.5t27.5 6t20.5 3.5q2 0 16 2t29 2q20 0 61 -6q26 0 50 -10q38 -13 32 -44q-2 -11 -11 -27.5t-19 -26t-24 -13.5
q-5 -1 -21 -3q-12 0 -24 -4l-48 -20l-58 -14q-8 -3 -19 -12q-15 -13 -30 -25q-44 -27 -99 -69q-6 -4 -14 -18t-12.5 -17.5t-19 -7t-24 -11.5t-22 -20.5t-19.5 -17.5q-21 -11 -50 -15q-11 -1 -15 -4l-26 -32q-14 -12 -28 -22q-5 -3 -13 -9h-9t-12 1q-11 0 -13 -1
q-15 -9 -18 -21.5t-16 -20.5q-10 -8 -34 -16q-14 -5 -26 -8q-5 -3 -17 -15q-16 -17 -32 -30q-10 -11 -20.5 -22.5t-10.5 -17.5q0 -4 4 -7q-2 -6 -4 -14t-2 -12t2 -12t12 -21t13 -20t13.5 -17.5t12.5 -14.5t27 -29q11 -11 14 -17v-36q5 -10 12 -13q17 -8 24 -18
q38 -40 77 -79q1 -3 1 -10.5v-11.5q0 -8 4.5 -14.5t32.5 -26.5q15 -11 19.5 -16t18 -12t16.5 -11.5t7.5 -23.5t13.5 -27q3 -2 30 -19q21 -13 26.5 -23t13.5 -34q5 -15 12 -21q3 -3 20.5 -5.5t20.5 -5.5q8 -8 13 -17.5t22 -23.5q7 -5 25.5 -28.5t36.5 -37.5q11 -7 23.5 -16
t22.5 -18q18 -21 36 -41q10 -8 24.5 -10t21.5 -6q25 -17 51 -35q7 -3 16.5 -15t14.5 -16l41 -31q2 -1 5 -1.5t6 -1.5q13 3 18 3q8 0 10 -12z" />
    <glyph glyph-name="L" unicode="L" horiz-adv-x="1270" 
d="M1224 283q0 -67 -30 -100q-34 -24 -40 -30.5t-7 -25.5q-5 -62 -7 -71q-6 -9 -28.5 -17t-44.5 -15q-10 -4 -89 -13q-26 -2 -77 -8q-12 8 -33.5 14.5t-61.5 6.5q-61 -7 -98 -11q-78 -9 -189 -25q-3 -1 -17 -1q-10 0 -54 2t-74 2q-12 0 -24 1l-24 2q-10 0 -18.5 -1t-23.5 -6
q-29 -9 -40 -9q-12 1 -29 6.5t-20 5.5t-15 -6q-30 -15 -43 -15q-56 0 -84 9q-44 14 -44 51q0 20 18 63q24 57 58 65q12 2 17 2q14 0 38 -5.5t31 -5.5q15 0 27 8.5t20 31.5q5 13 36 103q6 19 22 57q16 19 22 35.5t6 31.5q0 23 1 27l11 32q1 2 6 13q13 31 23 66q0 1 1.5 20
t5.5 28l42 100q4 20 9 41q12 20 25 41q2 35 5 70q13 40 37.5 98.5t27.5 72.5q1 7 -1 13.5t-4 12.5q24 29 43 66t19 70q0 20 -16.5 30t-42.5 10q-12 0 -18 -1q-7 0 -22 -3t-23 -3q-6 1 -10.5 9t-7.5 9q-18 4 -28 15t-10 35q0 32 31.5 42.5t91.5 10.5q15 0 49 -1t52 -1
q47 0 105 -7q25 -3 31 -2q8 1 18 8t16 8q7 1 11 1t16.5 -1t20.5 -1t12 1q2 0 7 5t9 5q9 -5 19 -10q19 -10 37 -12q33 -38 65 -50q17 -14 26.5 -25.5t9.5 -20.5q0 -20 -18.5 -39.5t-40.5 -19.5q-1 0 -64 13.5t-77 13.5q-7 0 -14 -8q-11 -12 -15.5 -15.5t-17.5 -3.5
t-15.5 -4.5t-2.5 -13.5v-11q-1 -22 -4 -35q-9 -39 -35 -70q-5 -14 -15 -62q-16 -77 -40 -108q-5 -29 -15 -59t-14 -44q2 -10 2 -14q0 -13 -5 -24q-17 -37 -18 -42.5t-2 -21t-2 -22.5q-11 -57 -12 -60q-6 -19 -19 -43l-22 -138q-9 -33 -33 -53q0 -83 -21 -91q-11 -4 -11 -11
q0 -56 25 -78q18 -16 53 -16q23 0 88 13q85 17 168 47q13 4 26 5.5t33 1.5h33.5h18.5q54 14 91 36q59 34 68 86t18 110q15 46 43 46q55 0 74 -74q12 -47 12 -145z" />
    <glyph glyph-name="M" unicode="M" horiz-adv-x="2512" 
d="M2685 1275q-3 -24 -23 -41q-25 -21 -35 -58q-15 -6 -31 -6q-18 0 -37 7q-6 2 -16 7q-38 -9 -48 -36q-15 -40 -43 -64q1 -8 1 -14v-12q0 -23 -7 -35q-1 -2 -16 -18q-1 -4 2.5 -13.5t-0.5 -13.5q-16 -21 -21.5 -48.5t-9.5 -52.5q-19 -23 -25 -39t-6 -33q1 -15 1 -21
q0 -10 -3.5 -17.5t-15.5 -17.5q-2 -12 -2 -15q0 -8 3 -17t3 -11q0 -6 -13 -10q-16 -53 -24 -89q-11 -47 -11 -71q0 -9 1.5 -13t3.5 -9q0 -4 -16 -36q-21 -50 -21 -69q0 -9 6 -17.5t7 -16.5q0 -86 -26 -109t-26 -87q0 -30 8 -41t26 -11q11 0 24.5 3t28.5 7q8 -8 16 -11.5
t16 -3.5q6 0 16 2.5t12 1.5l55 -138v-14q-2 -11 -10 -12q-31 0 -56.5 -6.5t-49.5 -13.5q-50 0 -81 36t-59 36q-15 0 -34.5 -5t-47.5 -18q-206 0 -269 10q-79 13 -79 55q11 43 20 56t25 13q1 0 43 -6q21 -3 41 -3q42 8 83 56q47 56 86 156q16 27 21.5 40.5t5.5 20.5q0 3 -3 6
t-3 8t10 25q5 22 7.5 39t2.5 27q0 12 -1 16q-3 5 -5 10q0 3 4 8q10 12 19 23q0 51 11 76q12 20 25 41q0 13 -12 40q11 18 14.5 28.5t3.5 20.5q-1 13 -1 21q0 18 8 41q12 34 42 87l-10 28q-24 -43 -43 -47.5t-32 -41.5q-7 -45 -19 -58t-72 -41q-17 -33 -61 -76
q-20 -20 -58 -98q-110 -182 -156 -241q-27 -35 -40 -35q-8 0 -16 -12q-12 -17 -27 -45q-15 -7 -30.5 -49t-63.5 -113q-30 -45 -72 -71t-87 -26q-18 0 -24.5 11t-6.5 30q0 12 1 26t1 16q5 11 7 17.5t2 9.5q0 4 -11 4q-13 0 -13 19q3 27 3 46q0 36 -11 56q-17 21 -25 34
q0 55 -4 80.5t-8 53.5v33q3 20 4 31q-13 16 -17.5 27t-4.5 23q0 3 5 29q2 10 1 18q-9 23 -13.5 41.5t-4.5 28.5t5 17t5 10q0 8 -12 25q-3 63 -5 98q-8 104 -24 142q-14 23 -24 23q-9 0 -17.5 -16.5t-14.5 -30.5q-20 -30 -31 -71q-10 -47 -14 -67q-27 -55 -43 -90
q-30 -65 -35 -104q-9 -52 -23 -58.5t-18 -49.5q3 -14 -15 -26.5t-18 -37.5q0 -5 2 -21q-17 -19 -24 -30q-17 -27 -27 -80q-2 -4 -18 -14q-9 -6 -11 -9q-8 -33 -23.5 -53.5t-31.5 -40.5q-15 -49 -48 -78q-22 -20 -85 -52q-64 -28 -127 -56q-38 -9 -156 -9q-39 -12 -87 -12
q-65 0 -123 22q-69 26 -109 79q-33 39 -65 78q-11 21 -23 40q-28 44 -31.5 63.5t-3.5 36.5q0 37 14 75q11 31 37 76q45 80 99 112q64 38 174 38l93 -15.5t67 -59.5q13 -14 20 -37t7 -47q0 -41 -14.5 -82t-39.5 -70q-20 -26 -49.5 -39t-61.5 -13q-61 0 -111 38q-36 27 -50 42
q-27 30 -27 63q0 29 19 59q-24 -11 -34.5 -32t-10.5 -50q0 -22 7 -49t18 -53q4 -33 28 -66t57 -40q13 -6 24 -8.5t14 -2.5q9 0 15.5 -2t26.5 -14q16 -7 36 -7q5 0 18.5 1t23.5 1q9 0 22 -1t27 -4q26 11 91 25q86 19 105 53q36 16 59 40q29 30 42 76q29 30 49.5 63t20.5 62
q-2 13 4 27q10 20 21 41q23 76 50 102q8 8 8 22l-2 26q7 16 24 41q3 4 48 70q77 164 119 233q26 43 54 71q16 45 16 74q0 18 -7 29q-11 11 -21 22q-22 35 -52 45q-35 7 -53 13q-17 4 -26 4q-7 0 -9 -6q-5 -13 -37 -13q-20 0 -67 6q-57 0 -94 -13q-33 -17 -65 -33
q-10 -10 -10 -17q0 -10 37.5 -26t45.5 -32q33 -16 43 -32q14 -21 14 -69q-4 -8 -6.5 -16.5t-2.5 -13.5q0 -15 -1 -18q-4 -12 -26 -35q-16 -23 -45 -35.5t-62 -12.5q-21 0 -38.5 5t-30.5 17q-45 25 -61.5 53.5t-16.5 79.5q0 36 6 89q10 21 10 33q0 5 -2.5 10t-2.5 9
q0 6 2 12.5t10 20.5q24 94 65 106q29 21 44.5 30t21.5 9q3 0 10 -3t16 -3q13 0 43 10q20 14 41 22t51 8q26 0 38 -1.5t44 -6.5q13 -9 23 -13.5t21 -4.5q6 0 26 5t41 5t31.5 -1.5t35.5 -6.5q29 13 68 13q17 0 62 -1t66 -1q61 -27 68 -35q16 -19 29 -104q16 -26 22 -41.5
t6 -26.5q-1 -11 -1 -19q0 -3 2 -15q0 -160 8 -234l20 -96q0 -7 -1 -13q1 -14 -2 -33.5t-3 -24.5q0 -14 4.5 -31.5t16.5 -40.5q-4 -28 -4 -55q0 -39 8.5 -65.5t18.5 -52.5q0 -11 -18 -28q17 -21 25 -34q16 -26 14 -51q15 0 32 29q36 60 60 92q71 75 83 105q19 46 40 65
q57 106 85.5 112t44.5 51q35 17 40 38.5t20 36.5q32 75 80 100q39 20 58 99q84 62 96.5 106t62.5 85q3 33 20 46q5 4 17 7q19 19 36.5 31t38.5 17q22 -10 23 -11q18 -8 26 -8q12 0 42 21q20 0 29.5 -6t17.5 -11q5 -1 18 -1q14 0 40.5 1.5t27.5 1.5q35 0 56 -11.5t21 -43.5z
" />
    <glyph glyph-name="N" unicode="N" horiz-adv-x="1596" 
d="M2521 -343l-56 -28q-21 -13 -31 -18q-23 -11 -48 -23t-37.5 -17t-33 -7t-25.5 -4q-95 -36 -181 -52q-28 -4 -67 -7t-69 -3q-16 0 -37 -3q-50 -7 -62 -7q-10 0 -46 8.5t-41 8.5q-9 0 -34 -10q-13 -5 -19 -4q-26 4 -55.5 14.5t-57.5 20.5q-74 23 -75 23q-38 13 -67.5 29.5
t-58.5 34t-55 35.5q-6 4 -15 15q-23 28 -26 30q-38 21 -75 41q-28 26 -55.5 53t-53.5 56l-26 30q-17 20 -25 31q-3 4 -7 17.5t-7.5 18.5t-17.5 16q-7 6 -11 10l-22 34q-25 36 -30 43q-14 21 -18 29q-17 37 -34 75q-8 15 -22 36.5t-26 41.5q-3 5 -4 28t-3 27q-5 12 -17 15
t-16 13.5t-9 32.5q-9 43 -12 52q-16 34 -31 68q-16 56 -31 112q-1 7 -7 14q-15 20 -16 24q-5 19 -8 51.5t-6 45.5t-7 45.5t-6 43.5t-10.5 32t-11 32.5t-4.5 24t-2 25.5q0 4 2 17t1 17q0 11 -4 17q-7 11 -9.5 19t-6.5 29q-3 24 -4 31q-4 3 -5 5q-5 6 -5 9l-10 -14
q-1 -5 -6 -28t-8 -40q-2 -28 -3 -41t-4 -31q0 -10 -3 -18q-7 -18 -7.5 -21.5t-0.5 -11v-11.5v-29v-11q0 -7 -2 -17q-9 -29 -17 -57q-1 -6 -1 -13v-10q0 -18 -1 -24l-10 -36q-1 -4 3.5 -6t3.5 -8q-1 -4 -6 -17q-11 -27 -11 -34q-2 -10 -2 -20t-2 -23t-6 -28t-6.5 -25
t-2.5 -20v-46q-1 -7 -7 -22t-7 -23l-3 -35l-9 -53q-1 -6 -3 -30t-2 -27q-3 -13 -6.5 -22.5t-7.5 -19.5q-2 -20 -3.5 -33t-7 -26t-12.5 -24t-31 -44q-12 -8 -18 -14t-13 -16q-12 -17 -25.5 -27.5t-37.5 -22.5q-19 -9 -38 -19q-4 -2 -7 0t-8 0q-28 -14 -37 -17q-21 -8 -40 -8
q-22 0 -36 2.5t-35 10.5q-8 4 -31.5 8.5t-35 12t-24 22t-22 29t-15.5 29.5t-6 31q0 7 -4.5 18t-5.5 14q0 9 6 23t9.5 23t14.5 21q5 5 21.5 20t34.5 18.5t30 3.5q16 -2 33 -3q21 -4 29.5 -6.5t16.5 -9.5t13 -18q5 -15 7 -22l12 -40q0 -26 -20 -49q-4 -5 -13.5 -8t-14.5 -6
q9 -8 20 -8h11q14 -1 29 3t26.5 11t22.5 19.5t21 24.5q16 16 22.5 23.5t11.5 17.5q4 5 8.5 20t7.5 21l20 44l5 34l10 60l9 36q2 32 3 46.5t4 36.5v35q0 12 6 33.5t7 27.5l4 41q1 6 7 18t7.5 29t4.5 45q-5 10 -5 15l13 57q7 10 9 15q0 10 -0.5 17.5t-0.5 13.5q0 5 2 19
q7 20 14 41l3 30v24q3 12 10 34.5t7.5 26.5t5 4t5.5 4q0 4 -3 6t-2 7q0 2 6 14t6 15v48q0 7 6 22.5t6 16.5q0 4 -1 11q-4 16 -3 18q3 21 10 38q1 3 4 7q-9 -2 -30 2t-28 3l-34 -7q-4 -1 -12 1q-20 5 -23 4q-5 0 -13.5 -5t-14 -8t-13.5 -3q-9 1 -14 1q-3 0 -10 -2t-14 -6
l-14 -8q-2 0 -4 -6.5t-5 -8.5l-20 -12q-2 -10 -4 -14q-11 -6 -14 -5q1 -3 2 -5q-1 -4 3.5 -7t5.5 -5q1 -14 3 -27q2 -4 10 -11q15 -13 19 -22l10 -10q3 -5 6 -17l8 -5q4 -12 4 -36q0 -3 -5.5 -7.5t-5.5 -7.5q2 -6 5 -12q-8 -31 -30 -56q-14 -16 -19 -20q-19 -16 -41 -21
q-6 -2 -11 -2q-6 0 -17.5 2.5t-17.5 3.5t-14.5 3.5t-14.5 7.5q-20 15 -36 41q-9 7 -17 14q0 17 -2 23q-5 16 -10 39t-5 37v10q2 7 2.5 10t0.5 10q0 10 -2 20t-3 18q-1 4 4 14t5 13q-3 19 -5 39q1 5 5 9.5t8 9.5l22 39l16 26v15t4 11t10 6.5t13 5.5l17 1q4 11 9 22
q11 5 24.5 10t24.5 6q12 -3 24 -5q11 0 20 2.5t16 5.5q25 12 72 21q14 3 31.5 6.5t31.5 3.5q17 0 24.5 -1.5t16.5 -6.5t13 -4q12 0 36.5 8.5t40.5 8.5q2 -1 5 2q5 0 15 -4q29 -12 52 -12q7 0 23.5 6.5t20.5 7.5q47 0 65.5 -3.5t31.5 -6.5q3 -52 7 -103q1 -4 10.5 -13.5
t10.5 -13.5q1 -5 -1 -21.5t-3 -29.5v-14q0 -8 -0.5 -16t-0.5 -16q0 -13 1 -19.5t7 -21.5t7 -22q13 -57 27 -113q1 -2 -13 -9q-8 -4 -7 -8q1 -3 14 -1.5t13 -1.5l14 -82q1 -5 7 -17t6 -18q4 -15 6 -19q7 -16 8 -18v-27q5 -18 13.5 -36.5t17.5 -35.5q2 -8 5 -36t5 -36
q3 -6 13 -23t14 -28q15 -46 31 -92q2 -5 6 -8q14 -11 15.5 -14t2.5 -21.5t4 -26t20 -26.5q12 -13 15.5 -20t10 -28.5t8.5 -26.5q10 -24 21 -48l22 -34q0 15 8.5 41t9.5 38l14 130l31 119q2 8 3.5 33t3.5 32q6 23 20 55q21 48 24 57q3 17 7.5 35.5t9.5 33.5l44 92l24 61
q7 17 20 40q18 33 21 39t9 24.5t12 29.5q10 20 28 48t26 41q13 19 22 34q13 21 22 32t23.5 22t28.5 21q20 16 30 23q16 11 31 18q41 20 96 28q11 0 31.5 9t29.5 8q13 -3 31 -14q26 -17 31.5 -19t25 -6.5t28 -8t20.5 -13t15 -11.5q15 -11 28 -28t26 -33q17 -23 24 -34
q13 -20 16.5 -33.5t4.5 -30.5t1 -32v-14q0 -10 -1 -21t-3.5 -19t-9 -16.5t-8.5 -14.5q-11 -43 -16 -53t-18 -19q-28 -22 -72 -22q-12 0 -24 -1t-23 -2q-16 0 -30 4.5t-29 17.5q-10 9 -23 27q-10 11 -14.5 20t-4.5 26t7.5 27t14.5 19q3 4 6 19.5t8 18.5q10 6 18.5 8.5
t22.5 4.5v18t1 18q0 18 -4 27.5t-14.5 17.5t-23 14t-17.5 8q-14 5 -34 5q-6 0 -22 2t-24 2q-10 0 -21 -3.5t-25.5 -17t-27.5 -26.5q-15 -12 -30.5 -38t-30.5 -51q-9 -12 -19 -31t-19 -36t-20 -38.5t-17.5 -37.5t-16.5 -57.5t-18 -62.5l-34 -92q-2 -6 -11.5 -9t-12.5 -11
l-6 -45q-12 -65 -24 -129q-14 -40 -28 -79q-10 -36 -21 -100q-14 -79 -20 -108q-11 -52 -17 -81q-12 -58 -17 -85q9 -14 45.5 -60t45.5 -59q16 -23 52 -51q43 -34 53 -45q20 -20 56 -44q28 -18 57 -37q18 -13 55.5 -23.5t47.5 -14.5q86 -39 191 -50q9 -2 26 -2t28 -1
q35 0 79.5 5t77 8.5t74.5 14.5t62 13.5t37.5 4t35.5 5.5q28 4 52.5 9.5t51.5 11.5q14 9 31 9q14 0 28.5 -5t30.5 -14q7 -16 10 -18t10 -2q17 0 18 -1q13 -14 13 -28q0 -8 -8 -18z" />
    <glyph glyph-name="O" unicode="O" horiz-adv-x="1299" 
d="M1307 852q-3 -15 -8 -15t-7 -13q-1 -4 2 -10q8 -17 6 -24l-47 -116q-3 -6 -3 -14q4 -15 4 -25q0 -15 -12 -39q-9 -27 -18 -53q-6 -10 -10 -24t-9 -31q-5 -11 -14 -25t-17 -26q-11 -28 -16.5 -52t-8.5 -28l-45 -45q-1 -7 -2 -12q-7 -29 -27 -58q-12 -18 -26 -32t-39 -31
q-6 -11 -14 -21.5t-20 -20.5q-14 -9 -27 -18l-87 -68q-7 -3 -23 -8t-28 -9q-48 -20 -67 -28q-30 -12 -48 -15.5t-30 -3.5q-17 0 -25.5 2.5t-14.5 3.5q-6 -2 -12.5 -10t-14.5 -10q-7 -1 -23.5 0t-22.5 1q-26 0 -45.5 3.5t-65.5 15.5q-2 1 -10 1q-20 0 -39 -1l-38 24l-44 10
q-27 10 -52 22q-31 16 -44 23q-5 3 -20 28q-2 4 -7 11q-30 24 -60 49q-13 14 -23.5 32.5t-17.5 43.5q-1 4 -1 13t-1 14l-5 5q-12 13 -19 26l-20 40q-10 20 -17 23q7 29 7 41q0 7 -8 11t-8 24q-1 7 11.5 59.5t12.5 53.5q-4 14 -5 23q-5 27 -5 48v11q2 7 3 12.5t7 15.5t7 13
l38 172q0 8 11.5 22t22.5 28q18 27 51 69q10 13 27 33q5 14 9 25.5t20 32.5q9 10 14 16q25 29 34 39q2 2 11.5 5t12.5 5q22 22 39 40q44 46 67 63q9 6 46 33q25 18 43 28q5 2 23 5t23 5q11 5 48 22q28 13 39 16q22 6 42 8.5t35 2.5h19q11 0 18 2.5t29.5 5t30.5 5.5
q10 2 17 5t17 3q22 1 25 1q2 0 5 -7t6 -13h111q7 0 21.5 -8t33 -21t32.5 -26q7 -8 15 -15q13 -8 38.5 -16.5t31 -11.5t8.5 -8.5t7 -12.5q13 -13 21 -26q12 -20 24 -51q-1 -1 12 -18.5t18 -27.5q11 -16 16 -25q11 -18 15 -30q4 -7 8.5 -26t7.5 -25q5 -21 9 -50t4 -52
q0 -6 3 -19t2 -20zM1050 881q-6 14 -11 32t-8 46q0 5 -9.5 35t-14.5 64q-1 6 -7.5 16.5t-6.5 21.5h-15q1 4 1 8v6q-1 16 -1 25q-15 0 -29.5 11.5t-21.5 17.5q-22 16 -45.5 33t-46.5 28q-37 17 -76 17q-32 0 -65.5 -11.5t-72.5 -32.5q-38 -23 -63 -41q-33 -23 -37.5 -30.5
t-4.5 -16.5t-4 -14q-3 -8 -14.5 -15.5t-16.5 -13.5q-5 -19 -8 -29q-9 -29 -16 -40q-2 -4 -18 -10t-18.5 -9t-8.5 -16.5t-14 -30.5q-20 -40 -40 -79q-8 -19 -16.5 -45.5t-15.5 -49.5l-24 -67q-1 -5 2.5 -19t3.5 -20q0 -10 -4 -17q-16 -36 -21 -72t-5 -89q0 -10 4.5 -33.5
t4.5 -27.5q2 -8 -3 -26t-4 -22q1 -6 11 -19t11 -18q7 -24 13.5 -41.5t5.5 -18.5q4 -1 11 -18t23 -42l34 -37l29 -31q13 -18 28.5 -28.5t31.5 -15.5q6 -2 23.5 1t22.5 2q10 -3 37 -15q21 -9 30 -9q17 0 36.5 2.5t38.5 7.5q1 1 9.5 10t13.5 11q18 6 31 10.5t38 16.5
q24 14 41 29q3 2 7.5 8.5t9 14.5t10.5 20q1 11 3.5 22.5t8.5 19.5q14 22 38 44q38 35 40 37q17 19 31 45q2 4 5 11q16 27 22 55q5 31 11 63q2 4 12.5 18.5t12.5 23.5q1 15 2 40t1 26q0 14 -1 15l27 128q-3 3 -7 10.5t-6 9.5l3 14q5 -1 10 5q-5 5 -5 16q0 10 8 37t8 36z" />
    <glyph glyph-name="P" unicode="P" horiz-adv-x="1330" 
d="M1283 1021q0 -19 -17 -58q-7 -17 -14 -33q-10 -20 -20 -36q-9 -21 -17 -41q-7 -10 -14 -18q-3 -3 -17 -16q-4 -4 -11 -18t-12 -19l-58 -48q-9 -3 -18 -3q-13 1 -19 1h-6q-4 -2 -5 -2q-4 -5 -8 -8q-13 -12 -33 -22q-17 -10 -41 -21q-9 -4 -48 -20l-51 -24q-12 -9 -24 -17
q-17 -4 -20 -4h-11q-6 4 -12.5 5t-12.5 2q-11 0 -20 -7t-13 -6q-22 2 -35 18t-38 16q-8 0 -15.5 -9.5t-10 -13.5t-2.5 -13v-17q0 -6 -1 -9l-24 -78q-1 -6 1.5 -25t1.5 -23q-2 -8 -11.5 -18t-11.5 -23t-4 -32.5t-7 -42.5q-10 -43 -20 -85q-5 -18 -20 -54q-4 -10 -4 -16
q0 -30 20 -33q6 -2 20 -2q6 0 20 1t20 1q22 0 22 -13q3 -15 3 -25t-2.5 -15t-14.5 -17q-7 -7 -10 -12l-33 -44q-16 -21 -21.5 -23t-13.5 -3t-14 -1q-16 -2 -44.5 -2.5t-40.5 -1.5q-85 0 -126 7q-18 5 -33 11q-5 2 -13 6q-5 0 -12.5 -3.5t-10.5 -3.5q-12 0 -24.5 3.5
t-19.5 3.5q-8 0 -30 -2t-23 -2q-15 0 -22 4q-20 20 -29 30q-29 32 -29 45q0 19 15 35q6 6 12.5 13.5t16 10t24.5 2.5h15q18 0 26.5 1.5t21 9t19.5 10.5q14 7 21 17q1 2 17 28q13 21 17 37q-1 19 -1 30q0 7 1 11q3 3 4 5q6 8 9 17.5t10 42.5q4 19 8 31q10 13 20 27
q3 9 6.5 20.5t10.5 44.5q3 20 7 41q7 23 14 38.5t13 29.5q31 68 36 78q17 39 22 62q6 20 8 37.5t2 32.5q0 20 -2.5 30.5t-3.5 18.5q2 6 7 12t6 9q5 18 11 37q12 26 25 43q4 5 12 12q1 2 -1.5 19.5t-2.5 24.5q0 11 1 18t10 21q23 36 24 43q2 7 -4 24.5t-6 23.5q2 21 8 37
t7 18q-7 8 -11.5 12.5t-9.5 4.5l-18 -11l-74 -22q-30 -6 -59 -12q-23 0 -57.5 4.5t-38.5 4.5h-9q-4 -2 -5 -2q0 -3 -1 -8t-12 -12q-23 -14 -45 -28q-16 -11 -27 -23q-27 -25 -27 -50q0 -13 4 -21.5t6 -14.5q8 -25 12.5 -34.5t11.5 -16.5q48 -23 70 -35q39 -22 39 -91
q0 -19 -9 -40.5t-25 -38.5q-3 -3 -9.5 -6t-14.5 -7l-14 -14q-13 -5 -30 -5q-17 1 -26 1q-8 0 -16 0.5t-20 6.5q-22 11 -45.5 33.5t-34.5 41.5q2 18 2 32q0 12 -3 21t-11 20.5t-10 15.5q-12 20 -24 41q-10 23 -18 52q-1 4 -3 11q0 25 1.5 32.5t9.5 27.5q1 5 6 11q13 18 14 20
q38 80 39 83q11 20 17 26q20 18 42 25q17 3 35 6q4 3 13.5 11.5t17.5 15.5q1 1 4 9.5t6 9.5q4 1 21 -1t24 -1t21 6.5t23 7.5q28 3 106 9q20 1 54 4q22 8 45 17q3 1 11 1q28 -2 57 -4q8 1 16 7t23.5 7.5t39 3.5t44.5 2q3 0 10 -5t10 -5q6 0 15 7t13 7l65 -4q55 0 105 -10
q5 -1 18 -1h23t19.5 -3t21 -8.5t21.5 -11.5q11 -4 32.5 -6t30.5 -6t17 -15t13 -14t13.5 -13t19.5 -21q4 -2 14 -3t13 -4q20 -14 30 -22q21 -16 27 -23t11 -18.5t11 -24.5q17 -30 27 -58.5t10 -57.5zM1072 1009q0 30 -5.5 60t-15.5 51q-4 7 -13 12.5t-14 10.5q-9 11 -19.5 23
t-18.5 18q-21 15 -44 20.5t-38.5 8t-33.5 2.5q-32 0 -48 -7.5t-21.5 -20t-9.5 -46t-13 -57.5l-24 -60q-5 -5 -9 -7q-10 -6 -11 -10q-2 -6 3.5 -22.5t3.5 -21.5q-5 -15 -10 -30.5t-6.5 -24t-7.5 -17t-7 -10.5q-5 -23 -10 -45q-4 -19 -10 -55.5t-12 -55.5q8 -2 16.5 -10
t12.5 -8q4 -1 16 4.5t19 5.5q8 0 25.5 -2t20.5 -2q12 1 19 4q16 6 33 13q14 4 31 17q23 18 25 19q39 16 68 31.5t46 33.5q2 2 3 4q5 10 11 29q2 6 7 26t7 25l17 41z" />
    <glyph glyph-name="Q" unicode="Q" horiz-adv-x="1415" 
d="M1744 -445q-10 -12 -19.5 -25.5t-21.5 -24.5q-29 -4 -53 -18q-40 -24 -46 -26q-46 -20 -66 -28q-36 -15 -66.5 -22t-65.5 -9.5t-59 -2.5q-31 4 -133 7.5t-181 26.5q-48 14 -51 15q-11 4 -27.5 11.5t-27 13.5t-19 10.5t-22 10t-28.5 11.5q-92 36 -131 52q-67 28 -123 68
q-39 32 -78 63q-15 8 -33 14t-39 10q-15 16 -30 31q-21 16 -55 30q-11 2 -19 7q-27 18 -29 19q-10 5 -24 19t-18.5 12t-40 20.5t-42 21.5t-41 5.5t-44.5 6.5q-29 0 -41 5.5t-29 25.5q-24 27 -24 58q0 12 7.5 31t10 22.5t10.5 8t18 4.5q14 -1 22 -1h41q7 -1 42 -15
q15 -6 27 -6q11 0 28 4.5t23 4.5q3 0 11 -2t16 -8t14 -6q8 1 13.5 10.5t5.5 20.5q0 9 -4 10l-56 68q-2 4 -10.5 9.5t-10.5 8.5q-7 10 -13 33q-2 8 -4 9q-17 17 -25 31t-11 26.5t-4 22.5t-1 17q0 17 3 30q0 2 2 6q0 4 -12 23t-15 22q2 12 5.5 31t3.5 49q0 2 -3.5 21.5
t-3.5 29.5q-1 11 2 31t3 24q0 7 1 25t1 28q0 29 11.5 49t11.5 29v116q3 9 13 20q6 7 13 14q2 12 -2.5 13t-4.5 3q0 6 3 13.5t9 17.5l12 20q26 58 58 102q18 25 36 51q11 14 29 31t26 24q11 12 27 26l24 20q23 31 43 50q15 14 32 27l11 11q7 7 11.5 8.5l49.5 16.5q22 7 34 13
q1 1 21.5 15t41 25t32.5 16q30 14 38 14h111q7 7 13 16q3 4 5 4q8 -1 24 -1q10 0 18 -3.5t21.5 -5.5t26.5 -4t20 -5t19 -3h16q24 0 37 -1.5t34 -8.5t43.5 -20t32.5 -19l40 -10q17 -12 32.5 -28t32.5 -33q13 -15 24 -34q18 -35 37 -69q2 -2 10 -5t10 -5q7 -14 17 -38
q2 -6 7.5 -20t5.5 -28q-1 -14 -1 -27q9 -20 13 -32q14 -39 22 -70q7 -19 10.5 -31t2.5 -19l-37 -172q-1 -4 1.5 -15t1.5 -16q-5 -20 -27 -58q-7 -12 -21 -34q-8 -44 -14 -75.5t-10 -37.5q-9 -19 -20 -23.5t-22 -52.5q-6 -2 -25 -22.5t-36 -39t-29 -27.5q-3 -2 -9 -5
q-5 -5 -9.5 -14.5t-6.5 -12.5q-16 -24 -35 -44q-14 -15 -36 -32q-12 -10 -40 -26q-20 -12 -40 -23q-12 -11 -18 -17q-20 -19 -27 -22q-34 -14 -54 -22q-40 -16 -62 -23q-6 -2 -23.5 -5t-25 -5t-23 -12t-23.5 -12q-5 -1 -18 0t-20 1q-8 0 -12 -1q-34 -8 -65.5 -13.5
t-52.5 -5.5q-13 0 -27.5 -1t-18.5 0q-11 2 -25 8q-8 -1 -18 -1q-8 0 -19.5 2.5t-26.5 7.5q-7 3 -19 0t-23 -12q8 -1 11 -3t13 -4q24 -15 38 -22q18 -6 37 -12q12 -28 52 -38q61 -15 71 -20q32 -21 65 -43q28 -18 42 -18q8 0 16 6q39 -21 59 -30q37 -17 60 -28q26 -31 58 -36
t51 -15q29 -44 57 -61q35 -15 59 -28q19 -10 63 -23q23 -7 40 -14q9 -4 49 -26q21 -12 33 -15q20 -7 43 -10q1 0 45 -4q19 0 49 -1t49 -1q33 3 42.5 4.5t79.5 16.5l80 18q40 11 66 28q8 -8 9.5 -20t3.5 -24zM1150 853q0 24 -2.5 42t-4.5 37v30v16q-1 4 -15.5 10t-14.5 10
q-2 11 4 50q1 6 3 19q-2 4 -11 12t-10 17q0 4 4.5 13t2.5 16q-2 8 -25 31q-17 17 -47 42q-29 22 -56.5 33t-61.5 11q-39 0 -81 -17q-24 -9 -62 -29q-29 -15 -58 -32q-11 -7 -27 -16q-23 -13 -38 -13q-2 -10 -7 -20t-10 -19h-15q-3 -11 -14 -22t-13 -16q-17 -28 -35 -52
q-32 -42 -34 -47q-16 -33 -26 -48q-12 -15 -23 -30q-2 -5 -8 -42.5t-20 -46.5q2 -6 7 -5l-3 -14l-21 -20l-27 -128q-4 -3 -18 -42q-4 -13 -14 -39q-2 -10 1.5 -24.5t3.5 -17.5q0 -8 -9 -38t-9 -54q0 -17 2 -26q1 -13 3 -27.5t9 -28.5q2 -3 24 -37q16 -24 21 -44
q2 -12 -1 -22.5t-6 -19.5q3 -28 5 -36q5 -7 8 -11q11 -14 26 -25q8 -6 24.5 -13.5t30.5 -13.5q5 -2 9.5 -10.5t7.5 -10.5q15 -6 40.5 -8t27.5 -2q10 0 40 11t37 13q23 -2 46 -3q23 6 47 21q18 11 30 23l42 31l52 37q30 28 46 50q7 9 12 10q10 12 21 27q15 20 23 33
q2 2 18 16t20 20.5t6 23.5t6 25q12 18 19 29q13 20 18 32q22 48 32.5 84.5t10.5 76.5q-1 9 7 24t18 32q1 9 2.5 26t1.5 41q2 23 5 49t3 46z" />
    <glyph glyph-name="R" unicode="R" horiz-adv-x="1321" 
d="M1418 -177q0 -29 -27 -61.5t-58 -32.5q-10 -6 -17 -6q-5 0 -8.5 3t-6.5 10q-8 19 -9 20q-10 1 -19 2q-2 2 -4 12t-4 13q-45 45 -83 87t-59 72q-17 27 -25 48q-4 13 -7 27q-37 37 -73 80q-42 51 -64 91q-3 5 -67 138q-67 140 -70.5 152t-9.5 37q-9 36 -10 48.5t-3 25
t-14 20.5q-4 3 -23 5t-25.5 3.5t-22.5 12t-30 10.5q-5 0 -7.5 -8t-8 -9t-13 -2.5t-11 -11t-3.5 -24.5q0 -12 1.5 -33.5t1.5 -23.5v-11q-2 -8 -2 -12q-12 -15 -15 -20.5t-3.5 -14.5t-0.5 -14v-18q0 -11 -2 -16.5t-12 -24t-15 -32.5q0 -139 -21 -151q-10 -6 -10 -21
q0 -72 78.5 -84t78.5 -39q0 -28 -14.5 -45t-40.5 -27q-9 1 -52 -13q-22 -7 -35 -7q-4 10 -48.5 17t-131.5 7l-31 1q-11 3 -19 4q-24 4 -50 4q-16 0 -30 -1t-29 -5q-18 0 -44 -5q-8 -1 -23 -5q-21 -4 -39.5 13.5t-18.5 37.5q0 43 69 60q77 10 90 13q41 12 48 47q11 55 25 75
q26 37 62.5 137t53.5 175q9 13 13.5 26t4.5 21q-1 11 -1 16q0 51 31 114q21 43 43 87q9 35 14 64q2 14 6 51q1 3 9 7t8 6q1 3 -4.5 9.5t-5.5 8.5q0 19 1.5 29t5.5 20q24 45 36 72q37 82 37 124q0 24 -8 29t-36 5q-11 -4 -17 -6q-19 -8 -26 -17q-51 0 -126 -14.5t-80 -20.5
q-12 2 -20 2q-73 0 -148 -52q-83 -58 -83 -130q0 -28 87 -95q41 -31 41 -71q0 -46 -27 -81t-58 -30q-35 7 -63 30q-66 56 -71 57q-7 10 -13.5 45t-20.5 46q-3 17 -3 36v13q0 91 29 155q26 57 78 98q20 15 37 26q45 29 71 29q4 0 12 -2q23 9 65 23.5t68 23.5t48.5 22.5
t33.5 13.5h36q11 -4 17 -5q23 -6 37 -6q19 0 29 6h168.5h106.5q93 0 191 -24q21 -8 56 -19q18 -6 74 -20q27 -11 54 -22.5t45 -28.5q6 -6 13 -22.5t16 -35.5q28 -42 40 -71q16 -39 16 -83q0 -45 -18 -75q-9 -19 -13 -29q-9 -19 -18 -29q-13 -16 -37 -36q-71 -58 -83 -70
q-18 -22 -35 -44q-15 -11 -36 -17t-37.5 -10.5t-59.5 -15.5q-34 -8 -43.5 -11.5t-16.5 -5.5q-5 -3 -5 -12q8 -24 14 -40q15 -41 37 -95q6 1 17 -30q8 -25 17 -50q9 -18 62 -84q40 -49 40 -84q0 -19 -12 -42q32 -15 44 -28t12 -26q0 -8 -6.5 -18.5t-4.5 -12.5t20.5 -12.5
t37.5 -26.5q28 -5 44 -35q13 -29 27 -58q24 -39 36 -67t12 -39q0 -7 -3 -10q28 -9 56 -19q46 -16 46 -57zM1121 1038v17.5t1 19.5q0 25 -6 38q-7 3 -13 7q-8 20 -11 27t-12 22q-6 13 -10 20t-11 13t-23 11t-24 9q-26 0 -47 6q-48 14 -54 14q-33 0 -64 -25q-22 -17 -31 -22
q-13 -21 -18 -50q-2 -27 -4 -53q-5 -4 -9 -8q-18 -18 -29 -50q-3 -9 -5.5 -28.5t-2.5 -41.5q-31 -39 -37 -61q-2 -22 -6 -39q-10 -37 -18 -67.5t-8 -40.5q0 -36 20 -54.5t74 -18.5q31 0 64 15.5t49 42.5q46 13 69 27q13 8 16 20q14 10 58 28q25 10 31.5 14t7.5 13t5 12
q18 14 30 32q5 18 7 28q8 35 8 51q1 13 1.5 37.5t1.5 34.5z" />
    <glyph glyph-name="S" unicode="S" horiz-adv-x="790" 
d="M961 1181l-4 -36q-18 -113 -35 -179.5t-55 -66.5q-32 0 -49 23.5t-21 62.5q10 13 10 33q0 14 -8.5 42.5t-8.5 40.5q-14 69 -52 98q-33 25 -93 25q-35 0 -67.5 -7.5t-60.5 -23.5q-35 -11 -51.5 -42t-16.5 -76q6 -57 25.5 -113.5t42.5 -77.5q12 -19 35 -53q34 -49 37 -54
q4 -18 7 -30.5t24 -24.5q7 -14 15 -28q15 -26 34 -44q0 -15 7 -28q12 -19 24 -37q1 -11 3 -23.5t12 -22.5q3 -10 5 -59.5t12 -59.5l5 -65q0 -51 -21 -104.5t-57 -102.5q-24 -26 -35 -40q-22 -26 -22 -43q-50 -28 -99 -55q-3 -1 -13.5 -1h-17.5h-29.5t-22.5 1q-31 0 -83 -13
q-28 -7 -40 -7q-16 0 -33 5q-2 1 -18 7q-62 2 -110 5.5t-66 11.5q-8 3 -15 6q-18 9 -26.5 19.5t-13 19.5t-6.5 25q4 24 5 36t1 22t-4 20t-4 31q0 14 6 31t18 42q1 3 7 5.5t9.5 8.5t6 20.5t4.5 25.5l24 120q22 54 58 54q23 0 37 -22q11 -18 11 -39l3 -121q0 -65 31 -93
q21 -19 54 -19q10 0 14.5 0.5t8.5 1.5q12 -16 21 -23q31 -24 73 -24q49 0 79 9q40 12 37 40q19 8 35 30.5t16 30.5q2 17 2 32q0 10 -1 20.5t-5 23.5q-8 8 -23.5 43t-23.5 44q1 8 1 12q0 34 -21 74q-26 41 -33 54q-20 13 -40 27q-42 46 -58 54q-7 9 -14 43q-2 11 -6 31
q-28 23 -50 48q-25 28 -37 54q-4 11 -5 22t-1 30v38.5t1 44.5q0 72 1 101t4 49q21 28 35 48q18 25 33 68q107 110 324 110q90 0 109.5 -1.5t54.5 -10.5q13 -15 37 -25q58 -24 71 -30q22 -21 34 -44.5t12 -54.5z" />
    <glyph glyph-name="T" unicode="T" horiz-adv-x="952" 
d="M1427 1294q0 -35 -27 -63q-38 -40 -118 -40q-64 -18 -69 -19q-43 -10 -87 -10q-53 0 -96 12q-37 13 -74 27q-59 -42 -84 -93q0 -22 -4 -36t-20 -33q3 -12 3 -24q0 -15 -4 -28.5t-9 -22.5q-8 -16 -19.5 -43.5t-19.5 -50.5q-3 -32 -16 -67q-31 -84 -34 -93l-75 -217
q0 -46 -22 -93l-36 -76q-8 -25 -16 -57q-12 -50 -18 -60q0 -48 107.5 -55t107.5 -80q0 -17 -16.5 -27t-56.5 -10q-24 1 -26 1h-130q-40 -14 -97.5 -25t-125.5 -11h-25q-38 0 -68 2.5t-57 11.5q-47 13 -47 41q0 3 7 10l14 14q14 17 20 24q17 20 32 29.5t41 14.5t32 7
q36 14 57.5 40t30 85t25.5 95q24 51 38 107q10 12 15 19q11 14 13 19t2.5 11t1.5 11v14t3 20q7 37 40 121q16 42 33 84q2 5 0 14t0 15q4 14 6 20t8 18q32 64 49 111.5t34 97.5q15 12 19 25q3 20 7 40q10 37 10 60q0 17 -17 23q-23 5 -34 9q-17 -12 -69.5 -13.5t-102.5 -8.5
q-6 0 -20.5 4.5t-20.5 4.5q-8 0 -44 -21q-19 -11 -37 -11q-10 0 -22 3q-74 -28 -90 -36q-53 -28 -63 -65q-30 -21 -53 -53q-17 -24 -33 -48q0 -10 55 -64t56 -55q22 -4 36 -7q49 -12 49 -99q0 -35 -23.5 -57.5t-66.5 -22.5q-46 0 -102 52t-56 93q0 7 1 10q-11 10 -18.5 24
t-7.5 36q0 27 23 63q12 19 12 31q0 1 -13 31q-9 20 -11 32q-1 8 3 25t4 24q0 10 -6 19q2 9 5 22t11 26q24 12 33.5 23.5t19.5 24.5q11 8 30 19q29 17 34 20q47 6 68 26q11 11 26 15q50 13 102 22t120 9h224l63 8q7 -6 19.5 -8t15.5 -2q19 0 42 8q7 2 20 9h135q9 7 15 7
q13 -10 54 -17t100 -7q94 0 152 25q30 13 48 13q22 0 45 -13q30 -17 30 -40z" />
    <glyph glyph-name="U" unicode="U" horiz-adv-x="1509" 
d="M1505 819v-39v-14v-13q0 -22 -1 -44t-4 -43q-5 -54 -16 -105q-5 -22 -25 -101.5t-23 -90.5q-7 -23 -22.5 -51t-48.5 -65l-54 -58l-36 -72q-23 -21 -96 -50q-46 -18 -59 -25q-33 -24 -65 -48q-36 -14 -84 -15.5t-84 -1.5q-17 0 -43 -2.5t-29 -2.5q-16 0 -23 2q-10 0 -20 5
q-29 15 -31 15q-77 7 -127 31q-40 18 -64.5 40t-51.5 59q-26 29 -51 58q-7 17 -12 36t-11 43.5t-13.5 67t-8.5 52t-9 62.5q-11 78 -11 121q0 84 28 184q12 49 18 76q12 51 23 75q2 3 21.5 25t22.5 29q7 15 27 67q14 34 24 56q26 45 46 69q3 4 9 10q-11 2 -37 -3.5t-42 -7.5
q-1 0 -30 10q-14 5 -18 4q-14 -3 -26 -3q-6 0 -18.5 1t-18.5 1t-18 -2q-31 -16 -62 -31q-20 -4 -42 -21t-33 -41q-5 -10 -5 -24q0 -8 2.5 -20.5t5.5 -23.5q6 -38 9.5 -45.5t16.5 -17.5q4 21 19 35t37 14t35 -18t13 -43q0 -14 -4 -28t-12 -19t-22.5 -7t-27.5 -2h-24t-23 1
q-19 0 -33.5 4t-30.5 20q-5 5 -8.5 19t-5.5 19q-16 17 -31 34q-8 13 -10.5 25.5t-2.5 32.5v34q0 36 12 67.5t35 58.5q4 4 12 4h13q8 0 10 2.5t11 25.5t13 27t17 8q31 10 34 12q47 30 93 44q54 17 118 17q12 7 21 13q19 13 34 15q10 2 29.5 -6.5t28.5 -7.5q38 3 48 3.5
t35 0.5q21 0 33.5 -0.5t53 -4t67.5 -16.5t27 -37q0 -18 -18 -45q-5 -7 -15 -24q-22 -37 -25.5 -43t-20.5 -11t-21 -11q-12 -16 -25 -39q-9 -17 -20 -39q-4 -13 -8 -24.5t-10.5 -21t-19 -14.5t-16.5 -12q-10 -16 -15.5 -53.5t-12.5 -52.5q-1 -3 -13.5 -10.5t-13.5 -9.5
l-7 -41q-10 -21 -19 -80.5t-11.5 -69.5t-17.5 -43q-10 -22 -10 -56q0 -61 4 -102.5t18 -73.5q3 -8 19 -24q39 -39 41 -43q19 -33 49 -53q25 -17 64 -29q7 -2 17 -9q21 -14 31 -14q12 -2 17 -2q8 0 36 4t39 4q30 0 67 12q41 16 59 22q5 2 32 4t30 3q31 13 53 37q15 16 35 49
l45 68q4 7 23.5 16.5t23.5 20.5q10 21 19 77.5t11 64.5t19 43q8 16 9.5 26.5t1.5 31.5q0 23 -1 38q-4 59 -4 61v28q0 77 -3.5 104t-13.5 56q-2 6 -15.5 14.5t-15.5 12.5q-9 40 -13 58q-7 31 -21 51q-3 3 -3 13q0 20 -2.5 23.5t-15.5 6.5t-16 5q-12 8 -24.5 19t-23.5 22
q0 -10 -3.5 -19.5t-10.5 -14.5h-20q-23 -14 -24 -15q-12 -6 -22 -6q-25 0 -44 14t-30 37q-5 11 -6 24.5t-1 27.5q0 17 4.5 34t15.5 26t27 12t52 3q37 0 58 -1.5t48 -12.5q22 -7 53 -31l32 -24q36 -22 56 -48q22 -34 37 -57l76 -108q19 -55 27.5 -116t8.5 -135z" />
    <glyph glyph-name="V" unicode="V" horiz-adv-x="952" 
d="M1321 1268q0 -15 -44 -18t-65 -30q-16 -7 -34 -35q-24 -37 -28 -42q-18 -28 -25.5 -35.5t-13.5 -7.5q-10 0 -14 -4q-43 -59 -66.5 -91.5t-50.5 -55.5q-10 -9 -44 -45q-50 -54 -67 -44v-23t1 -20q0 -24 -10 -39q-5 -8 -21 -12q-40 -10 -45 -18q-18 -24 -41 -48
q-46 -48 -77 -53q0 -31 -21 -53q-16 -17 -46 -26q-43 -85 -75 -112q-13 -11 -63 -31q-5 -6 -13 -13q-15 -13 -16 -14q-3 -14 -15 -31.5t-45 -55.5q-9 -10 -30 -40q-35 -50 -45 -44l-65 -92q-8 -36 -59 -77t-93 -41q-10 9 -14 16q-15 23 -15 49q0 82 17 154t57 124
q20 27 28 55.5t8 76.5q9 9 9 21l-8 48q7 24 20 25.5t18 51.5q14 19 14 32q0 6 -4.5 19.5t-4.5 21.5q0 10 3 20.5t7 19.5q5 19 11 39q14 41 11 43q16 26 23 40.5t7 19.5q0 3 -4 3.5t-7 2.5l12 64q2 8 4.5 25t7.5 29q1 3 12.5 18.5t14.5 36t8 33.5q10 26 10 71
q0 13 -21.5 33.5t-21.5 51.5q0 26 61 37t181 11q78 0 123.5 -18t45.5 -49q0 -14 -10.5 -23.5t-41.5 -9.5q-9 0 -28 1t-27 1q-19 0 -28 -3.5t-20 -27.5q-16 -32 -27 -88q-19 -86 -31 -118q-6 -15 -12 -29v-29q1 -14 1 -29q0 -14 -1 -27t-4.5 -26t-20.5 -60
q-12 -31 -21.5 -57.5t-21.5 -73.5q-21 -83 -23 -85l-3 -70q4 0 11 -5t11 -5q8 -2 34 25q3 3 3 16.5t33 23.5l92 126l50 65q61 37 77 80q8 21 24 33q33 19 45 43q19 37 38 59q4 6 14 16t13 15q42 18 51 46q5 17 6 18l59 94q13 20 47 45q27 20 27 34q0 15 -31 40t-31 42
q0 12 18 16.5t55 4.5q13 0 45.5 -1t50.5 -1q23 0 43 9t32 9q28 0 69 -18q51 -23 51 -50z" />
    <glyph glyph-name="W" unicode="W" horiz-adv-x="1539" 
d="M1705 1268q0 -28 -28 -54q-65 -60 -74 -71q-18 -27 -26 -35t-13 -8q-10 0 -14 -4q-34 -36 -69.5 -73t-79.5 -74q-14 -12 -44 -61q-22 -36 -36 -28q0 -28 -13.5 -37.5t-25.5 -18.5l-36 -56q-18 -24 -41 -48q-46 -48 -77 -53q0 -10 -9 -22q-29 -38 -37 -57
q-68 -45 -100 -81q-52 -59 -59 -62q-4 -5 -12.5 -12.5t-16.5 -14.5q-4 -18 -23 -38.5t-36 -38.5q-7 -7 -41 -60q-26 -40 -35 -34q-20 -31 -39 -61q-8 -35 -74.5 -92t-102.5 -57q-10 9 -14 16q-15 23 -15 49q0 49 47 142t47 141q0 22 7.5 58.5t7.5 68.5q14 14 14 37t3 32
q0 2 8.5 12.5t13.5 64.5q11 14 14.5 23t3.5 18q-1 12 -1 20q0 17 2.5 24.5t11.5 27.5q-7 5 -12 5q-10 -14 -17 -23q-43 -55 -101 -119q-8 -10 -16 -23q-15 -25 -16 -26q-40 -57 -72 -81l-92 -62q2 -13 -1 -18l-8 -8q-2 -2 -6.5 2t-5.5 3q2 -15 4 -29q-5 -7 -10 -7h-11
q-12 -9 -24 -27q-14 -24 -20 -33q-2 -4 -5 -15t-5 -15t-12 -7.5t-12 -6.5t-3 -12.5t-2 -11.5l-46 -75q-6 -10 -10 -7.5t-6 -3t-3 -26t-4 -28.5q-7 -13 -20.5 -25.5t-21.5 -20.5q-11 -12 -21 -24q-14 -9 -30 -13t-35 -4q-23 0 -30 16.5t-7 45.5v29v18t5 29q1 4 9 16t10 24
q1 7 -1 30t-1 29l26 62q2 9 -3.5 24t-5.5 20q0 18 14 45q29 56 32 63.5t7 31t6.5 33.5t6.5 23q9 29 9 42q0 57 -15 101q-17 41 -34 83q0 17 51.5 43t55.5 42q1 5 1 15q0 19 -8 46q-2 9 -8 23q5 2 8 4q20 14 35 42q2 9 29 80q20 53 20 84q0 33 -33 42q-20 2 -39 4
q-9 0 -46 28t-37 35q0 13 27 33t41 20l84 -4q22 -13 50 -13q12 0 33 3.5t28 4.5l182 -5q11 -12 18.5 -23.5t7.5 -20.5q0 -14 -7.5 -23t-42.5 -32q-34 -3 -54 -51q0 -49 -10 -49t-12 -7q-2 -21 -4 -50t-20 -58q1 -8 1 -12q0 -26 -12 -56q-8 -16 -15 -31q-6 -44 -11 -109
q-1 -20 -4 -51q-7 -8 -12 -15q-15 -22 -29 -57q-10 -25 -14.5 -41.5t-4.5 -24.5q0 -6 3.5 -14t1.5 -17q-4 -16 -23.5 -41.5t-19.5 -33.5q3 -11 6 -21q2 2 11.5 4t14 5t15.5 3q10 0 13 2q9 12 21 25q49 59 95 93q31 23 67 80q18 32 49 61q18 17 57 46q29 47 52 76l40 46
q1 5 -1 26.5t-3 31.5q3 13 11 19t12 15q1 5 -0.5 22t-1.5 22q0 14 2.5 31t20.5 40t18 64q0 13 -21.5 33.5t-21.5 51.5q0 26 61 37t181 11q78 0 123.5 -18t45.5 -49q0 -14 -10.5 -23.5t-41.5 -9.5q-9 0 -28 1t-27 1q-19 0 -28 -3.5t-20 -27.5q-16 -32 -27 -88
q-21 -95 -39.5 -160t-18.5 -118q0 -15 -1.5 -35t-8.5 -47q-2 -12 -10 -29q-12 -27 -13 -31q-13 -38 -25 -73.5t-17 -40.5l-4 -70q3 0 11 -5t11 -5q9 -3 35 25q3 3 3 17t32 23q46 63 93 126q21 30 26 36q9 12 23 29q61 37 77 80q8 21 24 33q33 19 45 43q18 36 38 59
q2 3 18 19q3 3 10 12q36 15 47 37q4 13 9 27l60 94q9 15 56 53q17 14 17 26t-41 49q-20 18 -20 33q0 12 18 16.5t55 4.5q12 0 44.5 -1t51.5 -1q22 0 42 9t33 9q20 0 35.5 -19t15.5 -49z" />
    <glyph glyph-name="X" unicode="X" horiz-adv-x="1210" 
d="M1321 1268q0 -15 -44 -18t-65 -30q-16 -7 -34 -35q-24 -37 -28 -42q-18 -28 -25.5 -35.5t-13.5 -7.5q-10 0 -14 -4q-43 -59 -66.5 -91.5t-50.5 -55.5q-15 -13 -38 -58q-17 -32 -31 -24q0 -28 -28 -44q-39 -23 -40 -24q-5 -8 -15 -17q-30 -28 -33 -31q7 -15 7 -27
q-3 -15 -3 -22q0 -8 4 -16t18 -22q7 -17 33 -124q10 -42 16.5 -57.5t29 -41t44.5 -48.5q5 -23 5 -32q-4 -6 -4 -10q0 -7 8.5 -29t44.5 -105q23 -56 45 -87q17 -25 28.5 -29t24.5 -4q5 0 16 1t15 1q13 0 21 -6t13 -26q2 -10 2 -14q0 -31 -41 -44q-28 -9 -64 -9h-82
q-92 0 -108 1q-79 5 -85 30q-2 10 -2 15q0 23 26 48t22 39q-11 45 -19.5 63.5t-17 38t-8.5 39.5q0 4 1.5 21.5t-0.5 21.5q-6 10 -29 14t-27 15l-26 64v3q9 -1 9 2q0 4 -9 17.5t-34 43.5q3 2 -19 42l-20 40q-16 -22 -35.5 -43.5t-33.5 -28.5q-32 -19 -37 -38q-8 -31 -29 -55
q-5 -8 -19 -39t-17 -35q-12 -30 -32 -47l-24 -18q-9 -15 -31 -36q-50 -49 -56 -58q-2 -2 -37 -48q-16 -21 -16 -37q0 -7 34 -13t34 -62q0 -12 -18 -16.5t-55 -4.5q-12 0 -44.5 1t-51.5 1h-45.5t-39.5 -1h-15.5t-17.5 -1q-34 0 -51 8q-25 12 -25 44q0 15 44 18t65 30
q16 7 40 46q13 22 21 30q19 29 26.5 36.5t13.5 7.5q9 0 13 4q59 73 118 147q15 13 44 54q52 74 53 74q8 -2 34 25q3 3 3 16.5t33 23.5l92 126l29 38q-2 8 -4 15t-8 17q-29 48 -47 79.5t-21 39.5q-8 18 -14 40.5t-10 43.5q-7 31 -19 49q-18 29 -61 127q-24 58 -42.5 84.5
t-30.5 31.5q-30 6 -60 13q-14 8 -21 38q-2 10 -2 15q0 17 12 25q16 11 55 11q21 -1 29 -1h80q163 0 169 -31q3 -14 3 -23q0 -18 -12 -40t-12 -31q0 -6 1 -9q9 -38 15 -52q11 -24 23 -48q10 -25 24.5 -40.5t15.5 -17.5q6 -10 11 -23t12 -32l25 -63q-1 -2 -3.5 -3t-5.5 -1
q0 -5 8.5 -18t33.5 -43q11 9 30 46q11 20 31 43q4 6 14 16t13 15q42 18 51 46q5 17 6 18l59 94q13 20 47 45q27 20 27 34q0 15 -31 40t-31 42q0 12 18 16.5t55 4.5q13 0 45.5 -1t50.5 -1q23 0 43 9t32 9q28 0 69 -18q51 -23 51 -50z" />
    <glyph glyph-name="Y" unicode="Y" horiz-adv-x="770" 
d="M1190 1213q2 -6 2 -20q0 -24 -13 -55q-1 -3 -11 -29t-23 -39q-9 -10 -26.5 -18.5t-30.5 -11.5t-17 -3.5t-11 -0.5q-13 0 -27.5 7.5t-23.5 15t-16 16.5t-13.5 19t-6.5 17q-1 3 -1 10q0 5 2 18.5t2 14.5l-30 16t-28 8q-8 0 -20.5 -6t-25.5 -15q-21 -16 -31 -24
q-19 -15 -32 -42q-7 -14 -18.5 -28t-26 -26t-15.5 -15q-5 -11 -11 -20t-9.5 -12t-10.5 -15.5t-15 -32t-14 -34.5q-10 -24 -21.5 -53t-14.5 -40.5t-5.5 -19t-7.5 -20.5l-20 -38q-2 -5 -2 -14l2 -34q-3 -11 -14.5 -26t-13 -22t-1.5 -13q0 -8 5 -24.5t3 -26.5q-2 -16 -13 -40
q-3 -8 -11 -22l-22 -104l-10 -30l-21 -168q-1 -10 -2 -19q5 -9 11 -17q3 -5 20.5 -14t20.5 -11.5t29 -10.5q56 -18 59 -22q4 -3 7.5 -9t13.5 -26q3 -6 -2.5 -21t-9.5 -27q-2 -13 -13.5 -21t-20.5 -8l-178 10q-6 1 -16.5 1h-17.5q-13 0 -28.5 -0.5t-34.5 -0.5
q-4 0 -17.5 -8.5t-21.5 -6.5q-12 5 -22 8t-24 2l-123 -12q-17 0 -31 9t-20 23q-3 6 3 23.5t7.5 24t4 16t7.5 15.5q9 9 19 13.5t27 10.5q3 1 31 7l56 12q5 0 23 10q9 5 13 5q2 13 12 33q6 13 13 44q8 16 13.5 39.5t5.5 50.5q-2 11 -2 19q0 11 7 24q2 3 4 17t5 20q-1 13 -1 22
q0 5 1 9q0 10 1.5 17.5t5.5 23.5q0 3 3.5 9.5t3.5 17.5q-4 8 -5 22.5t-2 17.5q-1 6 1.5 11t3.5 11q-2 16 3 36q14 55 14 58l14 73q0 32 1 54.5t3.5 28t7.5 15.5t5 18q1 6 1 13v11q0 20 -3 38q0 21 -7 41q1 11 -2 13q0 5 -3.5 8t-4.5 4q-5 16 -9 27t-10 18q-1 5 -1 16
q0 10 -2 14l-58 60q-17 9 -37 24.5t-38 30.5q-7 4 -9 11.5t-7 10.5q-2 0 -7 -6t-12 -6q-11 -1 -28 6t-31 13q-2 0 -7 -4t-9 -2q-2 4 -2 5q-3 6 -5 7q-9 4 -23 4q-13 0 -31 -5t-28.5 -8t-32 -9t-31.5 -11q-35 -15 -53.5 -38.5t-28.5 -65.5q-6 -22 -6 -47q0 -62 26 -103
q35 -55 109 -55h16q7 1 10 1q-69 0 -102 36q-27 29 -27 78q0 29 8.5 53.5t21.5 38.5q17 17 43 24t53 7q38 0 60 -4.5t45 -23.5q34 -23 50.5 -49t16.5 -63q1 -6 1 -19q0 -65 -37 -118q-18 -22 -26 -32q-28 -35 -51 -38q-4 -2 -14 -9.5t-18 -7.5q-11 1 -19 0t-17 -2
q-14 0 -25 6q-20 8 -43 21q-37 21 -38 21q-38 18 -68.5 53t-47.5 74q-23 57 -23 122q0 20 1 31q6 58 21.5 103t46.5 78q14 11 51.5 28t51.5 25q16 7 65 18q17 4 35 8q41 14 73 14q33 0 93 -20l86 -26q28 -11 42 -30q4 -2 4 -9q0 -9 3 -11q4 -2 10 1t15 0q21 -9 30 -16
q1 -1 57 -48q11 -13 18 -25q11 -20 22 -39l17 -30l20 -45q5 -12 8 -23.5t5 -19t4.5 -30.5t8.5 -33q7 15 13 21q10 10 21 20q4 6 4 21q-1 13 -1 19q0 10 4 18q8 16 16.5 32t27.5 47q7 11 12 24.5t14 23.5q14 17 22 25q4 4 5 4l-6 -14t-7 -14l4 4q14 17 18 22q6 15 20.5 33
t28.5 29q5 6 16 14q24 19 29 23.5t16 10.5t22.5 12.5t25 11t46.5 10.5t47.5 8.5t20.5 2.5q10 0 21 -2.5t23 -7.5t31 -13t26 -12q14 -8 21 -16q6 -4 11 -14.5t9 -14.5q24 -18 33 -28q15 -16 19 -32z" />
    <glyph glyph-name="Z" unicode="Z" horiz-adv-x="1292" 
d="M1469 1265q-1 -5 -8 -23t-10 -27l-29 -58l-24 -40q-13 -20 -28 -35q-17 -22 -42 -22q-3 0 -28 -31l-58 -56q-23 -23 -46 -45l-64 -46l-36 -30q-22 -19 -29 -28q-10 -14 -16.5 -22.5t-16.5 -16.5q-5 -5 -21 -16q-43 -31 -45 -32q-16 -11 -25 -17q-17 -12 -25 -19
q-35 -24 -59 -47q-30 -33 -60 -65q-6 -8 -44.5 -42.5t-44.5 -37.5q-16 -16 -31.5 -29.5t-29.5 -25.5q-78 -80 -101 -99q-14 -8 -31 -20t-36 -28q-49 -40 -68 -56q-60 -53 -75 -85h13h36.5t41.5 1q14 0 28 -0.5t21 -2.5q10 -2 40 11t40 9q14 -6 26.5 -15t28.5 -9q32 0 61 -7
q23 -7 46 -13q2 1 66 10t71 12q17 6 27 13t26 21q3 2 11 12t16 14l70 37q7 4 20 7t16 5q88 52 103 73q10 14 30 30q17 7 24 10q13 6 22 27l29 2q3 -6 3.5 -8.5t0.5 -8.5q0 -10 -2 -19l-14 -48q-1 -2 -15 -45q-5 -17 -11.5 -26t-17 -14.5t-16.5 -11.5q-2 -2 -5 -21t-5 -23
l-56 -48q-2 -4 -5 -9q-12 -20 -26 -37q-12 -18 -30 -37q-22 -23 -40 -35q-10 -6 -38 -8t-34 -4l-70 -15l-34 15l-46 -8l-167 -12q-11 -2 -37.5 5.5t-37.5 7.5q-38 3 -51 3q-12 0 -31.5 -5.5t-67.5 -5.5q-10 -1 -27.5 -1h-28.5q-35 0 -67 0.5t-61 0.5h-21q-2 3 -4 4
q-6 4 -15 4l-136 -5q-36 9 -53 16q-52 22 -46 51q0 7 13 24q17 22 24 34l26 44l58 65v5q11 9 27 24t31 36q7 9 21 24l42 44q10 10 57 38q41 24 59 54q5 5 30 24q12 9 16 14q17 20 23 28.5t4 10.5q7 -3 46 28q23 18 38 27q4 2 35 30q15 13 23 19q8 8 18 19q17 20 35 32
q10 7 29 17.5t27 17.5q55 44 111 88q27 18 37 45q4 11 9 13l39 16q20 35 45 65.5t46 46.5q-1 -5 4 -5t20 9q12 11 15 13q12 10 19 14q1 2 26.5 17.5t28.5 18.5q22 18 49 42q39 35 46 47q-3 2 -12 2h-16.5t-10.5 1q-9 4 -21.5 7.5t-33.5 9.5q-8 2 -21.5 9t-24.5 7h-61
q-20 2 -48 -6t-41 -17q-4 -2 -37.5 -5t-42.5 -3q-6 0 -33.5 3t-29.5 5q-7 5 -27 8.5t-36 3.5q-8 0 -16.5 -5t-12.5 -7l-55 -18q-44 -12 -65 -12q-7 0 -20.5 1t-15.5 0q-3 -2 -6 -9.5t-16 -22.5q-20 -23 -60.5 -60t-65.5 -56q-19 -16 -27 -22q-14 -11 -24 -11q-22 0 -30.5 15
t-8.5 39q0 11 0.5 17t3.5 23q7 26 23 42q22 22 25 27q9 16 17 37.5t16 34.5t27 36q8 10 27 32q7 7 25.5 19t24.5 18q2 2 4 9t4 15q19 14 46.5 24t33.5 14l111 -4l29 -10l19 10l29 4q6 -7 20.5 -15t34.5 -13q7 -2 23.5 -2.5t28.5 -0.5h55h94l120 -17l22 13l119 4q11 0 53 -19
q22 -10 34 -10q15 -3 29 -3q11 0 20.5 1.5t32.5 8.5q34 11 40 12l37 11q16 0 32.5 -23.5t11.5 -40.5z" />
    <glyph glyph-name="bracketleft" unicode="[" horiz-adv-x="620" 
d="M763 1239l-27 -56l-23 -36l-58 -5l-42 -7l-22 17h-47l-35 -31l-23 -56l11 -46l-11 -51l-30 -46l-2 -52l-15 -51l-17 -56l-16 -46l4 -31l-29 -66l-7 -72l-21 -31v-72l2 -46l-19 -61l-15 -51l5 -36l-29 -51l-14 -62l33 5l56 -20l41 20l36 5l31 -30l27 -36l-10 -46l-40 -41
h-66l-55 -15l-63 -11l-44 31h-46l-70 -15l-16 20l-12 41l9 41l29 92l17 51l-12 33l32 90l2 82l21 72v46l22 56l7 31l17 61v72l5 38l24 63l5 58l27 56l10 51l-3 57l10 46l33 56l-2 41l43 56l59 11l12 -16h31l3 16h62l27 -16l39 16h57l17 -16l31 5l34 -35z" />
    <glyph glyph-name="backslash" unicode="\" horiz-adv-x="628" 
d="M543 -111q-2 -1 -14 -3t-36 -17q-5 -3 -9 -3q-7 0 -13 8t-12 15q-7 -4 -16.5 -7.5t-16.5 -3.5q-9 0 -14 4q-12 10 -12 39q0 11 1 18q-15 15 -20 36.5t-9 44.5q-6 18 -22.5 63.5t-20 57.5t-7 44.5t-13.5 56.5q-13 35 -26 86.5t-24 98.5q-19 13 -23 16.5t-4 32.5v77
q0 36 -11 62q-17 33 -26 54q-4 10 -13 66q-4 25 -8 36q-8 47 -11 70q-7 43 -16 77l-26 79q-3 6 -10.5 60.5t-8.5 58.5q-6 24 -18 37t-16 38q-8 38 -23 81q-11 32 -11 40q0 16 38 36q6 -3 13 -5.5t16 -2.5t13 3q18 11 27 11q7 0 16 -10q5 -6 9 -6q2 -7 16.5 -10.5t18.5 -15.5
t9 -49q11 -83 16 -102t9 -47q10 -70 12 -81q20 -39 40 -77q3 -7 3 -19q0 -9 -1.5 -24.5t-1.5 -17.5q0 -11 3 -28q5 -17 15 -25t14 -23q5 -13 10.5 -52t8.5 -72l20 -79q9 -37 15.5 -63t16.5 -50.5t12.5 -51t5.5 -40.5q7 -23 10.5 -35t8.5 -38q0 -6 7 -20q16 -34 17 -40
q5 -42 14.5 -77t15.5 -59q0 -4 -2 -13q-5 -22 -5 -30q1 -3 13 -22.5t15 -27.5q11 -21 17 -37t13 -41q0 -13 4 -21q12 -23 12 -31q0 -14 -5 -30z" />
    <glyph glyph-name="bracketright" unicode="]" horiz-adv-x="620" 
d="M814 1273l-12 -51l-12 -44l-7 -31l-10 -44l-15 -59l-2 -58l-2 -41l-24 -30l-11 -55l10 -20l-16 -65l-29 -58l5 -41l-6 -48l-16 -72l-27 -64l-12 -76v-95l-27 -82l-34 -92l-6 -41l-10 -68l-20 -31l-28 -27l-25 6l-75 -3l-41 -14l-57 11l-66 3l-36 -7l-55 -3l-27 17l-3 68
l24 17l13 48h52l27 17l56 3l38 -17l46 24l36 45l-2 37l7 68l-7 58l31 38l15 85l20 65l6 72l29 41l10 92l-7 37l20 62l6 92l32 55l-7 34l9 41l10 48l-22 17l-24 20l-60 -24l-27 17h-31l-51 17l10 48l21 62l41 17l54 -4l33 14l47 -4l38 4l39 3l17 -17h82l29 10l34 -3z" />
    <glyph glyph-name="asciicircum" unicode="^" horiz-adv-x="819" 
d="M594 1010l-14 -27l-25 -24l-34 -7l-26 14l-22 24l-4 17l-22 20l5 21l-12 14l4 17l7 30l23 14l-17 20l-29 7l-15 -13l-10 -28l-21 -3l-7 -31l-30 -44l-19 -27l-38 -45l-25 -10l-29 -10l-24 13l-24 17v31l22 24l16 44l30 52l31 47l12 41l20 48l26 38l38 27l23 3l14 21h38
l63 3l24 -34l7 -27l8 -24l5 -41l10 -51l2 -38l14 -17l2 -24l-2 -24z" />
    <glyph glyph-name="underscore" unicode="_" horiz-adv-x="1135" 
d="M1256 -218l-14 -28l-20 -36l-51 -42l-65 -2l-58 -3l-55 3l-71 10l-72 11l-44 -2l-72 -5l-68 -5h-48l-72 -12l-68 17l-68 -9l-72 -2l-58 -1l-65 -7l-82 -4l-82 16l-65 12l-51 13l-17 18l-7 25l-10 26l27 25l31 17l41 23l51 17l45 12l85 -11l58 2l72 -5l58 2l51 12h48l75 5
l51 17h78l62 -5l68 -2l55 -3l65 5l51 3l85 -15l96 -9l41 -24l30 -24z" />
    <glyph glyph-name="grave" unicode="`" horiz-adv-x="382" 
d="M369 1207q0 -6 -12 -19l-34 -36q-15 -8 -18 -10q-18 -12 -18 -25q0 -3 2 -9l-11 -12q9 -10 24 -18q10 -5 21 -10q15 -9 15 -42v-16q-2 -9 -8 -18q-10 -1 -23 -12q-6 -5 -22 -21q-12 -8 -26.5 -12.5t-32.5 -4.5q-40 0 -72 25q-38 29 -38 79q0 18 2 28t15 64q9 5 17.5 23
t13 23t23.5 12.5t25 11.5q15 -1 41.5 17.5t39.5 18.5q7 0 11 -2q20 -4 35 -9q30 -10 30 -26z" />
    <glyph glyph-name="a" unicode="a" horiz-adv-x="727" 
d="M689 765v-19q0 -19 -3.5 -31t-6.5 -19q-16 -40 -17 -42q-2 -5 0.5 -12t1.5 -11l-24 -56q-1 -2 -1.5 -7t-1.5 -12l-17 -41l-23 -49q1 -7 2.5 -14t1.5 -8q-5 -14 -13 -33.5t-10 -24t-2 -10v-8.5q0 -13 -2 -16.5t-6 -3.5l-8 4q0 -7 10 -20q6 -8 7 -13q0 -3 -5.5 -6.5
t-6.5 -7t-1 -25.5q0 -7 -1 -9.5t-7 -5.5t-6 -6q0 -4 1 -13t1 -14q0 -4 -2.5 -11.5t-2.5 -10.5q0 -5 6 -5q16 0 27 12q8 8 19 29q7 2 15 5q5 12 7.5 27t4.5 29q6 21 21 21q4 0 10 -4q13 -9 19 -12l-6 -16t-7 -12t-9 -6v-3q5 -12 5 -45q0 -16 -8 -38t-22 -45.5t-37 -45.5
q-3 -4 -7 -14t-6 -12l-41 -41h-14l-29 -29q-15 -8 -33.5 -11t-34.5 -3q-23 0 -45 24q-27 29 -27 69q0 11 5.5 21.5t11.5 20.5q5 15 7 30t2 25q0 7 -6 14q-2 2 -6 5q-11 0 -23 -6.5t-18 -16.5q-2 -2 -2 -7t-2 -8q-7 -5 -11 -8q-13 -11 -26 -29q-4 -10 -6.5 -16t-24.5 -28
q-34 -35 -44 -45q-2 -2 -2 -6t-2 -6q-22 -19 -45.5 -31.5t-37.5 -12.5q-29 0 -49 8.5t-37 25.5q-4 4 -13 16q-4 6 -7 11t-4 18.5t-1 24.5q-1 4 -6 8.5t-5 13.5q2 1 3 2q8 6 13 17q1 3 2 17.5t5 27t8 31.5t7 43q9 1 10.5 3.5t1 11.5t1.5 16.5t4 14.5q6 21 24 46q4 7 36 30
q19 14 29 27q1 13 5 20q13 20 42 58q19 25 53 68q3 4 5.5 12.5t10.5 16.5q5 7 12.5 16l12.5 15l48 46l36 38q2 2 12.5 -1t11.5 -1q6 6 21 26q12 15 20 20q19 11 75 25q30 7 42.5 14.5t20.5 11.5q22 13 29 21q4 12 6.5 17.5t6.5 8.5t9 6q9 9 14 9q3 -2 4 -2q8 -5 16.5 -8.5
t17.5 -6.5q6 -8 8.5 -23.5t2.5 -34.5zM486 531q-17 7 -22 9q-15 6 -24 6q-7 0 -19.5 -11t-16 -12.5t-30.5 -5.5t-33.5 -7.5t-14 -18.5t-14.5 -20l-24 -22q-2 -2 -2 -5t-2.5 -6.5t-14.5 -12.5t-15 -12l-56 -72q-1 -2 0 -9t2 -13l-12 -29q-14 -27 -21 -46q-12 -26 -12 -41
l2 -24l12 -15q15 4 30.5 11.5t22.5 10.5q15 4 27 7t19 10q1 6 2 10t21 26q12 13 18 22q8 0 10 2l14 25q1 2 5 3t5 3l17 29q4 13 8.5 21t10.5 17t17 23q1 2 7 1t8 2q11 20 22 41q2 2 3.5 7t3 11t9 10.5t10 12t6.5 20.5q6 14 20 20z" />
    <glyph glyph-name="b" unicode="b" 
d="M616 596l-12 -98l-8 -22q-1 -11 -1.5 -22t-0.5 -15v-11.5v-4.5q-1 -3 -6 -6q-12 -7 -13 -9l-8 -24q-2 -1 -6.5 -1t-6 -5t-2.5 -17t-6 -26l-10 -16q-2 -14 -4 -27q-13 -10 -18 -17q-5 -17 -7 -22q-9 -16 -24 -35q-10 -12 -19 -24t-23.5 -25t-27.5 -24q-2 -10 -5 -14
q-19 -14 -53 -31l-38 -18q-10 2 -15 0q-4 -3 -12 -16t-13.5 -17.5t-21.5 -10.5t-21 -11l-14 -22q-6 -6 -9 -8.5t-11 -5.5q-2 0 -22 5t-24 4q-5 -1 -16.5 -5t-19.5 -4q-40 0 -77.5 66t-37.5 112q4 7 4 19v22v22t2.5 21t17.5 39q8 16 11 25.5t5 28.5t4 27t6 18.5t5 19.5t3 21
q9 12 19 25q-1 11 -1 25q0 10 1 15t6 18.5t6 19.5t7 18.5t7 19.5q1 3 -1 11t-1 12q5 22 10.5 41.5t16.5 51.5q4 9 12 34.5t14 37.5q13 21 26 43q2 6 -1.5 15.5t-2.5 13.5q3 14 9.5 33t14.5 42q-2 15 -3 31q1 4 4 7q10 10 11 13q5 44 10 89q1 4 9.5 16t10 16t5 24t11.5 38
q12 10 14 15q1 13 3 26l10 25q-12 7 -23 14q-14 11 -23.5 27.5t-9.5 28.5q0 5 8 18t21 23q14 5 21 9.5t17 9.5q4 0 12 -4.5t12 -4.5q24 0 68.5 1t72.5 1q8 -8 18.5 -24.5t10.5 -28.5v-11t-3 -13q-13 -16 -20 -25q-14 -18 -19 -34q-3 -7 0.5 -17.5t2.5 -15.5l-14 -54l-3 -28
l3 -13q-2 -3 -4 -20t-4 -20q-5 -7 -18 -21.5t-16 -22t-5 -22t-4 -22.5q-12 -17 -14 -26q2 -12 4 -23.5t2 -13.5q-3 -11 -17 -28q-10 -13 -15.5 -21t-8.5 -12q-8 -12 -14 -25q-2 -5 -2 -26q0 -22 -3 -28q-7 -9 -10 -14q-1 -8 -1.5 -16t-2.5 -10q-2 -6 -8 -14q-16 -22 -16 -23
q-3 -8 -6.5 -22t-6.5 -19q-4 -12 -7 -24q-5 -7 -8 -9t-4 -3q0 -7 1.5 -17t1.5 -12q5 -2 9.5 -3.5t7.5 -1.5t4 7t2.5 13t9 12.5t10.5 11.5l19 33q3 6 12.5 11t12.5 11q12 20 28.5 35.5t31.5 24.5q3 1 5.5 5t9 5.5t14.5 3t15 6.5q8 9 17 18q21 18 41 18q15 0 47 -21
q11 -7 22 -13q3 -2 5 -10t3 -9q6 -5 12 -9q11 -16 17.5 -47t6.5 -58zM474 548v13q0 20 -6 25t-33 5q-16 0 -26 -2t-23 -10q-4 -3 -17 -18q-5 -6 -11 -10l-56 -42q-3 -5 -3 -19q0 -12 -5.5 -18t-18 -14t-16.5 -14.5t-6 -27.5q-4 -18 -11 -30q-5 -20 -13 -36q-11 -13 -21 -26
q-9 -21 -11 -27.5t-4.5 -15t-2.5 -22.5t-1 -17t-5 -6.5t-5 -5.5q-4 -7 -4.5 -9.5t-0.5 -3.5q0 -26 3 -36q7 -24 28 -24q10 0 18 3.5t16 8.5q10 -2 16 0.5t10 5.5t10 8l17 10q5 4 5 7q0 12 2.5 14.5t17.5 14t21 17.5q12 14 18 28.5t11 27.5q4 6 10.5 14.5t9.5 16.5l12 31
q4 7 17 18t17 18t9 23t7 22q15 47 22 64q1 5 2 17.5t1 21.5z" />
    <glyph glyph-name="c" unicode="c" horiz-adv-x="561" 
d="M613 695q0 -35 -10.5 -46.5t-42.5 -11.5q-18 0 -31.5 3t-25.5 12l-25 17q-21 15 -65 15q-14 0 -27.5 -1t-19.5 -4t-8 -13t-5 -12q-14 -11 -25 -23q-6 -7 -23 -30q-3 -4 -10.5 -7t-10 -7t-2.5 -19q0 -7 -2 -10q-8 -6 -15 -12q-1 -2 -2 -14t-4 -17q-12 -26 -23 -51
q-2 -5 -3 -17t-2.5 -16.5t-8.5 -14.5t-9 -15v-12v-13q0 -11 -1 -14q-6 -18 -9.5 -35t-9.5 -54q-4 -14 -4 -20t4.5 -11.5t6.5 -14.5l1 -24q0 -2 5.5 -10.5t5.5 -13.5q-3 0 -7.5 1t-4.5 -4q0 -7 20 -20.5t33 -13.5q11 0 20.5 4t26 13t33.5 18q17 15 34 31l14 24q8 2 13 5
q8 8 22 13.5t26 5.5q14 0 21.5 -11t7.5 -27q0 -28 -10 -51q-4 -5 -6.5 -10t-3.5 -16.5t-4 -15.5t-9.5 -10t-14.5 -13l-30 -32q-12 -2 -18 -5q-20 -22 -39 -43q-3 -1 -5.5 -1.5l-7.5 -1.5q-9 -12 -14 -14q-16 -6 -30 -8t-20 -2q-4 0 -8.5 -5t-8.5 -6t-16 -2t-14 -1h-13
q-4 0 -14 1.5t-12 7t-7 7.5q-13 1 -25.5 1.5t-19.5 3.5q-23 11 -41 29q-3 4 -7 18t-6 18q-15 16 -29 32q-2 5 -2 13.5t-0.5 10.5t-5 6.5t-4.5 7.5q-4 17 -7 43.5t-5 34.5l-12 22l-4 46q0 13 4 27t8 23t4 13q-4 9 -7 19l10 31q6 18 15 30q5 7 11 14q6 19 15 52t10 37
q5 12 15 31q7 13 11 20q1 2 15 10t16 11.5t7 20t8 20.5q5 3 10 7l17 27q13 14 27.5 26.5t35.5 26.5q36 22 84 39q9 10 19 20q2 1 10.5 3t14.5 4l26 14q17 3 46.5 4t55.5 1q87 0 107 -18t20 -101z" />
    <glyph glyph-name="d" unicode="d" horiz-adv-x="701" 
d="M829 1268q0 -1 -8.5 -31.5t-18.5 -69.5q-1 -4 -1 -11q0 -6 2 -19t2 -19q0 -8 -2.5 -17t-13.5 -32q-26 -53 -29 -61t-11 -42q-16 -66 -18 -72t-9 -38q-10 -44 -14.5 -55t-11.5 -20q-15 -19 -18.5 -27.5t-3.5 -18.5q0 -8 1.5 -22.5t1.5 -15.5q0 -9 -1.5 -16.5t-8.5 -21.5
q-15 -31 -18 -41q-7 -25 -10 -50t-4 -41l-24 -66q-2 -4 -9.5 -29t-11.5 -35t-23 -41q-11 -17 -15 -25.5t-4 -34.5q0 -14 -2.5 -22t-9.5 -20t-7 -17q0 -8 -1 -18t-1 -11q0 -17 11 -17q8 2 15 4q19 7 55 27h37v-38l-10 -44q-16 -27 -24.5 -40t-16.5 -21q-2 -3 -11.5 -0.5
t-12.5 0.5q-4 -3 -13 -17t-14 -18q-23 -16 -49.5 -22.5t-60.5 -6.5q-15 0 -23 5q-18 10 -25.5 33.5t-7.5 45.5l5 15q13 38 16.5 59t5.5 46t2 39q-4 3 -7 5t-8 2q-4 0 -23.5 -30t-19.5 -42q-3 -7 -5 -11q-15 -29 -36 -56q-9 -20 -13.5 -30.5t-10.5 -16.5q-31 -37 -69 -60.5
t-67 -23.5q-37 0 -87 38q-57 43 -57 92v70l14 20l-17 27l3 46q0 4 8 18t12.5 24t9.5 32t8 31q7 16 26 46q23 35 28 47t6 31t5 29q1 6 10.5 14.5t20.5 19.5q6 14 8 31t3 19q8 8 40 31q38 27 68 46q3 2 15.5 3t15.5 3q9 6 31 24q17 14 29 18t37 4.5t31.5 2t21 9t20.5 7.5
q11 0 25 -5t16 -5q22 3 27 22.5t8 39t3 49.5q0 6 -3.5 23t-3.5 23q1 14 16 35q5 8 11 16q3 9 16 18q18 12 20.5 15t5 20.5t3.5 18.5q7 12 13.5 24.5t8 21.5t1.5 17q0 12 -4.5 21t-8.5 18q8 6 11 12q11 19 11 57q0 17 -12.5 41t-12.5 40q0 17 25 34q31 21 75 21q6 0 16 1
t14 1q8 0 23 -5q4 -2 10 -10t9 -10t20 -3.5t19 -4.5q12 -8 12 -25q0 -5 -1 -17.5t-1 -13.5zM476 587q0 39 -30 60q-10 7 -31 13q-41 0 -70 -39q-6 -7 -17 -35q-5 -13 -9.5 -21t-15 -20.5t-13.5 -18.5q-7 -14 -13.5 -35.5t-8.5 -26.5q-16 -31 -32 -61l-24 -28l-21 -37
q-2 -3 -2 -13q0 -18 -1 -21q-9 -20 -17.5 -40.5t-8.5 -36.5q0 -3 10 -19t12 -29l43 -10q14 5 24.5 12.5t21.5 20.5t17.5 36t6.5 38q13 3 24 6.5t17 11.5q5 4 14 18.5t13 18.5q9 11 18.5 23t15.5 21q17 22 34 45q6 10 11 34t7 31q14 40 19.5 63t5.5 39z" />
    <glyph glyph-name="e" unicode="e" horiz-adv-x="567" 
d="M567 628q0 -22 -5.5 -45t-19 -44.5t-33 -37.5t-40.5 -25l-53 -15q-6 -2 -33 -17q-17 -9 -21 -11q-23 -7 -48 -18q-20 -8 -47 -21t-52 -25q-10 -7 -23 -43q-8 -22 -11 -26q-10 -13 -20 -25q-7 -12 -7 -33q0 -22 25 -46t46 -24q9 0 18 -1l18 -2q4 0 15.5 3t25.5 15
q9 8 22 25q39 49 45 55q25 25 51 25q27 0 37 -19q7 -13 7 -33v-11q0 -17 -9 -35.5t-25 -36.5q-3 -4 -13 -14t-13 -15.5t-3 -14.5v-12q0 -9 -2 -12q-2 -7 -17.5 -23.5t-17.5 -19.5q-8 -14 -13 -21q-9 -13 -20 -18q-31 -14 -68 -14q-23 0 -49 -7q-9 -2 -23 -8q-44 0 -95 42
l-21 15q-12 9 -20 20q-3 4 -7 20t-7 21q-19 34 -27 58q-11 34 -11 76l7 91q3 13 5 21.5t2 22.5q0 34 -0.5 49.5t-2.5 30.5q11 14 18 24q22 31 40 63l54 82q2 4 13 33q8 22 18 32q19 23 32 37q19 21 36 35q9 2 14 3t10 4q9 6 30 17.5t30 15.5t24.5 5t24.5 3q8 0 22 6t21 6
q13 0 24 -2t20.5 -3.5t20.5 -5t20 -8.5t14.5 -8t11.5 -9q10 -10 17 -29q1 -4 10 -36q3 -10 15.5 -37.5t12.5 -44.5zM379 614q0 13 -14.5 26.5t-26.5 13.5q-7 0 -16 -8t-32 -38q-14 -12 -27 -24q-13 -17 -24.5 -39t-21.5 -43v-21l17 -8q3 -2 6 -3t9 -1q9 0 18.5 5.5
t28.5 24.5q5 5 21 20q14 3 28 7q13 13 20 27t10.5 28.5t3.5 32.5z" />
    <glyph glyph-name="f" unicode="f" horiz-adv-x="570" 
d="M956 1229q-1 -2 -5 -4.5t-9 -5.5q-7 -11 -17 -20t-18 -12.5t-15 -3.5q-15 3 -23 3q-10 -4 -19 -4q-6 0 -9 1l-49 15q-15 5 -46.5 6t-35.5 1q-3 0 -10 6t-9 6q-3 0 -5.5 -5l-4.5 -9q-24 -5 -44 -20l-24 -4q-5 -4 -12 -14t-10 -13t-4 -10.5t-2 -8.5l-24 -36l2 -18l-12 -16
q-1 -4 -1 -12t-2 -10.5t-7 -3.5t-8 -3.5t-8 -12t-6 -16.5t3 -21t4 -18q0 -2 -6 -8t-8 -9q-3 -13 -5 -23t-9 -23q-3 -7 -33 -35q-14 -13 -17 -22.5t-3.5 -18.5t-0.5 -14v-15.5t1 -14.5q0 -11 -2 -18.5t-8 -13.5t-8 -10q11 -6 14.5 -9t5.5 -7q6 0 25.5 3t32 7t15.5 6q8 5 12 5
q8 0 28 -10q12 -6 24 -11q9 -7 15 -18q2 -7 2 -29q0 -59 -38 -67q-4 -1 -14 -1q-11 0 -34.5 2.5t-30.5 2.5h-12q-9 -2 -24 -3.5t-37 -14.5q-8 -4 -13.5 -6.5t-14.5 -10.5t-11.5 -32.5t-4.5 -29.5t-13 -24q-7 -12 -6 -25q0 -17 7 -46t7 -30q0 -8 -7 -14t-11 -9t-10.5 -10
t-10.5 -14q-18 -19 -36 -63q-4 -9 -7.5 -19.5t-3.5 -22.5v-14q0 -26 -2 -40.5t-8.5 -21t-6.5 -13.5q-1 -7 1.5 -18.5t2.5 -15.5q0 -12 -3 -28.5t-4 -24.5q-1 -5 3 -8t2 -9q-1 -3 -7 -13q-15 -23 -15 -25q-8 -24 -15 -48l-24 -39q-9 -16 -20 -41t-18 -42q-25 -60 -65 -139
q-11 -24 -22.5 -47.5t-28.5 -47.5q-6 -8 -22 -21t-22.5 -19.5l-12 -12t-9.5 -12.5l-6 -22q-2 -3 -12 -7.5t-12 -7t-4 -12t-6.5 -13t-20.5 -9.5t-21.5 -9t-24.5 -7t-28 -7q-44 -15 -96 -15q-5 0 -14 3.5t-18 11.5q-9 15 -14 21q-17 5 -22.5 11t-15.5 22q-14 23 -15 25
q-15 23 -15 32q4 3 6.5 5.5t10.5 11.5q1 2 3 10t5 11l19 5q6 8 12 15q19 14 27 14q19 0 33 -14q6 -14 12 -29q4 -6 13 -9.5t15 -6.5t11.5 -6.5t9.5 -3.5q28 0 49 19q15 13 33 43l15 21q9 12 12.5 25.5t4.5 34t1 33.5q3 7 12 12t13 13t11 37.5t10.5 39.5t6.5 16q8 14 15 27
q4 13 4 26q-1 17 -1 25q10 51 21 101q4 4 8 9q5 14 5 27q0 12 -5 24t-3 17q1 4 6 6.5t6 5.5q10 14 28 36q5 7 16 18q12 17 18 43q4 27 8 55q4 9 18 22t18 24q1 6 -0.5 36t-1.5 31v11q2 7 2 9q4 8 8 17q1 1 2 12.5t3 23.5l26 78q0 20 -23 29l-44 14q-29 15 -29 46q4 4 5 6
q5 7 7 15q-1 11 2 17q15 6 19.5 11t6.5 10.5t5 12.5q3 3 8.5 11t8.5 9q6 3 10 1.5t9.5 -4.5t9 -5t7.5 -2q5 -1 20 3.5t21 3t9.5 5t5.5 19.5q1 3 -3.5 17t-3.5 22q1 7 20 37q11 18 21 41q2 6 7 17.5t6.5 18t2.5 21.5t3 19l17 30q3 7 8.5 14t13.5 18t14 27q2 6 5 13
q16 50 35.5 88.5t47.5 70.5h12l11 13q1 4 2.5 9.5t2.5 6.5q6 9 19 18q3 4 13.5 5.5t14.5 4.5t11.5 7t11 6.5t11.5 4t11 3.5q21 18 43 36q4 2 20.5 5t20.5 5q13 7 32.5 20.5t31.5 17.5q7 1 21 1h22q7 1 10 1t6 1q10 4 11 4q6 0 10.5 -4t6.5 -5q6 -1 19 0t19 0q3 0 7 -2t8 -5
q4 -1 7 -1h4q7 0 14 1t15 2h29q4 0 8 -5.5t8 -7.5t12 -7t11.5 -12t3.5 -18q-1 -18 -1 -30q0 -5 3.5 -20t0.5 -21z" />
    <glyph glyph-name="g" unicode="g" horiz-adv-x="751" 
d="M742 742q0 -39 -15 -59q-4 -9 -7 -17q-23 -20 -60 -20q-12 0 -18 1l-38 8q-12 0 -23.5 -2t-20.5 -3q-2 1 -6.5 4.5t-5.5 2.5q-4 -1 -4 -8v-11q-6 -16 -6 -54q-1 -8 -1 -13q1 -18 1 -27v-11q-3 -13 -4 -19q-4 -18 -7 -36q-3 -10 -7 -18.5t-13.5 -16.5t-14.5 -20
q-13 -32 -26 -63q-14 -19 -20 -28q-12 -17 -23 -27q-3 -3 -11 -3t-13.5 -3t-10.5 -7q-19 -15 -21.5 -16t-6.5 -1.5t-12 -0.5h-21t-11 -1q-16 -5 -29.5 -15t-25.5 -19q-6 -4 -21.5 -10t-22.5 -11q-3 -1 -13 1t-13 -1q-4 -3 -4 -15q0 -15 -3 -20t-13.5 -11.5t-15.5 -12.5
q3 -12 0 -16q-10 -3 -12 -6q-3 -16 -4.5 -17.5t-4.5 -2t-6 -1.5q0 -7 6.5 -12t13.5 -10q2 -1 2.5 -6.5t1.5 -10.5q7 -2 10 -5q4 -11 7 -14q20 -17 59 -39q11 -6 71 -39l34 -26q9 -4 42 -15q24 -8 35 -16q35 -26 63 -52q24 -23 44 -47q16 -19 23 -28q12 -16 15 -27t4 -21
t1 -25q0 -12 -1 -41t-1 -30q-4 -18 -7 -28q-11 -32 -29 -51q-47 -50 -95 -73q-12 -5 -57 -8.5t-49.5 -4t-5 -3.5t-4.5 -3q-15 0 -32 3t-24 3q-4 0 -14 -2q-24 -10 -43 -14q-61 -15 -135 -15q-11 0 -28.5 5.5t-36.5 14.5q-6 2 -16.5 9.5t-16 10t-11 2.5h-8.5q-12 0 -18 2
t-13 7q-15 10 -16 10q-4 3 -13 13.5t-13.5 13.5t-26.5 18q-16 10 -21.5 17.5t-13 24.5t-12 28t-9.5 18t-7.5 13.5t-2.5 17.5v17q-1 2 -4 12t-3 15q7 6 9 14q0 3 -2 8t0 11q2 14 10 32t12 22q12 11 32 21q24 13 48 19t38.5 9.5t21 9.5t11 7.5t15.5 2.5t20 1q6 2 9 7t9 7t26 4
t24.5 5t7 12.5t4 12.5t3.5 8t2 9q0 10 -16 23.5t-23 20t-12 16t-8.5 20t-7.5 18t-4 16.5q0 4 14 25q7 10 7 20t-6 22q12 14 26.5 29.5t23.5 28.5q5 3 12.5 13.5t12.5 13.5q10 7 21 14q3 4 4 13.5t1 17.5t-17 32q-2 3 -5 10.5t-5 10t-9 4.5t-9 4q-8 17 -15 34q-3 5 -7 25
t-6.5 25t-9.5 8.5t-9 11.5q-6 19 -8.5 38t-2.5 48q0 4 4.5 7.5t4.5 4.5q1 5 -1 15.5t-1 18.5q0 4 5 18t5 21q3 21 6 27q16 56 52 96q2 3 5.5 4t6.5 1q2 2 3 9.5t3 9.5l13 8q36 32 69 48q39 19 81 19h20.5t19.5 -2l6 -8q9 -2 31 -4.5t32 -4.5t61 -18q35 -11 52 -11
q29 0 72 22t72 22q8 0 18 -3t21.5 -5t25.5 -3q8 -2 14 -6.5t9.5 -14.5t6 -16t6.5 -10.5t4 -11.5zM360 584q0 5 -2.5 11t-2.5 7v18t1 19q0 21 -4.5 31.5t-17.5 13.5t-17 4q-12 7 -18 8q-7 4 -23 4q-19 0 -27 -7q-2 -12 -5 -15t-10 -3q-5 0 -7 -2.5t-4.5 -12.5t-4.5 -13
q-13 -18 -25 -36q-1 -3 -1 -10.5v-13.5t-2 -16t-4 -27q-12 -3 -14 -6q-1 -3 5 -4t6 -3q-1 -9 -7 -21q-2 -4 -7 -12q0 -8 6 -26.5t11 -32.5q1 -5 1 -15q0 -15 -2 -29q-7 -47 -7 -50q0 -18 7 -27t27 -9h19q15 0 21 3t15 10q3 3 6.5 6t3.5 9q0 8 3 13q9 10 19 25q7 11 17 28
l19 51q9 20 18 41q4 13 4 34q0 8 -0.5 17.5t-1.5 21.5q0 7 2.5 11t2.5 5zM408 -273q0 8 -7.5 18t-14 16t-20.5 12q-21 9 -26 12q-54 37 -108 73q-5 2 -13.5 0.5t-15.5 -3.5q-11 3 -23 7.5t-18 4.5q-4 0 -12 -5t-12 -5h-11q-20 1 -40 1q-7 -1 -17.5 -8.5t-16.5 -8.5h-36
q0 6 -5 11q-1 -4 -1.5 -8.5t-7.5 -10.5q-15 -9 -24.5 -14.5t-12.5 -9.5q-4 -17 -7.5 -23t-6.5 -17t-7 -20.5t-8 -18.5q0 -7 4.5 -19.5t5.5 -15.5t1 -25q0 -7 1 -10t7 -6.5t8 -5.5l16 -22q6 -4 21 -5t20 -4t25 -25q10 -11 19 -14q5 -1 17.5 0t21.5 0l27 -1q9 -7 14 -9
q3 0 6 2t6 5q14 -1 29 -2q6 0 16 -4t13 -4q28 0 55 10t54 29q3 2 15 7t16 8q2 8 5 16q6 6 18 14.5t15 14.5q-1 8 -2 15q6 14 11.5 27t5.5 21z" />
    <glyph glyph-name="h" unicode="h" horiz-adv-x="748" 
d="M741 591q0 -36 -6 -73q-1 -9 -15 -74q-7 -41 -13 -82q-7 -22 -23.5 -53t-31.5 -60q-5 -10 -14.5 -13.5t-13 -9.5t-3.5 -11q2 -7 2 -11q0 -5 -5 -13q-12 -21 -36 -53q-16 -21 -32 -41q-3 -2 -35 -18q-19 -9 -34 -18q-43 -22 -85 -44q-6 -2 -11 -2q-7 0 -13 1.5l-14 3.5
q-33 0 -48 22.5t-15 54.5q0 13 8 31.5t25 28.5q11 11 17 16q12 11 20 11q16 0 34.5 -4t40.5 -8q34 0 58.5 37.5t30.5 94.5q1 5 1 14q-1 15 -1 23q0 6 17 35q12 21 21 40l17 48q5 14 9 27.5t4 22.5q-2 16 -3 26q-5 29 -14 51q-13 32 -34 32q-1 -3 -2 -5q-8 -13 -25 -24
q-3 -2 -21 -6t-26.5 -10.5t-25.5 -26t-26 -29.5l-48 -30q-32 -35 -58 -75q-31 -47 -53 -100q-3 -7 -6 -42.5t-6 -45.5q-8 -28 -22 -60q-22 -47 -43 -94q2 -8 5.5 -14.5t1.5 -9.5q-7 -13 -28 -22q-30 -13 -33 -15q-22 -14 -60 -14q-15 -4 -23 -4q-6 0 -16 7q-15 10 -30 30
q-18 23 -18 37q0 4 6 17q28 59 38 84q12 23 18 35t10 23q3 9 0.5 20t-3.5 19q0 7 2.5 14.5t19 26t18.5 34.5q10 92 11 93q10 15 30 69q-3 5 -3 10q0 14 7 34.5t30 66.5l7 33q-2 11 -3 23q0 7 6 18.5t7 16.5q5 6 7 10q6 9 7 13q8 29 17 58l10 62q2 12 2 17l-2 22q0 1 7 9.5
t10.5 16.5t10.5 32q21 67 23 74l4 30l39 106q0 19 -8.5 34.5t-20.5 27.5q-2 2 -12.5 9t-14.5 11q-14 14 -14 36q0 8 13 20t32 19q6 2 22 3t25 4q10 8 21 17q29 10 48 10q6 0 21.5 -4.5t32.5 -12.5q4 -1 10.5 -8t10.5 -9q3 -1 17.5 2t16.5 2q10 -7 14.5 -21.5t4.5 -26.5
q0 -13 -6 -33.5t-17 -45.5q-3 -4 -7 -4.5t-6 -5.5q-1 -3 3 -9.5t4 -7.5q-4 -15 -11 -37t-13 -42q-2 -8 -3 -30t-4 -31.5t-28 -35.5q-13 -13 -15.5 -21t-3.5 -17t-1 -25v-24q-2 -10 -3 -14l-24 -54q-2 -6 -4 -29t-3 -28t-10 -21.5t-10.5 -23.5t-8.5 -12t-9 -9q-1 -6 -1 -14.5
v-13.5v-12v-10q-2 -6 -2 -8q-10 -31 -19 -61q7 -5 14 -9q27 0 49 22q6 6 17.5 22t20.5 26q18 23 35 42q13 14 40 40q4 4 13 6.5t11 3.5q24 20 38 28q23 13 47 13q27 0 44.5 -6t30.5 -21l9 -12q10 -15 14.5 -24t7 -16.5t5 -19t6 -41.5t3.5 -54z" />
    <glyph glyph-name="i" unicode="i" horiz-adv-x="391" 
d="M425 1149q1 -5 1 -16q0 -10 -3 -19q0 -10 -7 -20q-2 -3 -13 -14q-2 -2 -9 -2t-10.5 -1t-11.5 -6t-13 -6.5t-17.5 -1.5h-18.5q-26 0 -35 1.5t-17 12.5q-4 4 -8 16.5t-5 18.5t-3 16.5t-2 20.5q0 17 5 32q3 14 7 17q2 3 8 4.5t7.5 5t4.5 9.5q10 3 15 7.5t15 14.5t13 12
q12 2 15 3t8 5q0 1 1 2q4 0 7 -2t8 -5q22 0 25.5 -2t15.5 -16l12 -28q3 -12 4 -18t1 -19q0 -2 -2 -5.5t-3 -4.5q0 -4 5 -12zM379 667q-5 -21 -7 -31t-7 -25l-12 -12q3 -22 3 -32q0 -7 -1 -9l-17 -27q-4 -8 -21 -44q-9 -20 -12 -23q2 -6 3 -13.5t-1 -13.5q-3 -13 -19 -54
q-11 -28 -15 -40t-7 -37t-5.5 -32.5t-11 -19t-10.5 -15.5l5 -50l29 21q1 1 10 3t12.5 4.5t11 9.5t14.5 12h20q1 -4 4 -8t3 -7q0 -23 -12 -49q-5 -11 -17 -32v-30q-4 -5 -10.5 -9t-9.5 -7l-17 -17q-3 -2 -5 -9.5t-5.5 -10.5t-11.5 -3q-12 0 -16 -2l-10 -14q-26 -18 -55 -29
q-18 -7 -36 -12t-29 -5q-4 0 -25 8q-24 13 -32 18q-16 11 -25 25q-3 3 -3 10.5v10.5q-5 20 -5 23q0 7 7 22t15 31q1 3 5 22.5t7 26.5t5 22t4.5 21t12.5 16q23 24 27 31.5t9 17.5l-3 12q8 9 8 14q2 14 2 23q0 4 -1 12t-1 13q5 10 5 15q-4 11 -7 22q3 1 5.5 2.5t5.5 8.5
q2 20 4.5 36.5t10.5 29.5q10 13 12 17v31q-9 2 -15 3.5t-9 1.5t-5 -7.5t-5 -7.5q-16 -7 -26 -7q-9 0 -13 10q-9 11 -9 26q0 14 10 30q2 3 9 4t9.5 4.5t2.5 13t2 12.5t10.5 4t11 4t5.5 11.5t5.5 11t24.5 20.5q7 6 14 12.5t20 12.5t18 10t10 15t8.5 14t16 5t15 3.5t26.5 19.5
q15 11 21 11t11 -4q9 -8 14 -9.5t13 -3.5t13.5 -9.5t9.5 -25.5t4 -28v-26z" />
    <glyph glyph-name="j" unicode="j" horiz-adv-x="430" 
d="M509 1137q0 -31 -11 -50q-3 -4 -12 -7.5t-12 -6.5q-13 -9 -21 -12t-21 -3q-3 0 -9 4.5t-13 9.5q-8 2 -16 5q-17 13 -29 36t-12 53q0 13 1.5 22.5t7.5 16.5q2 3 6.5 5.5t8.5 5.5t4.5 10.5t2.5 9.5t11 4t11 2.5t12 9.5q5 4 10 4q23 0 40 -14q3 -10 8 -14.5t12.5 -11
t9.5 -16.5q2 -6 1 -17t-1 -16q1 -1 6 -13t5 -17zM428 751l-17 -60q-1 -4 -7.5 -11.5t-7.5 -10.5l-10 -46l-31 -72q-2 -4 3 -17.5t4 -16.5q-3 -10 -10 -23q-10 -18 -11 -21q-4 -8 -7 -28.5t-6 -29.5l-16 -16q-2 -7 -5 -37t-5 -36q-10 -15 -12 -22l-10 -43q-3 -7 -11.5 -17
t-10 -17t-1.5 -22q0 -9 1 -23.5t0 -19.5q-2 -8 -9 -22t-9 -20t-4 -28.5t-3.5 -28t-7.5 -10.5t-10 -15l-14 -52q-3 -8 -14 -25q-6 -10 -7.5 -14t-2.5 -13.5t-3 -13t-9.5 -8.5t-10.5 -9t-6 -15t-6 -19q-4 -5 -7.5 -12t-3.5 -12q-1 -5 -2 -16.5t-3 -14.5q-13 -10 -20 -19
l-5 -15q-7 -10 -24.5 -27.5t-27.5 -28.5q-4 -5 -18 -16q-27 -22 -33.5 -28t-21.5 -19q-4 -3 -39 -31q-3 -3 -14 -16q-6 -8 -15 -13l-62 -40q-11 -5 -25 -9.5t-28 -8.5q-4 -1 -11 -5.5t-10 -5.5t-14 -1t-18 -1h-32t-23.5 -1t-17 -6.5t-10.5 -5.5q-5 0 -11 2q-28 9 -32 10
t-16 1.5t-16 1.5q-19 8 -19 17q0 15 12 31t34 29q5 3 19 5t20 5.5t19.5 18.5t22.5 18.5t22 7t32 8.5q5 1 12.5 -3t9.5 -4q4 0 9.5 3.5t7.5 3.5q5 1 12.5 0.5t12.5 -0.5q11 0 25 13q2 2 5 6q4 2 11 -1.5t9 -1.5q0 3 -1 7t1 5q13 10 26 19.5t17 14.5q0 5 -0.5 10.5t0.5 6.5
q9 5 17 10q18 23 35 55q13 25 25 56l7 20q4 13 7 36.5t6.5 31t11.5 18.5t16 20l22 34q5 14 9 28t8 30l10 36q2 31 5 62q2 8 11 22t10 18t1 7.5v4.5q0 8 -2 16.5t-1 9.5q4 2 9 5l32 67q1 2 1 17.5t2 26.5q10 35 21 70q1 8 1 22v10.5t-1 7.5q1 2 10.5 8.5t13.5 11.5q2 6 2 10
q-1 10 -1 14q0 9 -6.5 13t-11.5 7q-6 4 -22.5 -2t-29.5 -6q-5 0 -13.5 7t-11.5 8q1 19 2.5 31t9.5 26q3 5 12 16q23 26 25.5 33t6.5 17q18 24 51 53q23 20 33 29q5 4 8 10q8 14 12 17q13 10 26 21l19 1q8 0 13.5 2t13.5 5l24 16q10 0 22 -9t26 -25q7 -12 15 -24.5
t11.5 -18.5t3.5 -12z" />
    <glyph glyph-name="k" unicode="k" horiz-adv-x="652" 
d="M1048 -502q-2 -12 -11.5 -23.5t-17.5 -22.5q-2 -3 -11 -6.5t-12 -6.5t-6.5 -10.5t-7.5 -10t-11 -4.5t-12 -4t-15.5 -8.5t-15 -7.5t-15.5 -1t-23 1t-23 2q-5 -1 -14.5 -2t-15.5 -1q-12 0 -20 1t-16 4q-27 9 -35 10h-19.5t-19.5 -1q-8 0 -23.5 2.5t-31.5 9.5t-23 14
q-4 13 -9 25.5t-15 26.5q-2 2 -11 3t-12 3q-6 10 -18 22q-17 18 -23 26q-1 8 -2.5 16t-3.5 12l-17 23q-9 3 -17 6q-9 12 -13 17q-10 13 -14 19.5t-7.5 12t-6.5 11.5t-5 31t-4 30l-10 22q-1 5 -2 13.5t-1 14.5q1 13 1 21q0 3 -1.5 16.5t-2 24t-4 19t-7.5 10.5
q-9 6 -10.5 11.5t-2.5 22t-2.5 22t-2.5 18t-2.5 16.5t-11 9t-11.5 11.5t-7.5 23.5t-7.5 22q-6 12 -7 15q-4 11 -4 20q1 16 2 33q-7 5 -12 10l-8 21q-15 29 -29 58l4 4l4 4q-7 16 -13 33q-6 8 -18 13q-19 9 -21.5 10t-8 8.5t-10.5 7.5q-3 0 -7 -5t-7 -10q-5 -5 -11 -14.5
t-8.5 -16.5t-3.5 -22.5t-2.5 -20t-7 -10.5t-7 -8t-1.5 -5t-2 -6q-5 -13 -14.5 -27t-17.5 -27q-2 -3 -8 -1t-8 -1q-29 -46 -63 -67l-16 -10t-16 -5q-21 0 -29 4t-17 18q-4 7 -5 22.5t-2 18.5q-5 9 -9 19q0 8 9 23q14 22 19 37q1 3 2 18t3 19l13 34q9 11 19 22q6 12 13 34
q1 3 2.5 7t1.5 14v17q0 18 -0.5 36.5t-0.5 36.5q-1 3 -1 6.5v4.5v6.5t1 4.5t8.5 5.5t10.5 7t4 15.5t4 17q7 5 15 10v22q2 5 11 18q3 5 7 11.5t11 24.5q4 11 9 23q1 4 13 13q6 5 8 9.5t4 20.5t4 22t7 32t10 41l12 31q4 13 10.5 36t9.5 43q1 3 -1.5 12.5t-1.5 11.5l12 54
q3 15 13 34t12.5 27t2.5 19q-1 15 -1 22v6q2 4 3 8t7 17.5t7 16.5q6 22 9 33.5t8 23.5q1 4 9.5 9.5t9.5 7.5q7 23 7 37q0 16 -5 28q-10 -2 -14 1q-3 4 -5 15.5t-3 12.5l-28 22q-2 7 -3 10q-4 14 -4 21q0 4 13.5 13t31.5 17q4 2 11 2q8 0 11 2q25 11 51 22q5 8 11.5 11
t21.5 7.5t18 5.5q17 5 31.5 9t23.5 4q37 0 64.5 -20t27.5 -55q1 -4 1.5 -9t-1.5 -9q-3 -6 -10 -22.5t-14 -29.5q-2 -2 -8 -3.5t-7 -4.5l-21 -38q-1 -2 -1 -16q0 -6 -2 -9l-20 -62q-1 -3 -9.5 -9.5t-9.5 -9.5q-9 -20 -12 -44t-5.5 -45.5t-4.5 -41.5q-9 -18 -24 -32l-16 -14
v-12t1 -21q0 -19 -1.5 -29t-7.5 -32q-1 -3 -17 -18q-7 -6 -10 -13t-6 -30.5t-6 -32t-11 -18.5q-12 -14 -17 -23l5 -12l29 31q1 1 0 7q8 7 17 14q7 1 14 3l17 10q3 2 7.5 2.5t9 2t10.5 6.5q17 14 18 15q8 4 24.5 7t27.5 5.5t23 7.5t20 5q30 0 48 -15q7 -7 14 -21.5t10 -27.5
q7 -29 7 -62v-52v-17v-11q-2 -7 -2 -9q-3 -13 -13 -20t-14 -10l-4 -12l-16 -8q-7 -6 -11 -16q-4 -15 -6 -23t-8 -13q-2 -2 -4.5 -8.5t-7.5 -8.5q-1 -1 -7 1.5t-8 1.5q-4 0 -10 -6t-11 -7q-31 0 -41 -3.5t-18 -13.5l-6 -6q-8 -8 -8 -17q0 -13 13.5 -21t16 -16.5t2.5 -26.5
q0 -15 -1.5 -25t-2.5 -23q0 -14 6 -28q1 -2 5 -3t6 -5.5t2 -18.5q0 -11 3 -15q2 -7 15 -18q9 -7 11 -11t2 -8q-1 -7 -1 -13q2 -18 4 -35.5t5 -27.5t12 -17t11 -12q8 -21 16 -41q4 -7 16.5 -19.5t15.5 -18.5t4 -19t1 -15l3.5 -24.5t5.5 -15.5q0 -16 8 -28t17 -24
q0 -13 2 -20.5t9 -16.5q2 -3 3 -14t3 -14q12 -5 24 -11q6 -8 10 -23t6 -18l36 -60q4 -11 8.5 -36t8.5 -34q12 -28 25.5 -37t44.5 -9q54 0 65 31q5 30 10 59q5 13 12.5 21t22.5 12l33 3q20 0 31 -1.5t18 -8.5q4 -4 6.5 -16t3.5 -14.5t5.5 -5t5.5 -7.5q1 -8 -1.5 -25.5
t-2.5 -27.5q0 -7 3 -28t1 -30zM471 527q-5 9 -5 14q-14 0 -40 2.5t-35 2.5v-11.5t-3.5 -7.5t-9.5 -3t-9 -2q-2 0 -7 -4t-12 -8q-16 -4 -31 -8q-3 -2 -4 -8.5t-3 -8.5q-4 -9 -7 -17q0 -3 -1.5 -15t0.5 -16q6 -11 12 -21l12 -3h22q19 10 39 20q4 2 11 11t9.5 11t14.5 5t15 6
q10 7 20 15q6 9 9 19.5t3 26.5z" />
    <glyph glyph-name="l" unicode="l" horiz-adv-x="411" 
d="M492 1295q0 -5 -8.5 -45.5t-22.5 -92.5l-24 -82q-5 -17 -8 -46t-6 -39l-27 -85q-8 -28 -23 -79q-11 -37 -11 -48q0 -4 -17 -49.5t-20.5 -56.5t-8 -38t-9.5 -40q-4 -19 -11.5 -36.5t-15.5 -36.5q-2 -18 -3.5 -39.5t-5.5 -38t-22 -59.5q-10 -23 -14 -38t-11.5 -46
t-10.5 -35l5 -24h6q13 3 29 15q5 4 49 42q29 25 33 25q15 0 22.5 -14.5t7.5 -37.5t-13 -56q-7 -17 -17 -38q-16 -29 -24 -43q-14 -25 -28 -42q-39 -48 -85 -75l-38 -24q-23 2 -32 2q-15 -1 -29 -2q-41 12 -71 55q-25 37 -25 63q0 4 5 21.5l9 31.5l14 65l20 54q7 23 12.5 47
t11.5 47q9 14 15 25.5t12 30.5q1 3 0 13.5t0 14.5q4 12 8.5 37t8.5 45q1 4 9 7t9 6q7 20 8.5 38.5t1.5 38.5q0 32 6 49q9 16 19 33q3 35 6 81t10 88q6 9 9 16q23 43 42 97q1 2 8 48q3 19 5 24t26 59q12 27 12 36q0 27 -8 37q-4 5 -19 10.5t-21 11.5q-10 10 -10 31
q0 10 16 27t39 30q4 2 13 3t14 4q50 20 59 23q33 12 52 12q33 0 50 -14t17 -44z" />
    <glyph glyph-name="m" unicode="m" horiz-adv-x="1188" 
d="M1123 705q0 -15 -4 -34t-6 -31q-10 -19 -14 -29q-5 -19 -14 -39q-3 -12 -4.5 -20t-4.5 -16.5t-9.5 -20t-6.5 -13.5l-10 -24v-29q-2 -9 -13 -33q-6 -14 -7.5 -20.5t-1.5 -18.5q0 -13 -1.5 -18.5t-8.5 -13.5t-8 -12q14 -5 19 -5q9 0 20.5 1t25.5 3q7 0 11.5 -1t8.5 -4
t13 -16q6 -9 9.5 -23.5t3.5 -36.5v-18q0 -21 -7 -32q-10 -19 -29 -37l-20 -14q-1 -3 -1 -10q0 -8 -2 -10q-8 -10 -17.5 -21t-22.5 -24q-2 -2 -11.5 -4.5t-10.5 -3.5q-9 -9 -25 -27.5t-28.5 -26l-25 -15t-23 -12t-18.5 -5.5t-20 -1q-20 1 -29 1q-10 -1 -16 -1t-9 1
q-11 5 -20.5 13.5t-17 21t-7.5 41.5v22q0 4 5 17.5t5 18.5q1 8 0 17t-2 17q0 8 1 13q5 17 7 26t8.5 21.5t9 18t12.5 19.5t14 23l8 17q2 4 -0.5 13t-0.5 13l17 41q2 6 5 21t5 21l15 46q1 2 5.5 1t5.5 1q1 7 -1 22t-1 21q3 10 7 19t10 22q1 6 8 16t7 14l2 31q0 23 -4.5 28.5
t-24.5 5.5q-24 0 -37 -10q-9 -7 -13 -10.5t-8 -8.5l-5 -19q-11 -13 -17 -20q-10 -13 -19 -27q-10 -4 -14 -9q-2 -10 -3 -20q-9 -11 -12 -17q-1 -2 -5 1t-5 2q-2 -4 -3 -16.5t-2 -14.5l-40 -71q-2 -4 -5 -14.5t-5 -14t-9.5 -6.5t-9.5 -5q-3 -12 -5 -24q-2 -4 -11 -10
t-11.5 -10.5t-6.5 -19.5t-6.5 -21t-3.5 -8l-8 -14l-9 -29q-10 -9 -14 -14q-3 -18 -5 -36q-5 -18 -9 -31q-6 -13 -7.5 -17.5t-6.5 -5.5t-6.5 -5.5t-4.5 -22t-5.5 -23.5t-18.5 -18l-22 -29q-10 -4 -19 -8q-11 -10 -16 -14q-11 -9 -18.5 -11.5t-13.5 -2.5q-13 1 -20 1
q-22 0 -34 3.5t-17.5 11t-8 17t-3.5 14.5l-14 27l7 41l29 80l15 22l11 50l12 22l8 39l22 68l7 16l2 36l15 18l7 41l9 45l22 34v24q-5 19 -5 39q-9 5 -16 5q-3 -8 -5 -10q-10 -5 -19 -10q-1 -8 -1 -16q-24 -24 -48 -47q-3 -4 -14 -11.5t-13 -9.5q-4 -7 -2 -12t5 -10
q-3 -1 -7 -2t-10 -7q-11 -8 -21 -30q-2 -6 -3 -24.5t-5 -28.5q-10 -9 -11.5 -12.5t-1.5 -7v-4.5q0 -8 -2 -12q-23 -28 -45 -56q-2 -14 -5 -21l-10 -17q-1 -3 -7 -4t-7.5 -5t-2 -18t-1.5 -20t-2.5 -16.5t-7.5 -20.5q-12 -10 -23 -20q-2 -3 -2 -7.5t-2 -7.5l-24 -41
q-8 -4 -15 -7q-1 -2 2.5 -11.5t2.5 -12.5q-6 -16 -10 -24q-9 -15 -14 -24q-2 -6 -9.5 -21t-12.5 -20q-13 -15 -25.5 -23t-27.5 -8t-26 5t-23 16q-4 3 -7.5 10t-6.5 15q-10 19 -14 27q-7 14 -7 20q0 3 6.5 12t8.5 14.5t2 16.5t2 18q6 13 12 27q2 17 5 34q2 5 11 10.5t11.5 12
t5.5 29.5t6.5 31.5t13.5 16.5l9 6q1 4 1 10v9q0 16 -0.5 31t-0.5 30v12q1 3 8 12q8 15 16 36t13 38l4 27q0 7 -13.5 15t-24.5 15t-16 10q-8 6 -14.5 13t-10.5 28.5t-5.5 25.5t-7.5 12t-6 14q0 7 9 22q4 7 10 15l15 18q19 9 38 19q3 4 4 13t6 14l24 15q5 4 19 10.5t20 8.5
q24 15 43 23t34 8q8 0 24 -18q13 -15 19 -22q9 -8 12 -12q12 -12 12 -18l1 -45q0 -23 -2.5 -38.5t-6.5 -22.5t-12.5 -10t-8.5 -7q0 -7 10.5 -19.5t18.5 -18.5q12 5 18 7q10 5 18 17q1 2 1 16.5t2 17.5q7 11 18 23q33 37 35 40l36 40q4 4 8.5 15t10.5 15.5t22 10.5t27 11
t20.5 9t17 5t19 1.5t16.5 0.5q2 0 5 2.5t7 6.5q10 -7 16 -12q16 -13 34 -31q4 -4 12 -9.5t11.5 -11.5t3.5 -17v-13q1 -17 1 -29q0 -8 -1 -12l-8 -48l-9 -48q-1 -8 -3 -11l-4 -6q0 -10 7 -14.5t20 -7.5l14 -5l22 30q3 6 6 19t6 19l21 38l30 49l29 33q4 3 7 16t8 17t24 10
t23 9q16 9 31.5 17t30.5 12.5t32.5 8t33.5 3.5q18 0 29 -1.5t24 -8.5q8 -9 16.5 -16t12.5 -10.5t8 -9.5q8 -7 12 -11q9 -8 10.5 -13.5t2 -16.5t1.5 -20z" />
    <glyph glyph-name="n" unicode="n" horiz-adv-x="759" 
d="M749 643q-8 -14 -14 -24t-6 -13l-36 -120q-1 -4 1 -22.5t1 -21.5q-10 -19 -19 -38q-4 -12 -7 -48t-5 -42q-12 -7 -14 -9q-5 -8 -10 -15q0 -7 6.5 -16t13.5 -9q12 0 28 8q6 3 14 9q2 1 6 5q15 0 23 -15.5t8 -30.5q0 -14 -4.5 -31.5t-14.5 -35.5q-5 -3 -11.5 -6t-7.5 -6
v-14q0 -3 -3 -8t-13.5 -14t-12.5 -12l-20 -18q-2 -3 -4 -11.5t-5 -11.5l-14.5 -14.5t-17.5 -14.5q-3 -2 -10.5 -2t-11.5 -1q-21 -14 -31 -20q-17 -11 -27 -15t-22.5 -5t-23.5 -1q-27 0 -48 18q-24 21 -24 55q0 2 7 12.5t10 20.5q-2 15 0 20q5 8 9.5 15.5t5.5 12t1 14.5
q-1 15 -1 23q-2 6 -3 12q2 8 8 20l9 18q8 29 17 58q8 18 17 36l12 58q1 2 8.5 16t8.5 18l9 37q0 3 6.5 10.5t6.5 8.5q7 20 10 32.5t7 30.5q2 7 -1 12t-5 9q0 4 11 20t11 22q-9 23 -14 34q-18 35 -34 35q-11 0 -28 -10t-37 -30q-8 -15 -13 -22q-13 -14 -19 -21
q-12 -14 -21 -28q-13 -20 -23 -39q-14 -26 -24 -48q-16 -7 -18 -11q4 -8 4 -13q0 -3 -2 -8.5t-4 -12t-15 -34.5q-8 -17 -10 -24q-9 -15 -17 -29q-1 -5 -1 -14q0 -8 -2 -15.5t-13 -27.5q-4 -8 -7.5 -14t-7.5 -8.5t-5 -5.5q-3 -8 0 -23.5t2 -19.5q-12 -7 -14 -10
q-7 -12 -10.5 -22.5t-6 -25t-5.5 -25.5q-10 -39 -32 -88q-10 -24 -37.5 -41t-54.5 -17q-75 0 -91 58l-3 36q-4 7 -7 14q0 27 19 72q3 8 25 54q9 26 19 53q17 28 34 57q2 4 4 25.5t5.5 29t23.5 34.5q8 10 9.5 18t6 24.5t4.5 18.5q1 3 -4 10t-5 8q5 3 8 6q11 10 20 25
q1 2 1 7.5v7.5q0 7 2 11l7 13l-2 35l-22 -24q-3 -2 -13.5 -6t-13.5 -6q-25 -14 -50 -14q-17 0 -19 6t-2 16t-1 16l-10 24q5 8 8 18q9 21 20.5 44.5t27 40t38.5 32.5q14 9 42 25q8 4 28 18t27 14q13 0 28 -4t33 -18q3 -2 4 -9t2 -8l24 -12q10 -8 16.5 -20t6.5 -19
q0 -17 -8 -44q-2 -7 -3 -24t-2.5 -23.5t-9 -17t-7.5 -17.5q10 -2 15.5 2t9.5 7q9 6 11.5 9.5t3.5 8t4 8.5q39 49 79 99l15 9q8 9 23 22l16 12q2 5 5 10l21 4q6 5 9 8q7 8 10 9q27 8 61 8q19 0 36.5 -0.5t33.5 -5.5l8 -7q3 -1 7 -1t10 -1t7 -9.5t2 -10.5q8 -7 12 -11
q8 -8 10 -13q6 -11 8.5 -29t2.5 -41l-2 -26q0 -3 2 -7t1 -7z" />
    <glyph glyph-name="o" unicode="o" horiz-adv-x="561" 
d="M577 543q0 -7 -2.5 -12.5t-4.5 -11.5l3 -16q-5 -8 -5 -13v-29q-1 -10 -7 -28l-10 -52q-1 -6 -1 -18q0 -11 -2 -17q-10 -6 -12 -11v-26l-22 -51q-11 -4 -13 -7.5t-4 -21.5t-4 -21l-20 -27q-5 -8 -17.5 -17.5t-16.5 -15t-7 -10.5q-8 -17 -12 -20.5t-12.5 -16t-13.5 -17.5
q-13 -4 -20 -9q-3 -2 -14.5 -15.5t-18.5 -16.5l-17 -12l-42 -26q-5 -1 -17.5 1t-15.5 1q-4 -1 -11.5 -7.5t-12 -8.5t-13 -2t-13.5 -1h-22q-33 0 -60 18.5t-44 49.5q-4 7 -9 22.5t-6 18.5l-7 17q-4 10 -5.5 21.5t-2.5 23.5q-3 13 -7.5 32t-4.5 27l-7 55q-1 6 -8 17t-9 16.5
t-3 20t-1 23.5q0 6 3.5 20t8.5 31q1 2 5.5 7.5t5.5 7.5v19q6 10 10 17q2 18 5 36l26 48q1 2 6 3.5t6 3.5t0 12.5t1.5 15.5t8.5 12l12 14q2 6 5 12.5t7 11.5q10 9 12.5 12.5t5.5 13.5t6 13q8 10 18 22t17 18q4 2 14 2q11 0 14 3l17 14q1 1 2 1q8 4 13 9q5 13 9 17q6 1 13 2
q31 25 62 51q4 2 15 2t14 1q6 7 13 14q8 0 15.5 -4.5t13 -5.5t14.5 -1t14 -1q8 0 17.5 -5t14 -7t22 -8.5t23.5 -12.5q2 -1 3 -8t3 -10q8 -7 17 -14q2 -2 4 -8q6 -15 8 -18.5t6.5 -8.5t5.5 -8l17 -32q3 -5 7 -18.5t9 -34.5q0 -6 -2 -15t-2 -16q4 -19 9 -37zM442 611
q0 10 -2.5 17.5t-8 15t-9 14.5t-7.5 11q-10 11 -21 15q-14 7 -27 7q-8 0 -17.5 -5t-17 -9.5t-16.5 -10.5q-4 -4 -6.5 -14.5t-7.5 -18.5q-1 -2 -16 -10q-7 -4 -10 -9l-18 -35q-2 -4 -1 -12.5t1 -10.5q-4 -13 -9 -22q-9 -14 -12 -20q-7 -15 -13 -23t-16 -17q-3 -1 -6 -2.5
t-6 -7.5l-1 -20l-12 -12q-1 -2 0 -12.5t0 -13.5q-4 -11 -9.5 -29.5t-9.5 -33.5q-7 -7 -9 -12l-1 -14l-11 -41q-6 -5 -8 -11.5t-2 -11.5q2 -14 2 -19q0 -3 -1 -6t-3 -6q0 -7 0.5 -11.5t3.5 -15.5q1 -11 2 -21q8 -7 9.5 -9t7 -16t8 -18t3.5 -9.5t2 -7.5q8 -4 17 -8l14 -16
q4 4 10.5 5.5t8.5 3.5l25 20q3 3 11.5 2t11.5 2l13 8q2 1 0.5 5.5t-0.5 5.5q10 8 16.5 17t12.5 17.5t15.5 19t12.5 17.5q1 13 1.5 21.5t2.5 15t5 14.5t6 14q5 16 7.5 25t7.5 16l16 33l17 49q1 2 6.5 8.5t7.5 12t3 15t1.5 13.5t5.5 12t6 11l4 37q-5 5 -5 9v23t3 23l5 15
q7 16 7 31z" />
    <glyph glyph-name="p" unicode="p" horiz-adv-x="640" 
d="M630 558q0 -5 1 -19t1 -17v-16q-3 -8 -4.5 -13.5t-15.5 -32.5q-6 -12 -10.5 -23t-13.5 -49q-5 -21 -9 -29t-17.5 -24.5t-20.5 -29.5q-9 -30 -17 -59q-6 -9 -12 -17q-21 -26 -22 -28q-6 -8 -25 -21q-12 -8 -17 -13.5t-11 -14.5q-9 -14 -17 -27l-19 -17q-4 -3 -12.5 -3
t-13.5 -3l-46 -42q-6 -2 -18.5 -4t-18.5 -3q-3 0 -10 -4.5t-9 -4.5q-15 1 -29 2q-6 -3 -11 -5t-8 -2q-2 1 -11 7.5t-13 4.5q-3 -2 -1.5 -10t-0.5 -11t-12 -6t-11 -5q-8 -11 -11 -17q-6 -11 -7.5 -17.5t-1.5 -15.5q0 -7 1 -22t0 -20q-2 -9 -6.5 -25.5t-5.5 -23.5t-1 -17v-15
q0 -17 -2 -22q-6 -8 -11 -17q-2 -12 -3 -25q-2 -5 -10 -16t-9 -13q-1 -4 1 -6.5t4 -5.5q1 -2 0 -12l-8 -41q-1 -4 3 -13t4 -10q-8 -5 -16 -11q-1 -6 -2 -15t-1 -16q0 -50 24 -62q8 -3 18 -4.5t23 -1.5h13q13 -2 23 -13t10 -30q0 -30 -29 -48l-28 -20q-3 -1 -13.5 1.5
t-13.5 1.5q-25 -5 -29 -6q-36 -9 -54 -9q-9 0 -18 0.5t-23.5 3t-25.5 9t-19 7.5q-7 1 -21 0t-33 -2q-9 0 -17 2q-19 7 -28 12q-15 8 -24 15q-14 11 -19.5 23t-5.5 29q0 10 14.5 23.5t22.5 20.5q5 2 17 2t17 3q14 9 25 25q8 12 16 33q4 12 6.5 31t4.5 34q0 12 4 35t6 38
q7 14 13 29t11 31q10 27 13.5 43t3.5 31q1 9 1 35t1.5 36.5t7.5 18t8.5 12.5t6 17t6.5 22t6 38.5t4 33.5t6 11t11 14q1 9 6.5 25.5t5.5 23.5q-9 6 -9 10q0 1 13 25q6 11 6 14q-3 12 -3 20q0 19 -1 31.5t-2 23.5q0 7 2 13t11.5 15.5t12 19.5t2.5 45t4 49q1 4 10 15.5t11 17.5
t2.5 15t1.5 20q8 21 19 40q7 12 7 20q0 7 -19.5 10t-25 4.5t-12.5 6.5t-11 9q-16 10 -16 26q0 12 6 22q3 5 15 19q7 10 11 15q8 10 19 12.5t25 5.5t19.5 12.5t7 26.5t1.5 46q0 15 5 31q7 17 10.5 27.5t8 17.5t13 10.5t25 6.5t29.5 6q5 0 13 4q18 9 21 9q22 0 38 -10.5
t23 -27t7 -36.5q0 -16 -4 -37t-4 -22q0 -22 8.5 -30.5t26.5 -8.5q13 0 31 5q33 7 67 14q55 0 87.5 -14t50.5 -53q11 -24 15 -56.5t4 -83.5zM488 572q0 21 -34.5 37t-57.5 16t-54 -6.5t-39 -17t-18 -58.5q-2 -24 -3 -48l-31 -114l-17 -46q-1 -5 -1 -13q1 -12 1 -17
q0 -4 -2 -10q-10 -19 -14 -27q-1 -7 -1 -14.5v-11.5v-17q0 -12 0.5 -22.5t6.5 -18.5q13 -13 37 -13q10 0 14 1.5t19 10.5l30 18q17 22 30 53q4 11 10 29q0 5 7 13.5t8 12.5v29q4 13 13 29q15 26 30 53q20 31 41 63q2 15 4 25.5t16 45.5q5 13 5 18z" />
    <glyph glyph-name="q" unicode="q" 
d="M614 640q-3 -7 -3 -19v-31q0 -25 -2.5 -34.5t-17.5 -38.5q-9 -17 -12 -29q-4 -9 -5.5 -28.5t-3.5 -27.5q-5 -11 -7.5 -18.5t-2.5 -12.5l-4 -24q-9 -13 -18 -25q1 -11 1 -25q0 -10 -1 -16.5t-6 -19.5t-6 -20t-7.5 -20t-6.5 -15q-2 -5 0 -12t2 -11q-6 -23 -12 -44t-16 -50
q-13 -36 -25 -71q-5 -9 -14.5 -22.5t-11.5 -20.5q-2 -5 1 -15t3 -14q-4 -17 -13 -43t-11 -32q-1 -5 1.5 -17t1.5 -14q-8 -10 -15 -20q-3 -14 -5 -45.5t-5 -43.5q-10 -15 -19 -31q-2 -5 -5.5 -25t-11.5 -38q-12 -10 -13.5 -14t-2.5 -15t-1 -12l-11 -25l24 -14
q14 -12 23.5 -27.5t9.5 -28.5q0 -5 -8 -17.5t-21 -23.5q-14 -5 -19 -9q-3 -1 -8.5 -5.5t-10.5 -4.5q-3 0 -11 4t-13 4h-69.5t-71.5 -1q-8 8 -17 22q-12 19 -12 31v11t3 13q13 16 20 25q14 18 19 34q2 6 -1.5 16.5t-1.5 16.5q6 27 13 54l4 28l-4 13q3 4 5 20.5t5.5 21.5
t17.5 21q11 12 14.5 20t5.5 22.5t3.5 21t7.5 15.5t6 12q1 4 -2 19.5t-3 17.5q3 11 8 18q11 15 23 30q7 9 12.5 17t11.5 21q2 4 2 25.5t3 28.5q7 9 10 14q0 1 1 12.5t3 13.5q2 6 8 14q15 21 16 24t5 18.5t8 21.5q3 12 7 24q5 7 8 9t4 3q0 7 -1.5 17t-1.5 12q-15 5 -18 5
t-4 -9t-2 -13t-8.5 -10.5t-10.5 -11.5l-19 -33q-3 -6 -13 -11t-13 -11q-12 -20 -28 -35.5t-31 -24.5q-3 -1 -5.5 -5t-9.5 -5.5t-15 -3t-15 -6.5q-10 -12 -16 -18q-21 -18 -42 -18q-14 0 -46 21q-11 6 -22 13q-3 2 -5 10t-3 9q-6 4 -12 9q-11 16 -17.5 47t-6.5 58l12 98l8 22
q3 21 3 37v9.5t-1 6.5q1 3 6 6q12 7 14.5 14t6.5 19q6 1 12 3q0 1 2 16.5t7 29.5q0 2 4.5 6.5t5.5 13.5t2.5 17.5t6.5 11.5q11 9 13 11q5 17 7 22q9 16 24 35q9 11 18.5 23t25.5 27q13 11 26 23q2 10 5 14q19 14 51.5 30t38.5 19q11 -2 16 0q3 2 10.5 14.5t13.5 18
t22.5 11.5t21.5 11l14 22q4 4 8 7.5t12 5.5q2 1 22 -4t24 -4l36 8q40 0 79 -68q35 -62 35 -109zM444 592q0 26 -3 36q-7 24 -28 24q-10 0 -21 -5q-5 -2 -13 -7q-10 2 -19 -2q-4 -1 -8.5 -5t-8.5 -7l-17 -10q-6 -4 -6 -7q0 -12 -3.5 -16t-22.5 -18q-10 -8 -14 -12
q-12 -14 -18 -28.5t-11 -27.5q-4 -6 -11 -15.5t-10 -15.5l-12 -31q-3 -6 -10 -13q-11 -11 -22 -21q-5 -9 -9 -21.5t-8 -25.5q-15 -47 -22 -64q-2 -8 -3 -21t-1 -18q0 -31 5 -37t35 -6q16 0 25.5 1.5t23.5 10.5q3 2 12.5 13t14.5 15l57 42q3 4 3 17.5t7 20.5q16 13 32 27
q5 8 6.5 20.5t3.5 20.5t7 17l14 36q2 3 10 11t10.5 15t9 23t8.5 24l1 35q1 3 5.5 6.5t7 8t3 7t0.5 3.5z" />
    <glyph glyph-name="r" unicode="r" horiz-adv-x="551" 
d="M625 748q0 -4 -4.5 -6.5t-4.5 -5.5t4 -10t3 -11q-3 -21 -5 -41l-14 -34q-4 -8 -8.5 -12.5t-8.5 -9.5q-10 -16 -14 -21q-25 -22 -27 -23q-9 -6 -17 -6q-20 0 -32 12q-5 4 -9 10.5t-7 13.5q-6 7 -12 9.5t-12 2.5q-1 -1 -2 -1q-7 -4 -13 -11q-5 -2 -8 -3.5t-4.5 -7.5
t-4.5 -11l-22 -34q-2 -3 -12.5 -16t-15.5 -23l-8 -28q-1 -2 -2.5 -9t-3 -10.5t-10.5 -12.5t-11.5 -21.5t-4.5 -29.5l-28 -38q-4 -6 -7 -23t-6 -23q-12 -8 -23 -15q1 -16 1 -26q0 -4 -1.5 -10t-4.5 -9q-9 -10 -10 -12l-22 -56q-2 -3 -0.5 -15t0.5 -14l-12 -26q-4 -11 -5 -16
q-5 -14 -10 -25l-12 -8q-3 -4 -5 -16t-4 -15l-14 -20q-8 1 -10.5 -1t-7 -11t-7.5 -12l-10 -5q-9 -5 -17 -9.5t-14 -4.5q-20 0 -39 10q-17 5 -33 11q-15 15 -22 32q-1 5 -2 14.5t-1 17.5q0 4 0.5 9.5t5.5 16.5q7 9 14 19q-2 11 -3 22q1 7 3 15.5t9 25.5q2 5 8.5 15.5
t8.5 16.5t2.5 26t3.5 29q9 35 19 70l12 44q1 2 9 8.5t10 10.5l8 22q1 1 5.5 4.5t5.5 8.5t3 22t4 30t5 29q6 7 13 14q-1 15 -1 30l12 28l-2 20q-24 0 -39.5 -1t-29.5 -2q-14 0 -19 3.5t-10 16t-6 19.5q-3 6 -5 12q0 16 32 51q12 2 15.5 5.5t13.5 16.5q7 9 10 12q-1 12 2 16
q13 12 26 25q17 5 22 9q11 8 20 8q5 0 11.5 -3t14.5 -7q13 -2 23.5 -4.5t18.5 -8t18 -19.5q7 -11 15 -22q3 -4 11 -6.5t9 -7.5q1 -2 -3 -7t-3 -8q5 -7 8 -12q2 -9 4.5 -16.5t17.5 -7.5l16 -2q10 3 18.5 7.5t17.5 14.5v14q3 6 9.5 13.5t12.5 15.5q0 1 6 3t7 4l14 12q4 9 9 18
q5 5 15.5 11.5t16.5 9.5q8 7 17 14q3 1 14.5 0t19.5 0q10 8 16 8q8 0 16 -3t15.5 -5t12.5 -3t8 -4q9 -8 16 -23.5t7 -27.5z" />
    <glyph glyph-name="s" unicode="s" horiz-adv-x="560" 
d="M556 688q0 -32 -19.5 -46t-46.5 -14q-20 0 -43 15q-9 6 -39 31l-58 -8q0 -18 -2.5 -42t-2.5 -28q0 -17 -2 -23t-8 -9q-1 0 -4 -1l7 -14q12 -25 19 -46q0 -5 5 -12.5t7 -14.5q2 -33 5 -66q1 -5 -1.5 -9t-2.5 -8t13 -36q6 -15 6 -28q0 -5 -6 -19t-6 -20q1 -12 8 -27
q12 -28 14 -34.5t4.5 -14t2.5 -19.5q0 -14 -5 -26.5t-8 -20.5l-11 -46q-3 -8 -10 -15l-24 -24q-3 -4 -3 -9q0 -8 -4 -11q-15 -9 -20 -14q-12 -9 -23.5 -16t-23 -10.5t-25.5 -3.5q-12 0 -26 1t-27 2q-16 -5 -32 -11q-15 0 -37 9t-27.5 11t-12.5 10t-12 10q-19 7 -37 15
q-18 15 -28 34q-4 11 -5.5 23t-1.5 32v19q0 13 21 30t39 17t33 -5.5t29 -21.5q8 -14 17 -27q10 -8 20 -13.5t21 -5.5q16 0 26.5 2.5t15.5 8t6.5 15.5t3 17t1.5 24.5v26.5q0 7 1 15q0 6 -2.5 11t-4.5 11l2 16l-7 15q-3 14 -5 24.5t-2 18.5q0 11 -8.5 34.5t-16 46t-12 45
t-6.5 41t-3 27.5t-1 14q0 7 2.5 16t3.5 15l12 36q9 28 19 56q7 10 17.5 21t21.5 22q2 2 14 18q4 6 10 11q24 20 36 29q21 16 39 23q5 1 18 1q14 0 17 1q11 6 23 12q8 2 17 3.5t14 1.5q49 0 87 -43q34 -39 34 -76z" />
    <glyph glyph-name="t" unicode="t" horiz-adv-x="445" 
d="M534 737q0 -26 -7.5 -41t-21.5 -24q-13 -6 -28.5 -9t-36 -3.5t-32.5 -0.5h-50q-4 0 -10.5 6t-11.5 4q-11 -5 -25 -41q-8 -21 -17 -41q-11 -11 -21 -22q-2 -7 -4 -25.5t-3 -27.5q0 -8 -4 -15q-13 -24 -13.5 -28.5t-0.5 -17.5v-20q0 -12 -3 -20.5t-15.5 -42.5t-17.5 -57
q-3 -9 -4.5 -26t-3 -23t-11.5 -13t-10 -13l6 -18q7 -18 12 -18q24 0 45 17q8 6 34 36q8 6 17 13q9 12 14 17q10 11 20 11q11 0 16.5 -12.5t5.5 -28.5q0 -15 2.5 -38t2.5 -26q0 -16 -8 -35.5t-13.5 -34t-7.5 -20.5q-7 -18 -15 -27q-9 -13 -32 -25q-32 -17 -36 -20l-24 -10
q-30 -16 -61.5 -23.5t-63.5 -7.5q-19 0 -35.5 8.5t-31 25t-24 40t-9.5 39.5q2 2 3 4q8 13 17 40q3 22 7 45l10 48q3 8 13 25q7 11 8 15q-4 22 -7 45q1 5 7 5q12 0 13 4t1 11q-1 15 -1 31q6 21 14.5 63.5t9.5 49.5l17 71q14 62 14 72q0 8 -10 16.5t-21.5 18.5t-18.5 23
q-10 18 -10 38q0 14 7 24q2 3 19 20q22 17 24 19q13 9 27 15q8 2 10 2q10 -1 14 -1q6 0 8.5 4.5t4.5 19t4 31.5q8 47 34 83q37 52 94 52q18 0 36.5 -7t26.5 -23q3 -6 3 -20v-16q0 -21 -4 -40.5t-13 -39.5q-1 -2 -9 -8t-8 -11q0 -14 10 -22q4 -3 24 -11q5 -2 11.5 -7.5
t12.5 -5.5l45 -4q6 -1 20 -1h24.5t16.5 -2q29 -11 29 -38z" />
    <glyph glyph-name="u" unicode="u" horiz-adv-x="768" 
d="M730 331q0 -7 -4.5 -19.5t-13.5 -29.5q-3 -7 -4 -29.5t-5 -28.5q-12 -23 -24 -40.5t-22.5 -27t-18.5 -16.5v-19q-8 -15 -30.5 -41.5t-47.5 -48.5q-1 -1 -4 -10.5t-5 -11.5q-10 -8 -16 -12.5t-13 -6.5q-12 3 -19 3q-9 -2 -23.5 -9.5t-22.5 -7.5q-19 0 -31.5 8.5
t-21.5 25.5q-3 16 -5 33q-6 8 -6 13q0 12 3 32t3 33q-2 5 -3 10q0 5 3 25q7 46 7 49q0 14 -3 15.5t-4 6.5q-2 2 -3 2q-5 3 -7 3q-3 -4 -4 -6q-5 -7 -10.5 -8.5t-13.5 -6.5t-33 -30q-9 -4 -12.5 -6.5t-10.5 -25.5q-3 -10 -6 -14l-16 -17q-4 -5 -16 -10.5t-16 -8.5
q-5 -10 -9 -20l-18 -12q0 -16 -2 -18q-16 -14 -33.5 -24.5t-38.5 -17.5h-19q-14 -7 -23 -10.5t-19 -3.5q-32 0 -59 40.5t-27 85.5q0 1 20 45q15 33 23 53q1 3 6 6t6 6.5t1 13.5q-2 21 -2 31q0 9 3 18q7 11 15 22l14 82l22 55q7 6 15 12q7 23 9 27v46q-8 1 -14.5 -2t-11.5 -5
l-25 3q-4 2 -7.5 10.5t-3.5 10.5q-4 8 -8 17q0 2 6 14l9 18q2 9 4 17t9 19.5t16 25.5q2 3 3 9t4 11l15 19q7 8 26 22t25.5 20t17.5 11.5t14 7.5t3.5 10t3.5 10.5t7.5 5t7.5 4.5q13 5 24.5 9.5t21.5 8.5q25 0 61 -27.5t36 -57.5q3 -6 4.5 -13t-1.5 -13q-2 -9 -3 -17
q-7 -4 -14.5 -8.5t-9.5 -6.5l-22 -48q-1 -2 0.5 -11.5t1.5 -10.5l-18 -39v-28q-9 -15 -17 -30q-2 -5 -4 -18t-3.5 -16t-7.5 -4t-7 -3q-1 -3 1.5 -16.5t2.5 -16.5l-14 -25q-2 -13 -3.5 -23.5t-5.5 -19.5l-17 -53q-1 -5 -7.5 -15.5t-7.5 -15.5q-5 -13 -6 -26t-1 -28v-14
l-5 -13h17q4 8 12 18q2 2 9.5 5.5t10 7.5t3.5 11t6 16l79 124q10 15 50 60q21 23 30 37q4 5 5 16t3 15q6 9 16 20q21 22 24.5 28t7 19t5 15.5t7.5 11t7 18.5t2.5 19t6.5 10.5t6 2.5q8 10 15 21.5t9 15.5t2 12q0 10 2 15l18 48q12 29 50 29q20 5 27 5q30 0 54 -22
q21 -19 21 -37q0 -4 3 -13t2 -15q-1 -7 -5 -15q-7 -14 -8.5 -18.5t-1.5 -9.5q0 -15 -2 -18q-5 -12 -13 -25t-16 -25q-3 -6 -5 -24.5t-4.5 -25t-13 -15t-13.5 -15.5q-7 -13 -7 -35q1 -16 1 -24q0 -6 -1.5 -13.5t-6 -16t-6.5 -13.5q-7 -18 -10 -26q-6 -15 -8.5 -18t-17.5 -9
q-7 -3 -7 -16l-13 -49q-5 -18 -7.5 -28t-7.5 -18.5t-11 -8.5h-9l6 -17l10 -7l-16 -17l12 -3q1 0 12 -2t14 0q2 1 2.5 13t2.5 15q8 6 17 13q2 3 4.5 11.5t4.5 16.5q4 9 18 31q4 6 12 20q1 2 5.5 3.5t6.5 3.5q4 10 9 20q10 10 20.5 16t23.5 6q14 0 24 -8t10 -26z" />
    <glyph glyph-name="v" unicode="v" horiz-adv-x="937" 
d="M891 507l-2 -26l-3 -39q-12 -15 -13.5 -20.5t-1.5 -9.5v-6q1 -13 1 -22t-14 -33q-7 -12 -8 -18l-7 -21l-3 -25q-3 -5 -9 -11q-14 -27 -20 -36q-10 -15 -28 -23q2 -4 4 -9t2 -13q0 -4 -1.5 -9.5t-5.5 -7.5t-5 -6l-4 -24q-14 -8 -19 -17q-1 -2 -4 -11t-6 -14
q-21 -31 -60 -60q-14 -10 -30 -21t-33 -16t-37 -10.5t-36 -5.5q-3 0 -19 3.5t-26 3.5q-5 0 -6 -4t-7 -3q-39 5 -56.5 9.5t-29.5 11t-19 12.5t-13 13q-2 3 -11 5t-11.5 5.5t-6.5 20t-7 21t-22 23.5t-22 26q-9 23 -9 53q0 8 1 26t1 28q0 17 -9 37l-10 20q3 2 4 4q5 7 8 20
q-3 17 -2 22q1 3 9 18t10 25q2 4 0.5 16.5t-0.5 15.5q2 9 8 19q17 31 18 32l12 46q13 10 18 15.5t7.5 12.5t4 9t5.5 13.5t7 14.5v27q-18 -3 -30 0q-6 1 -14 6t-15 10q-4 1 -10.5 2t-18.5 1h-22q-33 0 -61 -7.5t-44 -26.5q-7 -7 -12.5 -13.5t-5.5 -17.5q0 -13 9 -25.5
t18 -23.5q19 -30 19 -70q0 -13 -19 -25.5t-44 -12.5q-15 0 -26 3t-24 13q-5 4 -12 15t-10 13.5t-19 2.5q-8 0 -10 6q-5 8 -7.5 29t-4.5 39q-5 10 -9 21q0 3 2 5q8 8 10 12.5t6.5 16.5t10.5 23t16 24q19 25 20 26q27 37 38 51q23 30 49 45q15 11 45 24l22 12q28 3 54 5t50 2
q4 0 25 -5q8 -2 16 -2q7 3 15 5h23h26q12 2 16 2q5 0 14 2.5t12 2.5q18 0 39.5 -9.5t21.5 -29.5q1 -5 1 -12t-4 -16l-10 -22q-6 -4 -11 -8q-1 -9 -1.5 -16t-1.5 -9.5t-8.5 -5.5t-8.5 -5q-4 -8 -12 -26.5t-14 -33.5q-1 -4 1 -20.5t1 -20.5q-5 -14 -7 -20q-7 -20 -14 -33
q-1 -3 -7.5 -7t-7.5 -7q-1 -2 0 -9t2 -13q-5 -16 -5 -32v-19q0 -8 -2.5 -24t-2.5 -20t5.5 -8.5t5.5 -7.5l4 -58l3 -18q0 -2 -2.5 -6t-5.5 -8l1 -26q1 -3 5.5 -5.5t5.5 -4.5q5 -19 10 -37q7 -11 13 -18t13 -12q3 -2 11 2.5t11 4.5q13 -7 20 -7q9 0 20 -1t13 -1q16 0 28.5 6.5
t27.5 14.5q2 12 5 16q27 21 55 42q2 11 5 22q20 24 28 35q14 18 26 37q7 13 17 36q4 11 9 22q1 3 7 5t7.5 5.5t2.5 8.5t1 10q0 18 1.5 25.5t10 22t8.5 17.5q0 6 -3 11l-6 10q-1 4 4.5 6.5t4.5 6.5l-16 9l2 20q-3 8 -11 16.5t-11 12.5l-28 31q-11 12 -22 26t-17 23l-2 12
q-3 4 -8 3t-6.5 2.5t-2 16.5t-0.5 16q0 29 17 49q4 5 16 10t14 6q7 4 14 8.5t15 4.5q12 0 22.5 -5t21.5 -10q4 -1 18.5 -3t18.5 -4q22 -16 30 -43t8 -61q0 -9 4.5 -18t4.5 -14q0 -3 4.5 -17.5t3.5 -16.5q0 -2 4 -14t3 -19q-5 -10 -7 -20q-2 -9 2.5 -23t4.5 -25z" />
    <glyph glyph-name="w" unicode="w" horiz-adv-x="1000" 
d="M1009 532q-2 -8 -9 -22q-18 -35 -20.5 -43t-4 -16.5t-4.5 -13.5q-1 -2 1.5 -5.5t2.5 -4.5q-6 -18 -11 -36q-1 -3 -5 -8t-5 -8q-9 -29 -13.5 -44t-10.5 -24q-2 -5 -10 -13.5t-9.5 -10.5t-13 -22.5t-15.5 -24.5q-8 -11 -18.5 -17.5t-23.5 -13.5q-3 -5 -5 -8q-5 -7 -18 -20
l-18 -10q-6 -15 -12 -29l-33 -30q-4 -4 -14 -9q-22 -11 -27 -15l-44 -40q-9 -5 -22 -8q-32 -7 -36 -8t-20 -14q-7 -6 -16 -8.5t-22 -5.5q-30 -9 -43 -9q-29 0 -39 14.5t-10 43.5q0 23 25 53q34 41 43 58q1 3 9 11t10 12q2 7 0 22t-2 22q0 3 2.5 12.5t2.5 14.5q0 19 -20 19
q-16 0 -48 -34q-12 -3 -15.5 -5t-9.5 -9t-11 -13q-1 -1 -2 -9.5t-4 -12.5t-11.5 -7.5t-11.5 -6.5l-8 -24q-10 -12 -26 -24q-23 -18 -27 -22t-9.5 -17.5t-7.5 -15.5l-25 -25t-28 -21q-18 -12 -31.5 -18.5t-28.5 -10.5l-26 -1l-24 -6q-14 0 -44 23q-17 13 -17 22q0 10 10 36
q4 10 14 34q13 24 26 49l17 36q-2 10 -4 21q1 4 6 10t6 8q10 27 10 50q0 7 -13 49q-7 23 -7 33t15.5 43t15.5 58t-2.5 50.5t-11.5 56.5q-8 36 -22 60t-29 24q-30 0 -33 -29q2 -17 2 -25t-2 -11q-11 -28 -51 -28q-16 0 -38 27t-22 54q0 9 8 24t10 21.5t2 15.5q-1 16 -1 23
q0 6 2 10q7 10 12 18l17 36q2 5 12 13t12 11q-2 10 2 14.5t15 9t14 7.5q13 19 19.5 28t15.5 9q9 -4 15 -7q15 -8 35 -22q11 -8 23 -15q14 -10 26 -21q7 -13 12 -18l40 -40q13 0 18.5 -2t10 -8.5t5.5 -7.5q6 -9 11 -30.5t11 -46.5q10 18 12 22q6 11 15 21q9 8 19 17q3 8 3 14
v27q9 19 10 21q5 9 14 18q2 2 12 4q27 6 28 6l13 13t16 4q11 0 19 -2.5t20 -5.5l28 -3.5t26 -6t29 -18.5q10 -9 26 -30q7 -10 23.5 -20t20.5 -17t6.5 -19.5t2.5 -23.5v-25q0 -17 5 -22t19 -5q12 0 25.5 6.5t30.5 20.5q29 22 44 29q31 16 67 16q15 0 28.5 -4t32.5 -13
q6 -3 15 -6.5t16 -12.5q14 -18 22.5 -41t8.5 -46q0 -5 -3.5 -12t-3.5 -10q0 -2 3 -6q8 -12 6 -22zM876 469q0 30 -4.5 47t-11.5 23t-11 10t-9 14t-9 13t-13 4.5t-18 1.5q-18 0 -22 -3l-8 -14q-17 -4 -21 -7t-7 -15.5t-5 -16.5q-7 -9 -13 -17q-8 -21 -8 -53v-21.5t1 -21.5
l3 -44q0 -9 -3 -17.5t-7 -18.5q-1 -9 1.5 -19t1.5 -14q-2 -27 -9 -47q-1 -3 -4 -9q0 -7 3 -10t4 -9q2 4 15.5 5t14.5 2q8 5 16.5 14.5t14.5 14t8 5.5q8 5 14 14q2 3 2.5 11t2.5 10.5t10.5 7.5t10.5 8t2 11t2.5 14.5t12.5 15.5q15 14 18 18.5t6.5 15.5t8 20.5t7.5 23.5t3 33z
M568 625q0 26 -12 42.5t-29 16.5q-8 -5 -15 -8q-20 -3 -27 -5.5t-12 -8.5q-4 -15 -6.5 -18.5t-10.5 -4.5t-12 -4l-34 -36q-4 -2 -11 -2h-18v-22.5t1 -20.5q0 -14 -2 -28t-7 -21.5t-6 -11.5t-1 -12.5v-13.5q0 -21 -1.5 -32.5t-3.5 -22.5q-8 -37 -8 -40q0 -8 2 -15
q7 -23 7 -24q0 -14 -2.5 -26.5t-4.5 -24.5q0 -6 2.5 -10.5t4.5 -8.5l10 -21q25 10 34 15q24 13 39 28q2 2 2 10t3.5 11.5t6.5 8.5t6 14q1 8 1.5 14t3.5 10l25 34q2 3 6 5q13 6 14.5 9t3 13t2.5 13q11 13 22 27q2 11 5 22q12 29 17 58q1 4 1 11q0 8 -4 23t-4 23q0 7 3 13
q9 19 9 21z" />
    <glyph glyph-name="x" unicode="x" horiz-adv-x="858" 
d="M855 660q-2 -4 -5.5 -8t-4.5 -5q-5 -9 -9 -14.5t-10 -9.5l-17 -17q-17 -12 -36 -12q-14 0 -33 12t-32 12q-4 -3 -7 -5q-12 -9 -22 -14q-13 -2 -19 -5l-6 -24q-12 -5 -23 -9q-2 -1 -3 -7t-3 -8l-50 -37l-43 -43q-2 -3 -8.5 -5t-9.5 -4q-8 -9 -8.5 -23.5t-0.5 -17.5
t3 -13.5t7 -21.5l6 -38q2 -6 4 -10q9 -16 10 -20.5t4 -14.5t9 -23l5 -5l5 -5l14 -45q5 -13 16 -26q8 -10 21 -20q3 2 9.5 3.5t9.5 3.5q11 14 16 20t11.5 12.5l12 12t10.5 6.5h20q4 5 9 10q12 0 21 -8t13 -22v-26v-39q-1 -8 -7 -21t-7.5 -21t-3 -16.5t-6.5 -18.5
q-14 -26 -38 -44q-4 -3 -13 -6t-13 -5.5t-16.5 -3.5t-16.5 -2q-21 -6 -41 -6q-3 0 -11 3t-13 3q-11 -3 -16.5 -3.5t-11.5 1.5t-12 7t-13 12q-1 1 -0.5 8t-1.5 9l-15 24q-14 17 -19 23t-8.5 12.5t-4.5 12t-1 10.5q-5 6 -7 12.5t-4.5 14t-2.5 14t-1.5 10t-3.5 5.5l-5 5
q-8 30 -18 53q-2 4 -8.5 6t-8 4.5t-1.5 8.5q0 3 -10 3q-5 0 -10 -4l-10 -8q-13 -9 -18 -13q-11 -10 -18 -21l-24 -26l-10 -1l-5 -9q-12 -19 -16 -24q-21 -27 -27 -39q-2 -5 -1 -13.5t-1 -13.5q-8 -12 -15.5 -24t-16.5 -22l-15 -7q-3 -3 -4 -7.5t-3 -6.5q-7 -7 -20 -14.5
t-23.5 -11.5t-26.5 -4.5t-24 -0.5h-14q-14 0 -21.5 3.5t-15.5 12.5q-11 12 -12 13q-5 4 -9 14.5t-5 13.5q-6 6 -12 13q-1 5 -1.5 10.5t-0.5 8.5q0 4 6 12l10 29q3 13 6.5 33t7 27t10 11.5t13.5 8.5q11 12 16 16q9 8 15 8q13 1 26 3q6 0 10 -1l12 -3q13 -1 21 -1q5 0 15 2.5
t22 6.5q3 2 14.5 14.5t17.5 16.5q9 3 15 5.5t5 9.5t2 9l23 20l22 26q10 -5 12 -2l8 21q2 3 0 14.5t-3 20.5l2 24q-6 7 -11 14l2 34q-8 12 -15 24q-2 6 -5 24t-7 26t-12 14.5t-19 12.5q-2 2 -4 5t-4 7q-4 0 -10.5 -2.5t-11 -5t-8.5 -10t-8 -15.5q-5 -5 -9 -7q-15 -9 -17 -11
q-18 -21 -39 -21q-6 0 -18 5t-18 5q0 22 -3 31q-7 21 -10.5 33t-3.5 18q0 12 9 33q6 12 10 19q12 18 24 37l12 10q2 4 3 14.5t4 16.5q7 7 15 14q5 6 10 15t10 14q13 12 32.5 21t34.5 9q56 0 91 -32q7 -14 15 -27q2 -2 26 -17q10 -6 15 -14q3 -14 6.5 -21.5t11.5 -18
t11 -15.5q5 -13 7 -21t3 -15q4 -9 8.5 -29t8 -27.5t12 -14.5t15.5 -12l18 12q0 1 3 14.5t7 19.5l24 51q1 3 5.5 4t7.5 3q7 12 11.5 20t11 16t12.5 15.5t10.5 13t7 14.5t5.5 15l40 39q3 2 11 2t12.5 3.5t10.5 10.5q14 16 18 18.5t14 5.5t17 3h11h13q9 2 19 5q13 0 27.5 -4.5
t28 -18t21.5 -56.5q10 -10 12 -15.5t2 -13.5q-1 -13 -1 -19q0 -1 2 -12.5t0 -16.5z" />
    <glyph glyph-name="y" unicode="y" horiz-adv-x="608" 
d="M604 660q0 -14 -4.5 -38t-14.5 -59q-1 -5 -8 -16t-9 -18q-4 -33 -7 -65q-12 -35 -35 -79.5t-24 -48.5q-7 -29 -30 -69q-13 -23 -40 -62q-10 -11 -13 -14q-8 -9 -9 -14q-7 -32 -15.5 -66t-17.5 -60q-5 -14 -13.5 -24.5t-10.5 -12.5q-17 -20 -29 -31q-5 -5 -29 -24
q-17 -17 -25 -26q-35 -36 -40 -42l-20 -36q-5 -6 -15.5 -8.5t-22.5 -2.5h-11t-7 1q-29 -40 -70 -75q-46 -39 -106 -60l-31 -4q-21 -5 -47 -9.5t-62 -7.5q-8 0 -26 -3t-29 -3q-8 -3 -11 -3q-6 0 -9 3q-9 7 -21 27.5t-24 40.5q-20 30 -26 41q-13 25 -13 48t30.5 50.5
t66.5 27.5q17 0 33 -13t32 -35q5 -9 10.5 -18.5t13.5 -15.5q17 -10 45 -10q56 0 83 28.5t53 56.5q22 9 50.5 30t62.5 57q17 19 25.5 57t9.5 40t10 8q2 2 20 16q18 19 24 28q13 18 20 41q3 12 3 24q-1 21 -1 34q0 32 -14 85q-9 35 -15 68q1 12 3 24q-1 8 -10.5 29.5
t-9.5 35.5q0 6 6 18t6 20q0 19 -13 47q-16 35 -37 35q-9 0 -44.5 -39.5t-49.5 -39.5t-22.5 16.5t-8.5 33.5q0 4 12 24t31 49l24 24q19 30 38 61q26 34 42 49q22 20 36 20q53 0 80 -40q12 -18 24 -63q10 -28 21 -55q18 -48 20 -57q0 -50 3 -75q9 -76 40 -76q21 0 28 27
q4 15 4 45q10 23 14 38q14 45 14 83q-8 35 -14.5 64t-6.5 51q0 26 16 45t44 19q10 -2 15 -5q34 -18 50 -66q4 -12 6 -34t2 -47z" />
    <glyph glyph-name="z" unicode="z" horiz-adv-x="795" 
d="M1063 -207q-2 -7 -9 -16.5t-13 -18.5q-3 -8 -6.5 -13t-10.5 -10q-3 -1 -6.5 -1.5t-8.5 -1.5q-2 -2 -0.5 -7.5t-3.5 -7.5l-34 -16q-14 -4 -27.5 -7.5t-25.5 -4.5l-13 6q-5 -3 -9 -6l-32 9q-18 5 -33 14q-4 1 -9 1t-8 2q-3 7 -6 11t-10.5 10.5t-9.5 9.5l-13 22q-2 4 -5 14
t-4.5 12.5l-7.5 12.5t-10.5 16t-12 11t-10 7t-9.5 12.5t-11 15.5l-26 22q-2 2 -9 6q-16 9 -18 10.5t-5 8.5t-6.5 9.5t-13.5 5.5q-23 7 -28 9q-10 6 -18.5 10.5t-19.5 6.5l-29 11l-32 6l-22 9h-24q-14 3 -21 2q-11 -4 -17 -4q-12 5 -23 9.5t-21 7.5q-6 0 -19 -2.5t-17 -2.5
q-11 -2 -29 2l-15 3q-2 0 -7 -6q-1 -2 -5 -6l-39 -6q-4 -1 -15.5 -6.5t-18.5 -5.5l-35 -4l-18 2q-3 0 -8 -5t-8 -5t-17 10l-12 5q-10 6 -15 14q-4 15 -7 24q-10 11 -12 15q4 8 2 15q-2 12 -3 19.5t-1 9.5q12 11 14.5 20t4 13.5t5.5 9t12 10.5l16 12l29 29q7 3 15 7
q0 7 4.5 12t14.5 12t15 12q1 1 17 25q5 8 12 16q2 13 4 16.5t8.5 5t8 3t16.5 14.5q9 8 11 10t6 8.5t11 10.5h24q-9 7 -17 14l34 34l31 41q5 5 14 12t20 15l24 38l24 20q6 7 12 24t13.5 26.5t12 21t9.5 17.5q11 6 18.5 11.5t12.5 12.5l9 25q28 25 37.5 35t3.5 15t-12.5 -2
t-13.5 -12q-7 -3 -21.5 -4t-26.5 -1q-17 -2 -34 -2l-38 7q-4 1 -12 1h-15q-9 0 -13 2.5t-14.5 13t-18 12t-31.5 9t-35 7.5q-27 0 -50 -16q-11 -7 -20.5 -14.5t-13.5 -21.5q-3 -11 11 -17.5t17.5 -9.5t6.5 -12.5t6 -28.5q0 -8 2 -12.5t3 -8t1 -11.5q0 -21 -11 -33
q-3 -3 -15.5 -10t-15.5 -9q-8 -8 -14.5 -13t-16.5 -5l-13 -7q-6 0 -19.5 5.5t-19 7t-9.5 2.5q-14 4 -21 9q-12 5 -19 19t-14 27t-10.5 21.5t-5.5 19.5q0 10 3 21.5t4 15.5l1 21q2 5 7.5 13t9.5 15.5t7 11t7.5 9.5t10.5 14.5t13 14.5l21 12q11 10 22 21q9 6 18 13q5 3 18 9
t32 13t30 9.5t33 3.5t45 1q17 0 33 -0.5t31 -6.5q18 -9 36 -17q9 -3 22 -5t26 -3q12 -4 24 -7q6 0 16 -2.5t13 -2.5q6 0 20 4t21 4q12 2 19 2.5t15 3.5l38 13q13 -2 20 0q4 0 10 5t9 5q16 3 28 5t28 2l24 2q6 0 14.5 -2.5t9.5 -2.5h24q18 -8 21 -9t8 -7l10 -20q4 -9 4 -18
t-5 -20.5t-9 -18.5q-7 -13 -16 -21.5t-17 -15.5q-5 -10 -8 -13.5t-12 -11.5l-4 -9q-4 -4 -16 -13q-8 -5 -11 -7l-19 -12l-5 -11l-27 -25q-9 -9 -12 -13q-9 -12 -17 -23q-11 -10 -22 -19q-13 -22 -26 -43q-17 -20 -34 -39q-1 -2 -9.5 -7t-10.5 -8q-16 -26 -31 -51
q-4 -6 -12 -14l-14 -14q-13 -15 -25 -29t-26 -36q-20 -31 -26 -39q0 -8 -3 -12q-5 -2 -10.5 -3.5t-6.5 -3.5l-31 -35l-24 -29l-10 -19q-4 -5 -7 -9.5t-3 -9.5q2 -9 12 -5l27 10q6 4 15 6.5t18 3.5q22 5 31 5q7 -1 10 -1q4 -2 9 -3.5t6 -1.5l15 1h14q16 0 27 -3t27 -9
q5 -1 13 -7.5t11 -7.5l26 -10q14 -7 29 -17q3 -2 24 -17q3 -2 3 -5t4 -6l36 -20q7 -5 16 -14.5t18 -17.5l13 -16q2 -2 2 -6t2 -6l34 -34l24 -39q5 -8 10.5 -20t8.5 -16q17 -14 22 -20q5 -9 7 -12q7 -10 13 -14q3 -4 7.5 -8t9.5 1q6 5 6 11q-3 12 -4 20q0 8 9 24q4 10 11 20
q3 4 14 16q5 6 8.5 9.5t12 6.5t25.5 3q12 0 21 -1.5t16.5 -6.5t19.5 -17q6 -13 11 -22q11 -13 16.5 -26t5.5 -29q0 -10 -3 -22z" />
    <glyph glyph-name="braceleft" unicode="{" horiz-adv-x="474" 
d="M628 1270l-27 -14l-51 -25l-43 -16l-29 -31l-7 -52l-14 -60l2 -60l-2 -44l21 -69l-14 -70l-25 -66l-28 -24l-24 -48l-32 -27l-51 -31l-38 -19l31 -29l44 -35l26 -43l-2 -58l-10 -60l-26 -56l-17 -19l5 -27l-15 -28l-22 -61l-4 -67v-44l40 -31l68 -24l24 -5l-7 -22l-66 -7
l-72 4l-55 20l-48 36l-15 61l10 62l-1 27l22 28l-14 15l27 66l19 62l31 49l20 35l4 44l-9 37l-32 31l-41 46l48 26l39 25l24 29l10 77l10 45l-13 46l5 49l-9 41l16 48l17 63l24 41l20 46l41 48l44 27l50 24l29 27l44 6l36 -2z" />
    <glyph glyph-name="bar" unicode="|" horiz-adv-x="478" 
d="M454 1236q2 -6 3 -13t1 -13q0 -15 -4 -30q-8 -27 -15 -54q-4 -33 -25 -110q-16 -60 -16 -111q-5 -42 -13.5 -78t-17.5 -73q-14 0 -17.5 -43.5t-21.5 -104.5l-20 -80q-11 -43 -13 -70q-6 -47 -24 -100q-24 -69 -30 -97t-25 -147q-12 -75 -27 -126q-8 -31 -17.5 -79
t-27.5 -48q-10 0 -32 6.5t-34 10.5q-23 7 -34 16q4 22 11 83t15 98q5 25 13 47q22 62 25 73q15 85 30 171q13 55 18 79q10 44 21 79q5 24 21 89q12 50 17 92q21 129 24 141q9 38 26 88q17 41 24 87q12 82 13 87l26 126q3 6 4.5 28.5t24.5 41.5q32 -8 65 -15q21 -2 35 -4
t14 -13q0 -7 -3 -13.5t-14 -20.5z" />
    <glyph glyph-name="braceright" unicode="}" horiz-adv-x="445" 
d="M560 1171l-10 -62l1 -27l-7 -27l-3 -16l-26 -66l-18 -62l-33 -49l-19 -34l-3 -45l9 -37l32 -31l39 -46l-46 -26l-39 -25l-26 -29l-8 -77l-12 -44l-5 -7l8 -16l5 -18l7 -5l-7 -50l9 -41l-15 -48l-18 -63l-23 -41l-19 -46l-41 -48l-46 -27l-51 -31l-38 -10l-34 -15l-36 1
l-10 17l25 14l52 26l42 15l31 31l7 53l12 59v60l-12 45l7 68l-2 70l20 53l35 37l23 48l33 27l51 31l38 19l-31 29l-46 36l-24 42l2 58l8 60l26 56l8 19l5 28l14 27l24 61l2 67l1 44l-39 31l-68 24l-26 5l9 22l66 7l70 -3l57 -21l46 -36z" />
    <glyph glyph-name="asciitilde" unicode="~" horiz-adv-x="881" 
d="M928 1123q2 -8 2 -10q0 -10 -3.5 -16t-14 -20.5t-28 -26t-22.5 -16.5l-51 -48q-15 -3 -29 -6q-4 -2 -7 -13.5t-6 -15.5t-15.5 -8.5t-17 -7.5t-26 -9t-25.5 -8t-9.5 -9t-16.5 -11q-18 -8 -35 -14.5t-35 -6.5q-5 0 -13 5t-11 5q-9 1 -15.5 0t-13.5 -2q-4 0 -12 2
q-18 5 -26 7q-18 5 -36 12.5t-31.5 16.5t-25.5 18.5t-21.5 17.5t-21.5 21q-2 2 -2 10q1 10 1 14q0 7 -3 10q-2 3 -12.5 1.5t-11.5 -1.5q-5 0 -8 3q-13 14 -19 19q-10 10 -21.5 15t-21 8t-18.5 3q-10 -1 -19 -8q-15 -11 -19 -13q-17 -7 -31 -13t-29 -22.5t-27 -19.5
q-11 -2 -17 -2.5t-10 2.5q-5 5 -5 13q0 9 7 25q2 9 10 20t13 17t19 11t16 7q7 12 15 24l56 34q9 4 21 7q32 8 36 10t12 10t19.5 10.5t26 6t28.5 3.5q11 0 24.5 -3t25.5 -10q6 -3 26 -17q6 -4 8.5 -13.5t5 -12.5t15 -11.5t19 -15t19.5 -14.5q30 -19 33 -22l52 -44
q17 -8 32.5 -11t35.5 -3q22 0 36.5 3.5t31 12t27.5 18.5t23 21l44 30q5 4 23 22q9 9 16.5 13.5t18.5 9.5t18 5q3 0 12 -2.5t14 -16.5z" />
    <glyph glyph-name="quotesinglbase" unicode="&#x201a;" horiz-adv-x="224" 
d="M376 39q0 -18 -2 -28t-15 -64q-8 -5 -18 -26q-6 -14 -11.5 -19.5t-24.5 -13t-25 -11.5q-13 1 -31 -10q-40 -26 -49 -26q-8 0 -12 2q-20 4 -35 9q-30 10 -30 26q0 6 12 19l34 36q24 12 30.5 18.5t6.5 17.5l-2 8l10 12q-9 11 -21.5 17t-23.5 11q-15 9 -15 42q0 6 0.5 14.5
t8.5 19.5q9 1 22 12q6 5 22 21q12 8 26.5 12.5t33.5 4.5q39 0 71 -25q38 -30 38 -79z" />
    <glyph glyph-name="florin" unicode="&#x192;" horiz-adv-x="480" 
d="M932 1275q0 -53 -22 -65q-9 -4 -24 -4q-9 0 -19.5 1.5t-16.5 2.5q-13 7 -20.5 11t-12.5 4q-10 2 -14 2q-7 0 -20.5 -1.5t-16.5 -1.5q-101 0 -137 -26l-44 -44q-75 -45 -106 -133q-28 -114 -47 -180q-4 -12 -12.5 -49t-12.5 -48.5t-9 -16.5q-12 -12 -13.5 -19.5
t-1.5 -18.5v-18q-1 -6 -1 -9q0 -2 -6 -4t-6 -4t3.5 -17.5t1.5 -25.5q-1 -6 -9.5 -12t-10.5 -10q-1 -4 0 -19.5t0 -21.5l-15 -60q-9 -38 -17 -75q-2 -4 -10 -14t-10.5 -15t-4.5 -17t-4 -17q-14 -30 -22.5 -51.5t-18.5 -54.5q-3 -8 2 -19.5t3 -17.5q-13 -40 -26 -79
q-1 -2 -8.5 -7t-8.5 -8t-2 -18.5t-1 -17.5q-6 -13 -10 -28.5t-7 -28.5q-2 -3 -2 -14.5v-12.5l-12 -12q-2 -4 -2 -14t-2 -11q-8 -9 -10 -12q-7 -10 -7 -19l-6 -27q1 -12 0 -17q-24 -59 -28 -67q-9 -20 -25 -50l-5 -20q-8 -14 -22 -31q-23 -27 -24.5 -29.5t-1.5 -12.5v-11
q-12 -16 -17 -23q-10 -14 -19 -21q-10 -3 -19 -7q-2 -2 -4 -10.5t-4 -11.5q-15 -17 -29 -31q-18 -18 -38 -36q-2 -2 -10.5 -4t-18 -7.5t-24.5 -18.5q-7 -6 -20 -19q-7 -5 -7 -10q0 -9 -5 -12q-20 -13 -34.5 -20.5t-30.5 -12.5q-5 -1 -11.5 3t-9.5 4l-44 -12h-18q-19 0 -23 1
t-17 8q-28 14 -41 54q-1 6 -5.5 16.5t-4.5 14.5q0 8 4 16.5t9 19t8.5 19t10.5 13.5q14 9 31 12.5t41 3.5h29q7 0 32 9q15 5 28 6.5t28.5 2t25.5 6.5q10 4 18 13.5t16 18.5q16 13 31 26q16 20 26 43q7 18 15 49q4 6 6 10q14 26 25 60q1 4 1 15t1 15t6 9.5t6.5 19t4.5 36.5
q2 6 8.5 10t9 11t3.5 29.5t2 27.5t4 8q9 10 10 12q6 13 9.5 29t6.5 26.5t3 24.5t2.5 22.5t12.5 25.5q14 24 15 28.5t1 7.5q0 6 -2.5 14.5t-2.5 10.5q0 9 8 22l14 36q4 6 9 8.5t6 3.5q-2 11 -3 22q2 6 8 13.5t8 13.5t5 24t6 33t8 55t9 49q3 2 5 4q12 10 19 30q1 3 5.5 28
t8.5 35q9 28 19 57q17 50 18 51q1 7 3 28.5t2 41.5q-2 14 -2 23q1 7 1 11t5.5 14.5t5.5 14.5q1 7 0 19t-1 13q0 8 1 12q4 4 6 7q8 10 9.5 16.5t1.5 16t3 27.5t10 47t11 35q12 16 38 36q17 12 34 25q11 11 26 28q23 26 32 37q2 9 4 19q4 6 9 12t11.5 12t41.5 22q18 8 25 13.5
t14 13.5q1 2 11 14q2 2 10 3t11 4q5 11 8 18t6 8.5t14.5 1.5t17.5 1q14 0 28 6q14 8 23 12q33 17 45 22q23 10 39 16q15 4 30 9q14 0 40 -9t34 -10t22 1t17 2q6 0 14 -3q18 -11 21 -13q11 -8 15 -17t4 -15q-1 -12 -1 -20z" />
    <glyph glyph-name="quotedblbase" unicode="&#x201e;" horiz-adv-x="660" 
d="M657 33l-8 -27l-24 -21l-9 -25l-35 -29l-19 -31l-41 -10l-41 -29l-26 -9l-27 -5l-37 3l-24 17l-14 18l5 23l12 19l21 17l25 14l31 15l22 7l12 14l-2 22l-12 10l-32 19l-22 19l3 37l12 9l12 19l14 23l18 2l14 19l36 5l46 -8l41 -11l24 -18l8 -18l11 -30l1 -38zM376 33
l-9 -27l-20 -23l-9 -25l-59 -56l-12 -16l-40 -25h-39l-25 -9l-28 -5l-37 3l-24 17l-14 18l-2 32l11 17l22 26l27 13h36l22 7l12 14l-2 22l-12 10l-32 19l-22 19l3 37h22v22l14 16l21 15l20 10l29 14l46 -3l41 -16l17 -18l21 -16l6 -31l11 -39z" />
    <glyph glyph-name="ellipsis" unicode="&#x2026;" horiz-adv-x="1251" 
d="M1140 184l-17 -44l-14 -31l-6 -41l-55 -30l-48 -4l-48 14l-30 27l-17 31l-28 34v31l-3 37l-7 41l24 31l27 31l24 17l38 3h41l44 -20l55 -24l20 -51v-52zM734 188l-14 -65l-13 -48l-35 -24l-51 -20h-71l-41 24l-24 44l-24 44l10 62l3 34l21 27l3 31l31 24l27 7l28 -4h47
l41 -20l45 -34l17 -41v-41zM340 193l-11 -45l-18 -37l-21 -31l-34 -24l-27 -10l-41 -12l-48 4l-34 15l-27 5l-7 41l-28 36l-12 29l6 60l10 30l31 19l23 26l26 24l36 -4l27 7l34 -10l22 -12l21 -16l27 -12l41 -34z" />
    <glyph glyph-name="circumflex" unicode="&#x2c6;" horiz-adv-x="819" 
d="M594 1010l-14 -27l-25 -24l-34 -7l-26 14l-22 24l-4 17l-22 20l5 21l-12 14l4 17l7 30l23 14l-17 20l-29 7l-15 -13l-10 -28l-21 -3l-7 -31l-30 -44l-19 -27l-38 -45l-25 -10l-29 -10l-24 13l-24 17v31l22 24l16 44l30 52l31 47l12 41l20 48l26 38l38 27l23 3l14 21h38
l63 3l24 -34l7 -27l8 -24l5 -41l10 -51l2 -38l14 -17l2 -24l-2 -24z" />
    <glyph glyph-name="perthousand" unicode="&#x2030;" horiz-adv-x="1067" 
d="M312 1188q5 -14 6.5 -18.5t1.5 -14.5q0 -18 -3 -33q-7 -22 -10.5 -38t-12 -30.5t-24.5 -31.5q-6 -10 -8 -14q-5 -9 -18 -10q-42 -22 -82 -22q-7 0 -16 1.5t-13 2.5q-50 8 -84 42q3 6 3 10q0 7 -20 11q-12 14 -18.5 27.5t-9 25.5t-2.5 25q0 32 10 63q-1 4 1 7.5t6 6.5
q5 14 12 24q4 6 18 22q14 13 24.5 20.5t23.5 13.5q4 -5 9 -5q7 0 7 9q5 8 15 8q9 3 18 3q14 0 35 -8l26 -10q19 -4 31 -6t20 -8l12 -17q28 -30 42 -56zM1021 172q2 -8 4.5 -16t2.5 -17q0 -19 -3 -33q-7 -21 -10.5 -37.5t-11.5 -30.5t-25 -31q-1 -1 -7 -12t-19 -12
q-39 -22 -83 -22q-14 0 -28 3q-47 7 -83 43q2 5 2 9q0 7 -19 11q-23 28 -29 58q-2 16 -2 23q0 23 4 38.5t6 22.5q-1 3 1 6t6 8q6 15 12 24q1 1 19 22q13 11 23.5 19t24.5 15q4 -5 8 -5q7 0 7 8q5 9 15 9q6 2 17 2q15 0 36 -8l26 -10q13 -2 27.5 -4.5t23.5 -8.5l12 -17
q13 -13 23.5 -27.5t19.5 -29.5zM707 1246q0 -22 -12.5 -51t-23.5 -55q-7 -27 -26 -63q-25 -47 -27 -53q-8 -19 -14 -47q-10 -47 -12 -55q-11 -43 -25 -77q-19 -43 -31 -72q-24 0 -24 -13q2 -16 2 -29q0 -21 -7 -42q-10 -30 -34 -64q-14 -21 -29 -57.5t-28 -91.5
q-4 -12 -27 -33q-12 -11 -15 -20q-12 -23 -24 -67q-17 -62 -22 -76.5t-18 -36t-16 -36.5q-4 -7 -5 -29.5t-2 -27.5q-15 -43 -26 -70q-15 -37 -31 -68q-31 -81 -39 -100q-12 -27 -33 -27q-13 0 -32 4q-6 4 -10 6q-13 7 -24 8q-20 0 -29.5 -2t-15.5 -4q-4 0 -8 4q2 9 -7 19.5
t-5 21.5q6 18 21 47q41 76 47.5 94t19.5 42q35 62 39 74t5 41.5t7 41.5q2 6 28 47q11 17 18 36q4 15 4 20q0 3 -0.5 9t5 19.5t25.5 51.5q29 56 30 59l35 77q14 34 18 46q10 26 16 54q7 23 21 51q10 21 21 42q10 25 15 38q9 24 20 45q5 25 10 51q20 36 32.5 66.5t25.5 60.5
q2 2 13 14t13.5 17t3.5 20t2 32q6 25 11.5 47t12.5 40q5 7 10 28.5t31 41.5q8 -5 20 -9t31 -4q15 0 27 6t14 6q21 -1 35 -1.5t14 -10.5q0 -11 -21 -36zM628 172q5 -14 6.5 -18.5t1.5 -14.5q0 -19 -3 -33q-7 -21 -10.5 -38t-11.5 -30t-26 -31l-7 -14q-5 -9 -18 -10
q-39 -22 -83 -22q-14 0 -28 3q-48 7 -84 43q2 5 2 9q0 7 -19 11q-23 28 -29 58q-1 7 -1 21q0 32 10 63q-1 3 1 6.5t6 7.5q4 13 12 24q12 14 18 22q13 10 24.5 19t23.5 15q4 -5 9 -5q6 0 6 8q7 9 16 9q6 2 17 2q14 0 35 -8l26 -10q14 -2 28.5 -4t22.5 -9l12 -17
q27 -27 43 -57zM249 1137q3 6 0 11t-3 7q-6 22 -21 35q-22 21 -27.5 24t-20.5 6q-10 2 -37 -3l-12 -2q-3 -2 -9.5 -10t-9.5 -10q-9 -8 -17.5 -15.5t-11.5 -18.5v-7q4 -4 4.5 -6t-5.5 -3q-1 -4 0 -17.5t1 -14.5l14 -28q3 -5 5 -5q10 -11 18.5 -17.5t18 -9.5t15.5 -3
q11 1 18 1q9 8 11.5 7t3.5 -5q13 2 23.5 8.5t21.5 18.5q17 22 20 57zM957 121q4 7 1.5 11t-4.5 8q-4 21 -20 34q-21 20 -27.5 23.5t-20.5 7.5q-5 1 -15.5 0t-22.5 -4l-12 -1q-4 -3 -9 -9q-8 -10 -10 -12q-9 -8 -17.5 -15.5t-11.5 -18.5v-7q4 -3 4.5 -5t-5.5 -3q-1 -7 1 -33
l14 -27q2 -3 5 -5q18 -21 38 -27q7 -4 15 -4q5 0 17 2q9 8 13 5q1 -2 3 -3q13 2 23.5 8.5t20.5 18.5q20 25 20 56zM565 121q3 7 -0.5 12.5t-3.5 6.5q-4 21 -20 34q-23 21 -28 24t-20 7q-5 1 -15.5 0t-21.5 -4l-12 -1q-4 -3 -10 -10t-9 -11q-10 -8 -18.5 -15t-10.5 -19
q-3 -4 0 -7t3.5 -5t-5.5 -3q-1 -15 2 -33l14 -27q3 -6 5 -5q18 -21 37 -27q8 -4 16 -4q5 0 17 2q9 8 11 5.5t4 -3.5q13 2 23.5 8.5t20.5 18.5q18 22 21 56z" />
    <glyph glyph-name="Scaron" unicode="&#x160;" horiz-adv-x="683" 
d="M823 1287l-23 -24l-15 -44l-31 -52l-30 -47l-12 -41l-21 -48l-25 -38l-38 -27l-24 -3l-13 -21h-38l-63 -3l-24 34l-7 27l-8 24l-6 41l-10 51l-2 38l-13 17l-2 24l2 24l-5 58l13 27l26 24l34 7l26 -14l22 -24l3 -17l22 -20l-5 -21l12 -14l-3 -17l-7 -30l-24 -14l17 -21
l29 -6l16 13l10 28l20 3l7 31l31 44l19 27l37 45l26 10l29 10l24 -13l24 -17v-31zM720 886l-1 -28q-4 -5 -19 -94.5t-50 -89.5q-24 0 -36.5 18t-16.5 47q8 11 8 24q0 9 -4 23q-9 32 -9 40q-11 52 -36.5 72t-70.5 20q-29 0 -52 -5.5t-46 -18.5q-24 -7 -37.5 -31.5
t-13.5 -55.5q4 -39 20 -83.5t31 -59.5l55 -82q2 -10 4.5 -21t17.5 -20q10 -19 17.5 -30.5t20.5 -22.5q0 -15 13 -32q8 -11 11 -17q1 -11 1.5 -18.5t8.5 -16.5q2 -7 4 -44t10 -44l3 -50q0 -37 -16 -77t-42 -78q-18 -20 -26 -30q-16 -19 -17 -32q-11 -4 -40 -22
q-24 -15 -32.5 -17.5t-22.5 -2.5q-19 0 -27.5 0.5t-13.5 1.5q-23 0 -63 -12q-20 -6 -29 -6q-15 0 -26 4l-14 7q-41 0 -77 2t-50 8.5t-23 11.5t-14 10q-6 10 -8.5 15t-4.5 18q3 15 4 25.5t1 18.5q0 7 -3.5 15t-3.5 22q0 9 3.5 20.5t15.5 34.5q8 5 11 10t6 18t3 18
q0 49 16.5 89.5t45.5 40.5q13 0 22 -10q14 -15 14 -36l1 -91q0 -49 23 -69q16 -14 41 -14h8.5t8.5 1q9 -12 16 -17q24 -18 55 -18q39 0 59 6q31 9 28 31q14 6 26 22.5t12 23.5q2 13 2 27v16q-3 10 -4 14q-7 6 -23 41q-8 17 -13 23q3 28 -14 61q-21 33 -27 43q-15 10 -29 21
q-32 35 -42 41q-7 7 -12 32q-1 8 -4 24q-21 17 -39 37t-27 40q-5 15 -5 45v26t1 30q0 48 1 72.5t3 39.5q5 12 21 29t30 58q40 40 100.5 61t143.5 21q30 0 63 -0.5t60 -7.5q9 -12 28 -19q39 -15 52 -22q17 -17 25.5 -34t8.5 -41z" />
    <glyph glyph-name="guilsinglleft" unicode="&#x2039;" horiz-adv-x="638" 
d="M567 620l-7 -38l-19 -12l-27 -5v-21l-26 -8l-14 -26l-23 -1l-9 -16l-20 2l-14 -17l-22 -10l-14 -16l-31 -8l-42 -31l-14 -22l-32 -9l-14 -27l-5 -20l15 -36l19 -29l32 -17l14 -19l31 -7l17 -10l13 -24l23 -9l24 -18l20 -11l15 -41l21 -3l31 -2l5 -25l10 -26l-19 -34
l4 -24l-31 -26l-29 -22l-26 2l-25 15l-2 21l-26 8l-30 5l-11 16l-20 19l-10 15l-26 7l-31 10l-10 31l-24 30l-32 19l-26 33l-36 25l-35 19l-33 36l-19 31l12 46l36 25l24 28l53 23l19 26l32 21l34 10l16 30l37 16l14 20l27 17l9 24l30 12l26 4l7 20l10 12l26 5l10 21l22 12
l39 3l31 5l19 -8z" />
    <glyph glyph-name="OE" unicode="&#x152;" horiz-adv-x="2009" 
d="M2162 1219q-7 -34 -23 -59.5t-36 -39.5l-31 -152q-8 -5 -42.5 -22.5t-37.5 -17.5q-8 0 -15 10.5t-13 15.5q-18 15 -24 27q-2 4 -10 28.5t-12 41.5t-3 31q0 48 -8 63q-15 27 -67 27h-121q-5 0 -11 6t-12 5l-51 -5l-37 -11l-16 17l-66 -1q-18 -26 -33 -44t-18.5 -36.5
t-6 -59t-2.5 -70.5q1 -5 -11 -48q-38 -138 -56 -222q12 -11 21 -24h171q9 0 20 7q17 10 26 14q10 2 15 2q13 0 28 -8q9 -5 11 -5q14 0 28 20q2 3 32 56q2 5 10 23.5t10.5 23t9.5 11.5t9 10q19 27 25 33q10 10 18 10t13.5 -5.5l10.5 -10.5q8 -4 16 -7q14 -7 16 -19.5t2 -19.5
q0 -17 -1.5 -26.5t-7.5 -29.5q-2 -14 -6 -26.5t-7 -23.5q-1 -6 3.5 -22t4.5 -23q0 -6 -1.5 -13.5t-9.5 -17.5q-18 -23 -19 -30l-24 -112q-13 -9 -26 -17q-7 -4 -11 -4q-2 0 -11 1t-14 1q-37 0 -49 10q-4 4 -17 31q-2 3 -3.5 21t-6 24t-25 7.5t-27.5 3.5t-24 2h-39
q-63 10 -77 12.5t-36 25.5h-87l-13 -65l5 -17l-14 -38l-3 -34l-7 -48l-19 -20l2 -72l-5 -41l-24 -17l-2 -20q0 -35 3 -51t16 -28q23 -26 74 -36q35 -7 93 -7q23 0 32 3t16 6h113q30 0 71 16t87 45l36 21q16 10 47 36.5t39.5 33t20.5 10.5t13 5q20 14 41 28q16 10 24 10
t18.5 -4t15.5 -5l-9 -36q-17 -19 -28 -52q-1 -6 -4 -16q-25 -28 -46 -56t-40 -65q-3 -6 -4 -12.5t-1 -13.5l2 -34q-6 -30 -30 -43q-19 -10 -52 -10q-32 0 -52 10.5t-26 10.5q-12 0 -17 -2.5t-19 -18.5h-171q-11 7 -22 10q-23 7 -48 9h-157q-21 8 -41 17h-36q-14 0 -31 -1
t-35 -4l-62 -12l-148 12q-29 -7 -40 -12q-20 -9 -33 -11t-27 -2q-17 0 -30 3t-14 3q-6 -2 -13.5 -10t-16.5 -10q-2 0 -17 0.5t-33 0.5q-29 0 -50.5 3.5t-73.5 15.5q-3 1 -12 1q-22 0 -43 -1q-8 2 -21.5 12t-21 12t-25.5 5t-24 5q-28 9 -58 22q-35 16 -50 23q-6 3 -18 21
l-12 18q-35 24 -69 49q-14 14 -26 33t-20 43q-1 6 -1.5 14t-1.5 13l-9 9q-12 12 -18 22q-11 16 -19 30q-18 31 -24 33q6 30 6 39t-9 13t-9 24q-1 5 7 40t17 73q-5 16 -7 25q-7 29 -7 50q0 7 1.5 15.5t6.5 16l11 16.5l38 172q0 7 12 21.5t23 28.5q29 39 68 83q7 8 18 19
q1 1 7 19t23 39q5 5 8 9q20 22 45 46q3 3 13.5 5.5t12.5 4.5q12 11 42 40q47 46 72 63q10 6 51 33q28 18 47 28q5 2 25.5 5t25.5 5q28 12 54.5 23t46 16t41.5 7.5t39 2.5h22q12 0 20 2.5t32.5 5t32.5 5.5q12 2 19.5 5t19.5 3q25 1 28 1q2 0 3.5 -5t8.5 -15h123
q8 0 25.5 -8.5t37.5 -21.5q22 -5 95 -27q30 -9 31 -9h152q6 0 11 -5t18 -5q10 0 23 4q28 9 81 16q15 -4 36.5 -7t36.5 -3q27 0 56 2.5t81 12.5q26 4 48 5t30 2q4 0 36 -5q13 -2 25 -2q17 0 28 4.5t43 33.5q28 25 51 25q8 -1 16 -3t8 -7q2 -39 3 -79.5t0 -44.5zM1244 997
l-7 13l4 48q-1 4 -9 15.5t-8 22.5h-19q1 4 1 8v6q-1 16 -1 25q-12 0 -19.5 3t-42.5 26q-14 9 -41 18q-41 13 -81 26q-43 17 -87 17q-53 0 -81.5 -4t-67.5 -23q-61 -33 -89 -51q-21 -14 -29 -22q-1 -2 -2 -5.5t-1 -5.5q0 -14 -4 -18q-3 -8 -16 -15.5t-18 -13.5q-6 -19 -9 -29
q-10 -29 -16 -40q-1 -3 -13 -7q-27 -10 -29.5 -12.5t-8 -15t-16.5 -31.5q-22 -40 -44 -79q-6 -14 -21 -60q-5 -16 -13 -35l-26 -67q-1 -6 4 -20.5t5 -21.5t-4 -14q-14 -27 -21 -57.5t-7 -59.5q0 -21 3 -44q0 -7 4 -22q9 -34 9 -39q2 -8 -3 -24.5t-4 -23.5q3 -5 18 -23
q7 -8 10 -14q6 -19 18 -48q5 -11 4 -12q5 -1 14 -18t30 -42q9 -8 19 -16.5t21 -20.5q5 -6 16 -15q18 -15 19 -16q18 -18 36 -28.5t36 -15.5q6 -2 27 1t28 2q13 -4 41 -14t37 -10q21 0 44 2.5t35.5 6t24.5 14.5q7 6 11 8q39 11 78 27q23 12 40 24q6 4 15 12q1 1 8.5 12
t13.5 24q-1 12 -1 19q0 11 9 23q1 6 1 19q0 7 1 10q15 38 24 77q6 25 10 51q5 23 5 44q0 7 -1 21.5t-1 22.5v16q3 10 5.5 22t7 19t22.5 19l25 121q-3 6 -3 20t5 37.5t16.5 47t24.5 47.5l14 40l-19 10l26 54z" />
    <glyph glyph-name="quoteleft" unicode="&#x2018;" horiz-adv-x="382" 
d="M280 1207q0 -6 -12 -19l-34 -36q-15 -8 -18 -10q-18 -12 -18 -25q0 -3 2 -9l-11 -12q9 -10 24 -18q10 -5 21 -10q15 -9 15 -42v-16q-2 -9 -8 -18q-10 -1 -23 -12q-6 -5 -22 -21q-12 -8 -26.5 -12.5t-32.5 -4.5q-40 0 -72 25q-38 29 -38 79q0 18 2 28t15 64q9 5 17.5 23
t13 23t23.5 12.5t25 11.5q15 -1 41.5 17.5t39.5 18.5q7 0 11 -2q20 -4 35 -9q30 -10 30 -26z" />
    <glyph glyph-name="quoteright" unicode="&#x2019;" horiz-adv-x="382" 
d="M297 1159q0 -18 -2 -28t-15 -64q-8 -5 -18 -26q-6 -14 -11.5 -19.5t-24.5 -13t-25 -11.5q-13 1 -31 -10q-40 -26 -49 -26q-8 0 -12 2q-20 4 -35 9q-30 10 -30 26q0 6 12 19l34 36q24 12 30.5 18.5t6.5 17.5l-2 8l10 12q-9 11 -21.5 17t-23.5 11q-15 9 -15 42
q0 6 0.5 14.5t8.5 19.5q9 1 22 12q6 5 22 21q12 8 26.5 12.5t33.5 4.5q39 0 71 -25q38 -30 38 -79z" />
    <glyph glyph-name="quotedblleft" unicode="&#x201c;" horiz-adv-x="660" 
d="M601 1198l-10 -17l-23 -26l-27 -13h-36l-22 -7l-12 -14l2 -22l12 -10l32 -19l22 -19l-3 -37h-22v-22l-14 -16l-20 -15l-21 -10l-29 -14l-46 3l-41 16l-17 19l-21 15l-6 31l-11 39l-5 22l9 27l20 23l9 25l60 56l12 16l39 25h39l26 9l27 5l37 -3l24 -17l14 -17zM307 1231
l-5 -24l-12 -19l-20 -17l-26 -14l-31 -15l-22 -7l-12 -14l2 -22l12 -10l32 -19l22 -19l-3 -37l-12 -9l-12 -19l-13 -23l-19 -2l-14 -19l-36 -5l-46 8l-41 11l-24 19l-8 17l-10 30l-2 38l-5 22l8 27l24 21l9 25l36 29l18 31l41 10l41 29l26 9l27 5l38 -3l24 -17z" />
    <glyph glyph-name="quotedblright" unicode="&#x201d;" horiz-adv-x="660" 
d="M602 1123l-8 -27l-24 -21l-9 -25l-35 -29l-19 -31l-41 -10l-41 -29l-26 -9l-27 -5l-37 3l-24 17l-14 18l5 23l12 19l21 17l25 14l31 15l22 7l12 14l-2 22l-12 10l-32 19l-22 19l3 37l12 9l12 19l14 23l18 2l14 19l36 5l46 -8l41 -11l24 -18l8 -18l11 -30l1 -38zM321 1123
l-9 -27l-20 -23l-9 -25l-59 -56l-12 -16l-40 -25h-39l-25 -9l-28 -5l-37 3l-24 17l-14 18l-2 32l11 17l22 26l27 13h36l22 7l12 14l-2 22l-12 10l-32 19l-22 19l3 37h22v22l14 16l21 15l20 10l29 14l46 -3l41 -16l17 -18l21 -16l6 -31l11 -39z" />
    <glyph glyph-name="bullet" unicode="&#x2022;" horiz-adv-x="510" 
d="M474 684q3 -8 6.5 -18t3.5 -25q0 -25 -18 -91q-9 -45 -48 -84q-8 -15 -11 -21q-7 -12 -23 -12q-24 -12 -53 -20t-55 -8q-7 0 -13.5 0.5t-25.5 4.5q-62 7 -111 56q3 6 3 12q0 9 -25 14q-15 20 -20 28q-13 21 -19 48q-1 7 -1.5 15.5t-0.5 13.5q0 21 3 39t9 43q-1 4 3 10
l7 7q6 19 17 34q15 18 24 29q20 17 30 24q16 12 32 21q7 -7 13 -7q9 0 9 10q7 12 20 12q12 3 22 3q17 0 38 -7.5t43 -15.5q24 -4 41 -7t27 -10q3 -7 7 -13.5t10 -9.5q14 -15 31 -38q14 -19 25 -37z" />
    <glyph glyph-name="endash" unicode="&#x2013;" horiz-adv-x="771" 
d="M712 439l-7 -28l-10 -36l-26 -42l-32 -2l-29 -3l-28 3l-36 10l-37 11l-21 -2l-37 -4l-33 -6h-25l-34 -12l-34 17l-35 -9l-35 -1l-29 -2l-35 -7l-39 -3l-41 15l-32 12l-26 14l-8 17l-5 25l-4 26l14 25l15 17l21 23l25 17l22 13l43 -12l29 2l36 -5l29 2l26 12h23l38 5
l26 17h39l29 -5l36 -2l27 -3l32 5l26 3l43 -14l47 -10l21 -24l15 -24z" />
    <glyph glyph-name="emdash" unicode="&#x2014;" horiz-adv-x="1543" 
d="M1485 464l-14 -27l-20 -36l-52 -43l-64 -1l-58 -4l-55 4l-72 10l-71 10l-45 -2l-71 -5l-69 -5h-47l-72 -12l-68 17l-69 -8l-71 -2l-58 -2l-65 -6l-82 -4l-82 16l-65 11l-51 14l-17 17l-7 26l-10 25l27 26l31 17l41 22l51 17l44 12l86 -10l58 2l71 -5l58 1l52 12h47l75 5
l52 17h78l62 -5l68 -1l54 -4l65 5l51 4l86 -16l95 -8l41 -24l31 -24z" />
    <glyph glyph-name="tilde" unicode="&#x2dc;" horiz-adv-x="881" 
d="M928 1123q2 -8 2 -10q0 -10 -3.5 -16t-14 -20.5t-28 -26t-22.5 -16.5l-51 -48q-15 -3 -29 -6q-4 -2 -7 -13.5t-6 -15.5t-15.5 -8.5t-17 -7.5t-26 -9t-25.5 -8t-9.5 -9t-16.5 -11q-18 -8 -35 -14.5t-35 -6.5q-5 0 -13 5t-11 5q-9 1 -15.5 0t-13.5 -2q-4 0 -12 2
q-18 5 -26 7q-18 5 -36 12.5t-31.5 16.5t-25.5 18.5t-21.5 17.5t-21.5 21q-2 2 -2 10q1 10 1 14q0 7 -3 10q-2 3 -12.5 1.5t-11.5 -1.5q-5 0 -8 3q-13 14 -19 19q-10 10 -21.5 15t-21 8t-18.5 3q-10 -1 -19 -8q-15 -11 -19 -13q-17 -7 -31 -13t-29 -22.5t-27 -19.5
q-11 -2 -17 -2.5t-10 2.5q-5 5 -5 13q0 9 7 25q2 9 10 20t13 17t19 11t16 7q7 12 15 24l56 34q9 4 21 7q32 8 36 10t12 10t19.5 10.5t26 6t28.5 3.5q11 0 24.5 -3t25.5 -10q6 -3 26 -17q6 -4 8.5 -13.5t5 -12.5t15 -11.5t19 -15t19.5 -14.5q30 -19 33 -22l52 -44
q17 -8 32.5 -11t35.5 -3q22 0 36.5 3.5t31 12t27.5 18.5t23 21l44 30q5 4 23 22q9 9 16.5 13.5t18.5 9.5t18 5q3 0 12 -2.5t14 -16.5z" />
    <glyph glyph-name="trademark" unicode="&#x2122;" horiz-adv-x="1457" 
d="M1599 1312q-1 -11 -10 -19t-14 -23q-2 -1 -6.5 -2t-7.5 -1q-7 0 -12 2l-10 4q-16 -4 -22 -19.5t-17 -24.5q0 -15 -1 -21.5t-9 -12.5q3 -7 2 -12q-7 -8 -10 -22t-4 -21q-9 -11 -11.5 -17.5t-2.5 -13.5q0 -17 -8 -24q-2 -8 0 -14.5t-4 -8.5q-4 -13 -9 -37t-5 -32
q0 -5 1.5 -8t-5.5 -17q-3 -7 -6 -16.5t-3 -14.5q3 -7 3 -14q0 -37 -10 -47.5t-12 -37.5q0 -22 15 -22q7 0 12 1.5t11 3.5q7 -7 15 -7l12 2l22 -60q0 -11 -3 -12q-15 0 -30 -4t-16 -4q-23 0 -36.5 15.5t-24.5 15.5t-16 -1.5t-19 -7.5q-79 0 -95 1q-55 4 -55 26q5 18 9 24
t11 6q1 0 13 -2t23 -2q17 4 35 25q22 26 37 67q7 11 9.5 17t2.5 9q-2 3 -2.5 5t4.5 11q4 20 4 30q0 6 -2 11l10 12q0 24 4 33q6 9 12 19q0 3 -6 17q7 13 7 21q0 17 3.5 27.5t18.5 36.5l-5 12q-11 -18 -19 -19.5t-14 -18.5q-2 -20 -6.5 -25t-30.5 -17q-8 -16 -27 -33
q-10 -9 -26 -42q-46 -78 -66 -104q-12 -16 -17 -16q-3 0 -7.5 -6t-11.5 -19q-7 -3 -14 -21.5t-27 -48.5q-12 -17 -31 -29t-38 -12q-13 0 -13 16q1 13 1 19q4 8 4 12q0 2 -5 2q-6 2 -5 9t1 12.5v6.5q0 14 -5 24q-7 10 -10 15q0 27 -3 39t-3 20l2 26q-10 13 -10 22q4 13 4 21
q-8 18 -8 30q4 8 4 11q0 4 -5 10q-1 28 -2 43q-4 43 -11 57.5t-11 14.5q-3 0 -6.5 -7.5t-6.5 -13.5q-8 -11 -12 -26.5t-7 -33.5q-19 -39 -23 -50q-10 -24 -12 -39.5t-9 -18.5t-7 -22q1 -6 -4 -10q-13 -9 -10 -27q-9 -9 -14 -18.5t-8 -27.5q-10 -7 -12 -11q-6 -19 -17 -31
q-6 -6 -7 -10q-7 -20 -21 -33q-10 -9 -37 -23q-37 -17 -48.5 -22t-74.5 -5q-17 -5 -38 -5q-28 0 -55 10t-44 32q-15 17 -29 35q-2 6 -11.5 21.5t-10.5 22.5t-1 16q0 15 6 31.5t16 32.5q19 35 44 50t74 15q27 -4 38.5 -5.5t29.5 -26.5q12 -12 12 -37q0 -40 -24 -64
q-17 -23 -47 -23q-25 0 -49 16q-14 10 -21 18q-12 14 -12 27q0 12 9 27q-20 -11 -20 -37q0 -18 10 -43q4 -16 13 -29.5t25 -17.5q11 -4 15 -4q8 0 19 -8q4 -1 7.5 -1.5t7.5 -0.5q12 1 20 1q3 0 19 -2q2 1 51 13q27 7 35 21q16 6 26 17t16 33q10 12 21 25q10 16 10 29
q-1 6 4.5 15.5t5.5 13.5q8 26 17.5 39t9.5 17q-1 5 -1 9q12 24 31 48q33 72 50 100q10 17 23 31q3 8 5.5 17.5t2.5 14.5q0 10 -4.5 13.5t-8.5 7.5q-9 16 -22 21q-15 3 -21.5 4.5t-11.5 2.5q-3 0 -5 -4t-15 -4q-16 0 -29 2q-30 0 -49 -9q-11 -6 -21 -11q-8 -7 0 -12
q32 -19 32 -20q14 -7 19 -15t5 -28q-3 -9 -3 -12v-8q-2 -6 -12 -16q-15 -21 -47 -21q-17 0 -28 9q-34 20 -34 57q0 16 3 39q4 11 4 15q-2 5 -2.5 8t5.5 14q10 39 27 46q11 8 18.5 12t10.5 4q4 -3 11 -3q6 0 18 4q7 5 12 8q11 6 29 6q13 0 34 -3q12 -8 20 -8q13 4 29 4
q10 0 28 -3q13 6 33 6q13 0 26 -0.5t26 -0.5q12 -6 25 -11q11 -7 16 -49q12 -19 12.5 -27.5t1.5 -16.5q0 -76 4 -108q4 -21 8 -41q1 -4 0 -10.5t-2 -14.5q0 -13 9 -31q-1 -7 -1.5 -15t-0.5 -11q0 -18 6 -33t6 -16q0 -5 -8 -12q7 -10 10 -15q7 -11 7 -21q6 0 13 12
q14 24 26 39q31 33 37.5 50t15.5 24q24 46 36.5 49t19.5 22q12 6 16 14t10 19q14 32 32.5 41.5t26.5 43.5q32 23 39 37q19 36 30 45q0 14 8 20q2 2 9 4q11 11 15.5 14.5t16.5 5.5q17 -9 21 -9q5 0 17 9q10 0 13.5 -2t6.5 -4q3 -1 15.5 0t19.5 1q16 0 25.5 -5t9.5 -19z
M608 1306q0 -15 -11 -26q-17 -17 -51 -17q-19 -7 -33.5 -10.5t-32.5 -3.5q-23 0 -40.5 5.5t-33.5 11.5q-24 -17 -34 -39q-1 -7 -2 -14.5t-8 -14.5q2 -9 -1.5 -20t-3.5 -12l-17 -41q-1 -15 -6 -28q-8 -21 -15 -41l-32 -92q0 -20 -8.5 -37.5t-15.5 -33.5q-3 -10 -8 -27.5
t-8 -22.5q0 -21 46.5 -24t46.5 -34q0 -12 -21 -15h-22h-55q-17 -6 -42.5 -11t-52.5 -5q-14 0 -30 0.5t-33 4.5q-21 9 -21 19q2 3 4 5l5 5q11 15 22 23q6 3 16.5 5t14.5 3q15 7 24 18t13 36.5t11 40.5q11 23 16 45q6 8 12 17q2 3 2.5 11.5t2 17t11 33.5t19.5 49v12l5 15
q13 27 20.5 48t14.5 43q7 5 8.5 12.5t3.5 14.5l4 26q0 5 -4 8q-12 4 -18 5q-8 -6 -34 -6.5t-40 -1.5l-17 3q-4 0 -16.5 -8t-25.5 -5q-25 -8 -39 -15q-23 -12 -28 -28q-13 -8 -21 -20.5t-15 -22.5q0 -4 23.5 -27t24.5 -24q13 -1 21 -5q15 -8 15 -39q0 -34 -39 -34
q-21 0 -46 24t-21 42q-1 2 -3 4q-7 8 -7 22q0 12 8 26q5 9 5 13l-10 27q3 12 3.5 19t-1.5 10q2 7 3.5 12.5t3.5 8.5q12 6 15.5 12t6.5 8l27 16q19 3 28.5 10.5t10.5 7.5q4 0 32 6t64 6h96q4 2 7 2q12 3 18 4q6 -5 18 -5q8 0 14 2t11 4h56q2 0 4 1.5t3 2.5q10 -5 25.5 -8
t39.5 -3q37 0 58 8t27 8q10 0 21.5 -6t11.5 -16z" />
    <glyph glyph-name="scaron" unicode="&#x161;" 
d="M669 1108l-22 -24l-16 -45l-30 -51l-31 -48l-12 -41l-20 -47l-26 -38l-38 -27l-23 -4l-14 -20h-38l-63 -4l-24 35l-7 27l-8 24l-5 41l-10 51l-2 38l-14 17l-1 23l1 24l-5 58l14 28l25 24l35 6l25 -13l22 -24l4 -17l22 -21l-5 -20l12 -14l-4 -17l-7 -31l-23 -13l17 -21
l29 -7l15 14l10 27l21 4l7 31l30 44l19 27l38 45l25 10l29 10l24 -14l24 -17v-30zM556 688q0 -32 -19.5 -46t-46.5 -14q-20 0 -43 15q-9 6 -39 31l-58 -8q0 -18 -2.5 -42t-2.5 -28q0 -17 -2 -23t-8 -9q-1 0 -4 -1l7 -14q12 -25 19 -46q0 -5 5 -12.5t7 -14.5q2 -33 5 -66
q1 -5 -1.5 -9t-2.5 -8t13 -36q6 -15 6 -28q0 -5 -6 -19t-6 -20q1 -12 8 -27q12 -28 14 -34.5t4.5 -14t2.5 -19.5q0 -14 -5 -26.5t-8 -20.5l-11 -46q-3 -8 -10 -15l-24 -24q-3 -4 -3 -9q0 -8 -4 -11q-15 -9 -20 -14q-12 -9 -23.5 -16t-23 -10.5t-25.5 -3.5q-12 0 -26 1t-27 2
q-16 -5 -32 -11q-15 0 -37 9t-27.5 11t-12.5 10t-12 10q-19 7 -37 15q-18 15 -28 34q-4 11 -5.5 23t-1.5 32v19q0 13 21 30t39 17t33 -5.5t29 -21.5q8 -14 17 -27q10 -8 20 -13.5t21 -5.5q16 0 26.5 2.5t15.5 8t6.5 15.5t3 17t1.5 24.5v26.5q0 7 1 15q0 6 -2.5 11t-4.5 11
l2 16l-7 15q-3 14 -5 24.5t-2 18.5q0 11 -8.5 34.5t-16 46t-12 45t-6.5 41t-3 27.5t-1 14q0 7 2.5 16t3.5 15l12 36q9 28 19 56q7 10 17.5 21t21.5 22q2 2 14 18q4 6 10 11q24 20 36 29q21 16 39 23q5 1 18 1q14 0 17 1q11 6 23 12q8 2 17 3.5t14 1.5q49 0 87 -43
q34 -39 34 -76z" />
    <glyph glyph-name="guilsinglright" unicode="&#x203a;" horiz-adv-x="643" 
d="M572 345l-12 -46l-36 -24l-24 -29l-53 -22l-19 -26l-32 -21l-34 -10l-16 -30l-37 -16l-14 -20l-27 -19l-9 -22l-30 -14l-26 -2l-7 -20l-10 -14l-26 -5l-10 -20l-22 -11l-39 -5l-31 -5l-19 10l-7 46l7 36l19 12l27 7v21l26 6l14 26l23 3l9 16l20 -4l14 17l22 12l14 16
l31 7l42 30l14 24l32 7l14 27l5 22l-15 36l-19 28l-32 18l-14 17l-31 7l-17 12l-13 22l-23 11l-24 18l-20 11l-15 39l-21 3l-31 4l-5 25l-10 24l19 34l-4 26l31 26l29 20h26l25 -15l2 -21l26 -10l30 -5l11 -15l20 -18l10 -15l26 -8l31 -11l10 -30l24 -31l32 -17l26 -34
l36 -26l36 -17l32 -38z" />
    <glyph glyph-name="oe" unicode="&#x153;" horiz-adv-x="961" 
d="M951 628q0 -22 -5.5 -45t-19 -44.5t-33 -37.5t-40.5 -25l-53 -15q-6 -2 -33 -17q-17 -9 -21 -11q-23 -7 -48 -18q-20 -8 -47 -21t-52 -25q-10 -7 -23 -43q-8 -22 -11 -26q-10 -13 -20 -25q-7 -12 -7 -33q0 -22 25 -46t46 -24q9 0 18 -1l18 -2q4 0 15.5 3t25.5 15
q9 8 22 25q39 49 45 55q25 25 51 25q27 0 37 -19q7 -13 7 -33v-11q0 -17 -9 -35.5t-25 -36.5q-3 -4 -13 -14t-13 -15.5t-3 -14.5v-12q0 -9 -2 -12q-2 -7 -17.5 -23.5t-17.5 -19.5q-8 -14 -13 -21q-9 -13 -20 -18q-31 -14 -68 -14q-23 0 -49 -7q-9 -2 -23 -8q-44 0 -95 42
l-21 15q-12 9 -20 20q-3 4 -7 20t-7 21l-10 25q-5 -4 -9 -12q-10 -23 -12 -25q-13 -4 -20 -9q-3 -2 -14.5 -15.5t-18.5 -16.5l-17 -12l-42 -26q-5 -1 -17.5 1t-15.5 1q-4 -1 -11.5 -7.5t-12 -8.5t-13 -2t-13.5 -1h-22q-33 0 -60 18.5t-44 49.5q-4 7 -9 22.5t-6 18.5l-7 17
q-4 10 -5.5 21.5t-2.5 23.5q-3 13 -7.5 32t-4.5 27l-7 55q-1 6 -8 17t-9 16.5t-3 20t-1 23.5q0 6 3.5 20t8.5 31q1 2 5.5 7.5t5.5 7.5v19q6 10 10 17q2 18 5 36l26 48q1 2 6 3.5t6 3.5t0 12.5t1.5 15.5t8.5 12l12 14q2 6 5 12.5t7 11.5q10 9 12.5 12.5t5.5 13.5t6 13
q8 10 18 22t17 18q4 2 14 2q11 0 14 3l17 14q1 1 2 1q8 4 13 9q5 13 9 17q6 1 13 2q31 25 62 51q4 2 15 2t14 1q6 7 13 14q8 0 15.5 -4.5t13 -5.5t14.5 -1t14 -1q8 0 17.5 -5t14 -7t22 -8.5t23.5 -12.5q2 -1 3 -8t3 -10q8 -7 17 -14q2 -2 4 -8q6 -15 7 -18l15 -34
q19 23 32 37q19 21 36 35q9 2 14 3t10 4q9 6 30 17.5t30 15.5t24.5 5t24.5 3q8 0 22 6t21 6q13 0 24 -2t20.5 -3.5t20.5 -5t20 -8.5t14.5 -8t11.5 -9q10 -10 17 -29q1 -4 10 -36q3 -10 15.5 -37.5t12.5 -44.5zM763 614q0 13 -14.5 26.5t-26.5 13.5q-7 0 -16 -8t-32 -38
q-14 -12 -27 -24q-13 -17 -24.5 -39t-21.5 -43v-21l17 -8q3 -2 6 -3t9 -1q9 0 18.5 5.5t28.5 24.5q5 5 21 20q14 3 28 7q13 13 20 27t10.5 28.5t3.5 32.5zM442 611q0 10 -2.5 17.5t-8 15t-9 14.5t-7.5 11q-10 11 -21 15q-14 7 -27 7q-8 0 -17.5 -5t-17 -9.5t-16.5 -10.5
q-4 -4 -6.5 -14.5t-7.5 -18.5q-1 -2 -16 -10q-7 -4 -10 -9l-18 -35q-2 -4 -1 -12.5t1 -10.5q-4 -13 -9 -22q-9 -14 -12 -20q-7 -15 -13 -23t-16 -17q-3 -1 -6 -2.5t-6 -7.5l-1 -20l-12 -12q-1 -2 0 -12.5t0 -13.5q-4 -11 -9.5 -29.5t-9.5 -33.5q-7 -7 -9 -12l-1 -14l-11 -41
q-6 -5 -8 -11.5t-2 -11.5q2 -14 2 -19q0 -3 -1 -6t-3 -6q0 -7 0.5 -11.5t3.5 -15.5q1 -11 2 -21q8 -7 9.5 -9t7 -16t8 -18t3.5 -9.5t2 -7.5q8 -4 17 -8l14 -16q4 4 10.5 5.5t8.5 3.5l25 20q3 3 11.5 2t11.5 2l13 8q2 1 0.5 5.5t-0.5 5.5q10 8 16.5 17t12.5 17.5t15.5 19
t12.5 17.5q1 13 1.5 21.5t2.5 15t5 14.5t6 14q5 16 7.5 25t7.5 16l16 33l17 49q1 2 6.5 8.5t7.5 12t3 15t1.5 13.5t5.5 12t6 11l4 37q-5 5 -5 9v23t3 23l5 15q7 16 7 31z" />
    <glyph glyph-name="Ydieresis" unicode="&#x178;" horiz-adv-x="984" 
d="M957 1239l-3 -24l-23 -48l-10 -27l-19 -17l-24 -9l-10 -18h-29l-27 -5l-27 17l-21 27l-5 43l-12 42l7 36l15 15l7 16l10 19l19 6l10 16l16 1l34 7l25 -1l18 -16l17 -12l15 -15l8 -26zM605 1200l-3 -21l-2 -24l-13 -32l-19 -17l-26 -9l-17 -17l-17 14l-27 3l-31 14l-24 22
l-13 26l-4 31l-10 39l5 22l17 20l12 16l7 17l19 3l13 14l38 3l20 -3l23 -14l20 -22l14 -24l15 -19zM1082 910q2 -10 2 -14q0 -19 -11 -43q-6 -16 -9 -25q-6 -16 -15.5 -25t-20.5 -14.5t-24 -8t-20 -2.5q-11 0 -20 4q-22 12 -29 25q-9 12 -10 13q-6 9 -6 13q-1 3 -1 6.5v4.5
l3 21q-11 7 -16 10q-15 9 -27 9q-7 0 -16.5 -5t-18.5 -10q-15 -12 -29 -24q-9 -10 -17 -28q-15 -22 -35 -39q-5 -4 -9 -8q-1 -3 -10 -16.5t-16 -23.5q-3 -6 -8.5 -19.5t-12 -28t-14.5 -34.5t-13 -34l-10 -32q-8 -15 -16 -29v-36q-1 -8 -10 -19t-10 -18q-2 -10 2 -24.5
t3 -22.5q-1 -13 -9 -30q-2 -6 -8 -16l-17 -78q-1 -6 -4 -13.5t-3 -10.5l-15 -125q-3 -15 -3 -16q3 -3 8 -11q2 -3 15 -10t15 -9t45 -15q21 -6 22 -9q4 -4 7.5 -11.5t7.5 -15.5q2 -3 0 -12q-7 -18 -8 -25t-11 -14t-15 -7l-133 9h-73q-3 0 -13.5 -7t-15.5 -5q-9 3 -16 5t-18 2
l-93 -9q-13 0 -23 6t-16 18q-2 4 2.5 15.5t6.5 18.5q2 18 8 25t13.5 10.5t19 7t36.5 9t32 6.5q4 0 13 5t12 5q3 15 9 23.5t12 34.5q5 13 9.5 30.5t4.5 38.5q-2 6 -2 13t5 19q2 10 3 15.5t4 11.5v24q0 9 2 17t3 14q3 5 4.5 8t0.5 12q-2 5 -3 15t-2 14q2 7 3 17q0 11 4 27
q10 40 10 43l10 55q0 20 0.5 38.5t3.5 23.5q4 12 8 25q2 6 2 19q0 16 -4 27q0 21 -5 31q2 9 0 10q0 5 -3 8q-2 0 -3 1l-14 34q-2 3 -2 12q0 7 -2 10q-5 9 -21.5 24.5t-20.5 21.5q-9 4 -36 26q-10 8 -21 15q-5 3 -7 8.5t-4 6.5q-7 -8 -14 -8q-7 -1 -19.5 3.5t-26.5 10.5
l-10 -4q-1 1 -6 9q-9 3 -18 3q-12 0 -26.5 -4t-21.5 -6l-44 -14q-48 -21 -62 -78q-2 -8 -3 -15.5t-1 -20.5q0 -48 19 -78q26 -41 82 -41q12 0 19 1q-52 0 -76 26q-20 22 -20 59q0 20 7 40.5t16 29.5q14 15 43 20q8 1 28 3q30 0 45 -3t34 -18q25 -17 38 -37.5t13 -46.5
q1 -5 1 -14q0 -22 -8 -46t-20 -42q-18 -22 -27 -32q-17 -19 -26.5 -20.5t-16.5 -8t-12 -6.5q-17 -1 -26 -1q-11 0 -20 5q-13 5 -33 16q-26 14 -29 16q-30 14 -51.5 38.5t-35.5 55.5q-7 20 -12 44t-5 47v12q2 9 2 13q4 47 15 78.5t36 56.5q13 11 34.5 20.5t42.5 18.5
q11 6 33.5 11t41.5 10q31 10 55 10q26 0 70 -15q35 -10 52 -15q30 -10 43 -26q3 -2 3 -8t2 -8q4 -2 9 0.5t10 -0.5q16 -7 23.5 -12t43.5 -35q6 -8 15 -25q3 -6 14 -23l12 -22l15 -35q4 -9 6.5 -19t4 -16.5t3 -21.5t6.5 -21q5 10 17 21q7 7 9.5 11.5t2.5 12.5q-1 11 -1 17
q0 5 3 11l33 60q6 9 10 19t8 17q19 22 21 21q-9 -19 -9 -20q1 1 3 2q7 9 13 17q5 10 16.5 24.5t18 20t23.5 19.5q7 6 13 12l28 15q10 7 19.5 9.5t30 6.5t31.5 6t22 2q6 0 17 -2t19.5 -5t24.5 -10.5t17 -7.5q9 -5 15 -13q5 -3 9 -10.5t6 -9.5q18 -14 27.5 -24t12.5 -22z" />
    <glyph glyph-name="nonbreakingspace" unicode="&#xa0;" horiz-adv-x="526" 
 />
    <glyph glyph-name="exclamdown" unicode="&#xa1;" horiz-adv-x="473" 
d="M319 1062q8 -16 8 -34q0 -26 -15 -50q-18 -40 -38.5 -57.5t-46.5 -17.5q-18 0 -39 7.5t-50 23.5q-20 13 -39 27q-20 18 -17 39q-2 9 -2 18v14q0 21 3.5 39.5t8 30t23.5 20t22 23.5q23 7 39 7q12 -2 58 -24q21 -10 31 -10q8 -5 33 -35q11 -14 21 -21zM210 350l-9 -48
l-15 -34l-10 -39l-10 -31l-4 -41v-31l-29 -44l-22 -55l-34 -20l-34 -10l-45 -9l-29 14l-39 20l-44 41l5 39l5 35l10 32l22 39l19 39l5 28l2 42l2 43l6 27l-5 45l28 37l3 41l9 41l5 34l13 38l5 49l28 45l22 27l20 22l16 21l32 13l22 -18l17 -19l4 -21l7 -23l10 -36l9 -28
l-2 -53l-2 -34l-8 -44l-4 -34l14 -33l-5 -30l-5 -43z" />
    <glyph glyph-name="cent" unicode="&#xa2;" horiz-adv-x="923" 
d="M1012 1236v-13q0 -26 -1 -37t-7 -19q-14 -18 -29 -18q-27 -5 -33 -8q-19 -9 -26 -32q-1 -1 -6.5 -1.5t-6.5 -6.5q0 -10 1 -24t1 -19q0 -12 -2 -23t-10 -28q0 -22 -4.5 -36t-14.5 -34q-3 -6 -11.5 -35.5t-19.5 -34.5q-8 -9 -11 -20t-3 -19v-20q0 -18 9 -23q3 -1 12 -1h23
q18 0 26 -2q22 0 38 4.5t27 7.5q20 -6 29 -22.5t9 -37.5q0 -15 -2.5 -25.5t-6.5 -22t-7 -20.5q-9 -8 -28 -12t-72 -4q-19 0 -37 10q-20 14 -26 18q-3 0 -2 -6.5t-2 -7.5h-27q-2 -4 -5 -19t-10 -25q-2 -12 -0.5 -22t3.5 -19q0 -25 -9.5 -42.5t-19.5 -34.5q0 -6 5 -12
q0 -19 -6 -42t-26 -61q2 -10 2 -12q0 -8 -23 -40q-3 -11 -7 -39q-7 -52 -8 -56.5t-8.5 -5.5t-7.5 -4q0 -9 6.5 -15.5t14.5 -6.5q9 -3 12 -3t8 3q27 27 43 37q32 20 73 20q25 0 38.5 -12.5t13.5 -33.5q0 -27 -20.5 -56.5t-54.5 -46.5q-7 -5 -28 -29q-8 -9 -25 -27
q-12 -4 -16 -7q-18 -16 -36 -31q-43 -6 -53 -8t-42 -12q-6 0 -12 1t-11 2q-9 0 -18 -5q-13 0 -26 8t-15 9q-20 0 -26 9q-4 14 -6 22q-8 12 -13.5 23.5t-5.5 20.5q4 3 6 6q8 10 14 23q1 2 4 14t5 17q11 20 15.5 65t4.5 94v13q0 19 -0.5 36t-0.5 31q5 1 8 2q10 5 17 20
q7 35 14 52q1 1 22 42q0 21 5 42q2 7 12 38q8 4 8 10q-5 10 -5 16q0 26 -16 50t-16 35q0 9 11.5 19t36.5 25l21 9q14 6 19.5 13.5t5.5 22.5v16.5t3 17.5q10 21 11 24q7 17 10 31q2 4 3.5 8t1.5 7q1 4 3 27.5t2 25.5q6 8 12 17q1 6 1 13v10v21.5t1 18.5q2 7 7 25.5t5 27.5
q0 16 -14 29q-5 5 -29 20q-8 15 -27 19q-26 3 -41 5q-5 0 -15 2.5t-13 2.5q-17 0 -41.5 1t-53.5 3q-24 0 -35.5 -3.5t-24 -7.5t-20.5 -5.5t-18 -1.5q-12 0 -24 1t-23 2q-4 0 -10 -2q-26 -14 -40 -28q-4 -4 -22 -27q-8 -3 -15 -5q-3 -3 -3 -11q0 -19 -1.5 -21.5t-11 -4.5
t-11 -6t-1.5 -12q0 -7 3 -21t3 -18q-1 -5 -9.5 -8.5t-8.5 -6.5q0 -5 6.5 -9.5t7.5 -6.5q5 -25 19 -46.5t36 -41.5q8 -16 15 -24q4 -4 21 -16q10 -7 31.5 -11t44.5 -4q6 -2 9 -9.5t10 -10.5q47 -22 63 -32q29 -19 29 -40q0 -6 -4.5 -18.5t-5.5 -17.5q1 -5 1 -13q0 -18 -9 -30
q-3 -2 -5 -8.5t-5.5 -9t-10.5 -2.5q-15 2 -20 2q-35 0 -51 16t-48 16q-22 0 -45 -21t-32 -54l-28 -32q-26 -56 -48 -129q-16 -52 -30 -119q-4 -16 -15 -33q-4 -6 -4 -11q3 -16 12 -36q25 -55 27 -62q15 -25 41 -25q5 -1 15 -1q39 0 112 40q14 8 32 24q13 12 27 24h33v-46
q-5 -7 -9 -28.5t-10 -29.5q-2 -4 -7 -3t-10 -2q-51 -55 -92 -76q-17 -9 -72 -25q-42 -15 -89 -15h-17q-7 1 -10 1q-9 2 -18.5 10t-17.5 16q-30 13 -40 27q-4 6 -16 39q-19 33 -27 51q-11 25 -11 45q0 26 2 28q6 6 9 17t11 68t11 66q5 26 12 43q2 5 8.5 9.5t8.5 7.5
q13 35 17.5 65t9.5 39q1 1 9 6.5t10 8.5q27 38 55 77l27 12q3 4 3 10q0 11 5 16q29 21 31 23q14 11 22 21q12 17 12 34q0 13 -16.5 25.5t-31.5 24.5q-8 7 -25 27t-29 27q-20 12 -28 17q-15 9 -23 24q-23 38 -23 116q0 46 6 79t20 78q13 8 34 45q11 19 21 27q29 9 46 31
q9 12 20 15.5t43 9t68 11.5q13 -1 40.5 -11t67.5 -10q22 -11 43 -20t34 -9h9q9 2 13 2q10 -7 30 -23.5t37 -16.5q5 0 25 4q107 0 126 14q6 6 11 24.5t7.5 31t12.5 24.5t34 22q14 5 34 9.5t40 4.5q23 0 42.5 -7.5t33.5 -26.5q3 -5 6 -10.5t8 -8.5q14 -8 14 -20q0 -4 -2 -16
t-2 -15z" />
    <glyph glyph-name="sterling" unicode="&#xa3;" horiz-adv-x="1295" 
d="M1201 241q-5 -9 -10.5 -20t-9.5 -19.5t-6 -17.5t-8 -18t-6 -12q2 -13 2 -19t-2.5 -9.5t-9.5 -6.5t-13 -5l-13 -5q-5 -12 -9 -24q-11 -7 -23 -11.5t-19 -6t-19.5 -12t-22 -12.5t-19.5 -4t-15 -5t-15 -3q-8 0 -18 -0.5t-25 -4.5q-20 -9 -39 -14t-48 -5q-2 0 -18 6
q-6 2 -9 1q-10 1 -17 0l-55 1q-3 0 -11 6q-21 16 -23 17q-7 0 -19 -7.5t-18 -6.5q-7 0 -22 8t-18 9q-28 -3 -56 -5q-10 1 -19 5l-30 14q-8 2 -27 3t-33 2q-15 4 -26 6t-20 2q-10 -7 -18 -13t-21 -12l-53 -28q-9 -2 -33.5 -11t-36.5 -9q-15 -2 -24.5 -2.5t-21.5 -0.5
q-14 0 -27 2t-25.5 5.5t-23.5 7.5q-23 0 -40.5 4.5t-34.5 14.5q-12 6 -28.5 16.5t-22.5 18.5q-5 10 -5 23q0 8 1.5 24t1.5 18q2 19 3.5 27t7.5 14q5 10 13 16.5t24 14.5q2 2 14 17q9 11 19.5 15t26 6.5t32.5 4.5h55q6 -1 18 -1q21 1 30 1q11 23 22 47q1 4 1 14
q0 26 2.5 33.5t8.5 20.5q14 29 17 37q2 28 5 56q5 21 7 31q6 28 14 51l18 68q3 6 3 13q0 20 1 23l20 58q-14 -3 -24 -3q-6 0 -11.5 1t-25 7t-24.5 7q-19 7 -35 10.5t-33 1.5q-8 1 -20.5 -7t-15.5 -9q-4 -1 -0.5 -18.5t3.5 -21.5q0 -7 -5 -7q0 -9 -1 -14q-4 -16 -18 -24
q-5 -4 -13 -6t-19 -2q-30 0 -43 10q-7 7 -15 25l-3 9v63q1 3 0 18.5t0 19.5q3 7 10 11t17 9q7 7 19 12t34 12q2 1 18.5 4t23.5 6l5 5q9 6 24 11h32t23 -2q5 1 11.5 -7.5t10.5 -9.5q11 0 14 1q14 5 20 4q9 0 38 -8q15 -4 29 -4l2 -2q6 18 11.5 32t10.5 26l19 81q0 1 2 18
t8 31l14 42q11 31 17 42q5 18 42 56q19 19 25 35.5t10.5 30t15.5 23.5q30 32 75.5 57.5t51.5 22.5q31 19 84.5 29t102.5 19q25 7 54 7q40 0 78.5 -14.5t74.5 -39.5t53 -48q21 -28 21 -59q0 -16 -6 -34q-11 -36 -49 -62t-75 -26q-36 0 -52 27q-3 5 -17 22q-9 11 -9 21t5.5 21
t20.5 29q-16 10 -47 12t-60 2q-4 4 -34 -18q-17 -12 -31 -28q-7 -10 -24.5 -17.5t-22 -19.5t-14.5 -28q-13 -21 -23 -32q-17 -18 -28 -55q-6 -23 -11 -46q-7 -21 -20 -49q-6 -13 -12 -31q-16 -48 -19 -49v8l5 -56q-3 -16 -5 -23q23 -2 46.5 -13.5t54.5 -11.5q15 2 43 -7
q9 -2 25 -9q10 6 27 9.5t26 7.5q-4 10 -7.5 21.5t-6.5 23.5q0 10 1 21q-2 13 -3 27q-4 11 13 24q7 5 22 13q24 22 49 19q19 0 34 -19.5t17 -43.5q8 -16 13.5 -27.5t5.5 -15.5q0 -12 -7.5 -36.5t-7.5 -29.5q-3 -13 -16 -25q-13 -10 -25 -20q-4 -4 -14.5 -10.5t-23.5 -13.5
q-10 -8 -25.5 -12.5t-30.5 -9t-43 -7.5q-5 0 -14 5q-22 12 -25 12q-7 0 -27 4.5t-23 4.5q-20 0 -32 5.5t-20 5.5q-6 0 -11 -1q-10 1 -21.5 1.5t-17.5 0.5q-2 -10 -2 -16q-1 -12 -1.5 -26.5t-1.5 -22.5l-14 -55v-41q0 -12 -4.5 -26t-8 -26t-5 -16t-9.5 -24l-22 -48
q-5 -30 -9 -59l-13 -51q-3 -6 -3 -14t-4 -14q8 -2 28 -13t32 -11q20 -2 29 -3t22 -4q31 -9 63 -18l68 -12q9 -2 25.5 -6t22.5 -4q4 2 15 -1t16 -1l34 -2q4 2 14 2q11 0 21.5 3t27.5 7l29 15q3 8 7 17q1 3 16.5 8t17.5 8q2 10 3 14q3 2 7.5 16t6.5 16t7 4t5 8q1 5 -2.5 7
t-6.5 5l-25 27q-3 4 -23 12t-25.5 14t-11.5 19t-12 27l-7 3q-1 3 -4.5 15t-3.5 19q0 4 5 10t5 7q0 3 -4.5 6t-4.5 5q2 14 8 25.5t15 25.5t30 28t41 21q5 2 12 2h11h23q10 -1 17 -2.5t16 -5.5q18 -12 21 -15q12 -10 20 -23q8 -5 17 -9q1 -3 1.5 -9.5t1.5 -13.5
q13 -25 20.5 -48.5t6 -39t3.5 -32.5t6 -20q1 -7 -1 -14.5t-4 -14.5q1 -8 4.5 -21t3.5 -20zM215 109q-7 2 -19 3.5t-22 3.5q-23 6 -34 6q-14 0 -14 -14q1 -10 14 -14q5 -1 26 -5q14 -3 26 2.5t23 17.5z" />
    </font>
</defs>
</svg>
